<?xml version="1.0" encoding="UTF-8"?>
<svg width="67px" height="46px" viewBox="0 0 67 46" version="1.1" xmlns="http://www.w3.org/2000/svg" xmlns:xlink="http://www.w3.org/1999/xlink">
    <!-- Generator: Sketch 46.2 (44496) - http://www.bohemiancoding.com/sketch -->
    <title>Group 2 Copy 4</title>
    <desc>Created with Sketch.</desc>
    <defs></defs>
    <g id="Page-1" stroke="none" stroke-width="1" fill="none" fill-rule="evenodd">
        <g id="Desktop-2" transform="translate(-1187.000000, -473.000000)" fill="#7B7B7B">
            <g id="Group-2-Copy-4" transform="translate(1187.000000, 473.000000)">
                <path d="M1.538,43 L8.16,43 L8.16,41.978 L2.644,41.978 L2.644,33.2 L1.538,33.2 L1.538,43 Z M13.186,43.168 C11.016,43.168 9.434,41.46 9.434,39.416 L9.434,39.388 C9.434,37.344 11.03,35.608 13.214,35.608 C15.384,35.608 16.98,37.316 16.98,39.36 L16.98,39.388 C16.98,41.432 15.37,43.168 13.186,43.168 Z M13.214,42.202 C14.782,42.202 15.874,40.942 15.874,39.416 L15.874,39.388 C15.874,37.834 14.712,36.56 13.186,36.56 C11.618,36.56 10.54,37.834 10.54,39.36 L10.54,39.388 C10.54,40.942 11.688,42.202 13.214,42.202 Z M21.082,43.154 C19.738,43.154 18.38,42.384 18.38,40.9 L18.38,40.872 C18.38,39.346 19.64,38.534 21.474,38.534 C22.398,38.534 23.056,38.66 23.7,38.842 L23.7,38.59 C23.7,37.288 22.902,36.616 21.544,36.616 C20.69,36.616 20.018,36.84 19.346,37.148 L19.024,36.266 C19.822,35.902 20.606,35.664 21.656,35.664 C22.678,35.664 23.462,35.93 23.994,36.462 C24.484,36.952 24.736,37.652 24.736,38.576 L24.736,43 L23.7,43 L23.7,41.908 C23.196,42.566 22.356,43.154 21.082,43.154 Z M21.292,42.3 C22.622,42.3 23.714,41.488 23.714,40.34 L23.714,39.64 C23.182,39.486 22.468,39.332 21.586,39.332 C20.228,39.332 19.472,39.92 19.472,40.83 L19.472,40.858 C19.472,41.768 20.312,42.3 21.292,42.3 Z M30.07,43.154 C28.334,43.154 26.612,41.782 26.612,39.402 L26.612,39.374 C26.612,37.008 28.334,35.608 30.07,35.608 C31.414,35.608 32.282,36.336 32.842,37.148 L32.842,32.78 L33.92,32.78 L33.92,43 L32.842,43 L32.842,41.544 C32.254,42.412 31.4,43.154 30.07,43.154 Z M30.266,42.188 C31.61,42.188 32.884,41.054 32.884,39.388 L32.884,39.36 C32.884,37.694 31.61,36.574 30.266,36.574 C28.866,36.574 27.718,37.61 27.718,39.36 L27.718,39.388 C27.718,41.096 28.908,42.188 30.266,42.188 Z M36.356,34.18 L37.588,34.18 L37.588,32.99 L36.356,32.99 L36.356,34.18 Z M36.426,43 L37.504,43 L37.504,35.762 L36.426,35.762 L36.426,43 Z M40.01,43 L41.088,43 L41.088,38.856 C41.088,37.498 42.012,36.588 43.258,36.588 C44.532,36.588 45.26,37.428 45.26,38.772 L45.26,43 L46.338,43 L46.338,38.506 C46.338,36.784 45.316,35.608 43.566,35.608 C42.32,35.608 41.564,36.238 41.088,37.022 L41.088,35.762 L40.01,35.762 L40.01,43 Z M51.84,45.268 C50.636,45.268 49.516,44.932 48.55,44.26 L49.04,43.42 C49.866,44.022 50.79,44.344 51.826,44.344 C53.422,44.344 54.458,43.462 54.458,41.768 L54.458,40.914 C53.828,41.754 52.946,42.44 51.616,42.44 C49.88,42.44 48.214,41.138 48.214,39.052 L48.214,39.024 C48.214,36.91 49.894,35.608 51.616,35.608 C52.974,35.608 53.856,36.28 54.444,37.064 L54.444,35.762 L55.522,35.762 L55.522,41.74 C55.522,42.86 55.186,43.714 54.598,44.302 C53.954,44.946 52.988,45.268 51.84,45.268 Z M51.826,41.488 C53.198,41.488 54.486,40.494 54.486,39.038 L54.486,39.01 C54.486,37.526 53.198,36.56 51.826,36.56 C50.454,36.56 49.32,37.512 49.32,38.996 L49.32,39.024 C49.32,40.48 50.482,41.488 51.826,41.488 Z M64.524,43 L65.784,43 L65.784,41.558 L64.524,41.558 L64.524,43 Z M61.164,43 L62.41,43 L62.41,41.558 L61.164,41.558 L61.164,43 Z M57.804,43 L59.05,43 L59.05,41.558 L57.804,41.558 L57.804,43 Z" id="Loading…-Copy"></path>
                <g id="loading-(2)" transform="translate(23.000000, 0.000000)" fill-rule="nonzero">
                    <path d="M4.88950017,11.7470638 L0.675870306,11.7470638 C0.312505873,11.7470638 0.0152303905,11.4494718 0.0152303905,11.0857709 L0.0152303905,11.0670125 C0.0152303905,10.7032889 0.312528554,10.4057196 0.675870306,10.4057196 L4.88950017,10.4057196 C5.25286461,10.4057196 5.55014009,10.7033116 5.55014009,11.0670125 L5.55014009,11.0857709 C5.55016279,11.4494945 5.25286461,11.7470638 4.88950017,11.7470638 Z M21.3203516,11.7470638 L17.1066991,11.7470638 C16.7433346,11.7470638 16.4460592,11.4494718 16.4460592,11.0857709 L16.4460592,11.0670125 C16.4460592,10.7032889 16.7433573,10.4057196 17.1066991,10.4057196 L21.3203289,10.4057196 C21.6836934,10.4057196 21.9809689,10.7033116 21.9809689,11.0670125 L21.9809689,11.0857709 C21.9809916,11.4494945 21.6836934,11.7470638 21.3203516,11.7470638 Z M20.3672006,6.38352655 L16.6998425,8.46047075 C16.3836002,8.63956191 15.9784453,8.52710191 15.7995309,8.21054705 L15.7902971,8.19421855 C15.6113827,7.87766369 15.7237317,7.47210829 16.039974,7.29301712 L19.7073321,5.21607292 C20.0235744,5.03698175 20.4287294,5.14944175 20.6076437,5.46599662 L20.6168776,5.48232511 C20.7958146,5.79887998 20.6834656,6.20441268 20.3672006,6.38352655 Z M16.794359,2.34321089 L14.6241777,5.95857678 C14.4370277,6.27033982 14.0290822,6.37214882 13.717627,6.18483664 L13.7015642,6.17516219 C13.3901089,5.98782729 13.2884005,5.57947855 13.4755277,5.2677155 L15.6457091,1.65234962 C15.832859,1.34058657 16.2408045,1.23877758 16.5522598,1.42608975 L16.5683226,1.43574151 C16.8797778,1.62309911 16.981509,2.03144785 16.794359,2.34321089 Z M11.6595903,0.68912712 L11.6378102,4.9068761 C11.6359272,5.27057695 11.3371089,5.56662467 10.9737672,5.56473974 L10.9550272,5.56464891 C10.5916855,5.56276399 10.2959301,5.26365041 10.2978131,4.89994955 L10.3195932,0.682200575 C10.3214763,0.318499717 10.6202945,0.0224520055 10.9836363,0.0243369273 L11.0023762,0.0244277624 C11.365718,0.026289981 11.6614734,0.325426262 11.6595903,0.68912712 Z M6.46091071,1.64483259 L8.57600662,5.29276463 C8.75839216,5.60734372 8.65051267,6.01410277 8.33624417,6.19666855 L8.32002254,6.2060932 C8.00575406,6.38865901 7.59939663,6.28067289 7.41701111,5.96609379 L5.3019152,2.31816174 C5.11952965,2.00358266 5.22740914,1.59682361 5.54167765,1.41425783 L5.55789927,1.40483317 C5.87216775,1.22226739 6.27850248,1.33027621 6.46091071,1.64483259 Z M2.3420242,5.20737499 L5.99590587,7.30798302 C6.3109911,7.48911808 6.42073099,7.8953775 6.23977476,8.21077415 L6.23045016,8.22703451 C6.04949395,8.54243116 5.64363565,8.65227951 5.32855042,8.47114443 L1.67464606,6.37055913 C1.35956083,6.18942407 1.24982094,5.78316464 1.43077717,5.467768 L1.44010177,5.45150764 C1.62108066,5.13608824 2.02693894,5.02623991 2.3420242,5.20737499 Z M19.6931524,16.7553937 L16.0440351,14.6464965 C15.7293582,14.4646347 15.6205485,14.0581255 15.8022307,13.7431376 L15.8116007,13.7269 C15.9932829,13.4119121 16.3993908,13.3029949 16.7140677,13.4848567 L20.3631849,15.5937539 C20.6778618,15.7756156 20.7866715,16.1821249 20.6049893,16.4971127 L20.5956193,16.5133504 C20.4139144,16.8283383 20.0078065,16.9372555 19.6931524,16.7553937 Z M6.02696517,14.5944906 L2.39071176,16.7255528 C2.07714658,16.9093222 1.67038079,16.8028576 1.48679281,16.4889825 L1.47733208,16.4727903 C1.2937441,16.1589152 1.40010353,15.7517474 1.7136687,15.567978 L5.34992212,13.4369158 C5.66348729,13.2531464 6.07025309,13.3596109 6.25384107,13.673486 L6.2633018,13.6896783 C6.44686708,14.0035533 6.34053035,14.4107212 6.02696517,14.5944906 Z M8.56513925,16.5759619 L6.47658782,20.2391778 C6.29649372,20.5550741 5.89093039,20.6660125 5.57534602,20.4857404 L5.55907901,20.476452 C5.24349464,20.2961799 5.13266576,19.8902157 5.31275986,19.5743195 L7.40131129,15.9111036 C7.58140539,15.5952073 7.98696872,15.4842689 8.30255309,15.664541 L8.31884278,15.6738294 C8.63440447,15.8541241 8.74525603,16.2600883 8.56513925,16.5759619 Z M11.6953914,17.0963391 L11.6796915,21.3141108 C11.6783303,21.6778344 11.3799431,21.9742909 11.0165787,21.9729283 L10.9978387,21.9728601 C10.6344743,21.9714976 10.3383105,21.6728155 10.3396491,21.3090919 L10.3553489,17.0913202 C10.3567101,16.7275966 10.6550973,16.4311401 11.0184618,16.43248 L11.0372017,16.4325482 C11.4005661,16.4339335 11.6967526,16.7326156 11.6953914,17.0963391 Z M14.6887239,15.9854788 L16.7499368,19.664183 C16.9276713,19.9814191 16.813825,20.3865203 16.4969021,20.5644533 L16.4805443,20.5736281 C16.1636214,20.7515384 15.7589202,20.6375795 15.5811629,20.3203434 L13.51995,16.6416392 C13.3422154,16.3244031 13.4560618,15.9193019 13.7729847,15.7413689 L13.7893424,15.7321941 C14.1062654,15.5542839 14.5109893,15.6682427 14.6887239,15.9854788 Z" id="Shape"></path>
                </g>
            </g>
        </g>
    </g>
</svg>