<svg xmlns="http://www.w3.org/2000/svg" viewBox="-4778 -1931.462 128.436 106.728">
  <defs>
    <style>
      .cls-1 {
        fill: #7b7b7b;
      }
    </style>
  </defs>
  <g id="upload-icon" transform="translate(-4778 -1931.462)">
    <path id="path" class="cls-1" d="M823.895,155.426a3.561,3.561,0,0,0,3.527-3.531V112.574l11.384,11.4a3.485,3.485,0,0,0,4.81,0,3.217,3.217,0,0,0,0-4.815L826.3,101.821a3.211,3.211,0,0,0-4.81,0l-17.317,17.333a3.217,3.217,0,0,0,0,4.815,3.485,3.485,0,0,0,4.81,0l11.384-11.4V151.9A3.561,3.561,0,0,0,823.895,155.426Z" transform="translate(-759.757 -48.698)"/>
    <path id="path-2" data-name="path" class="cls-1" d="M702.44-107.584a38.1,38.1,0,0,0-38-34.988,38.271,38.271,0,0,0-38.162,38.2c0,1.765.16,3.531.321,5.136h-1.283a25.2,25.2,0,0,0-25.014,25.2,25.229,25.229,0,0,0,25.174,25.2h21.647a3.56,3.56,0,0,0,3.528-3.531,3.56,3.56,0,0,0-3.528-3.531H625.475A18.28,18.28,0,0,1,607.2-74.2a18.28,18.28,0,0,1,18.279-18.3,15.486,15.486,0,0,1,4.65.642,3.64,3.64,0,0,0,3.367-.8,3.168,3.168,0,0,0,.8-3.531,31.259,31.259,0,0,1-1.283-8.506,31.426,31.426,0,0,1,31.267-31.3,31.426,31.426,0,0,1,31.267,31.3,3.561,3.561,0,0,0,3.528,3.531,22.593,22.593,0,0,1,22.609,22.63,22.593,22.593,0,0,1-22.609,22.63H681.916a3.561,3.561,0,0,0-3.528,3.531,3.561,3.561,0,0,0,3.528,3.531h17.317a29.439,29.439,0,0,0,29.5-29.531A29.645,29.645,0,0,0,702.44-107.584Z" transform="translate(-600.301 142.571)"/>
  </g>
</svg>
