<?xml version="1.0" encoding="UTF-8"?>
<svg width="10px" height="10px" viewBox="0 0 10 10" version="1.1" xmlns="http://www.w3.org/2000/svg" xmlns:xlink="http://www.w3.org/1999/xlink">
    <!-- Generator: Sketch 43 (38999) - http://www.bohemiancoding.com/sketch -->
    <title>Delete</title>
    <desc>Created with Sketch.</desc>
    <defs></defs>
    <g id="Page-1" stroke="none" stroke-width="1" fill="none" fill-rule="evenodd">
        <g id="Delete" transform="translate(-1577.000000, -632.000000)" fill="#FFFFFF">
            <g id="Group-5" transform="translate(1577.000000, 631.000000)">
                <path d="M5,4.81161818 L1.43562682,1.247245 C1.10513717,0.916755353 0.574951057,0.918587938 0.246811894,1.2467271 C-0.0836149944,1.57715399 -0.0810953992,2.10711683 0.247329789,2.43554202 L3.81170297,5.99991521 L0.247329789,9.56428839 C-0.0810953992,9.89271358 -0.0836149944,10.4226764 0.246811894,10.7531033 C0.574951057,11.0812425 1.10513717,11.0830751 1.43562682,10.7525854 L5,7.18821223 L8.56437318,10.7525854 C8.89486283,11.0830751 9.42504894,11.0812425 9.75318811,10.7531033 C10.083615,10.4226764 10.0810954,9.89271358 9.75267021,9.56428839 L6.18829703,5.99991521 L9.75267021,2.43554202 C10.0810954,2.10711683 10.083615,1.57715399 9.75318811,1.2467271 C9.42504894,0.918587938 8.89486283,0.916755353 8.56437318,1.247245 L5,4.81161818 Z" id="Delete"></path>
            </g>
        </g>
    </g>
</svg>