<?xml version="1.0" encoding="UTF-8"?>
<svg width="14px" height="14px" viewBox="0 0 14 14" version="1.1" xmlns="http://www.w3.org/2000/svg" xmlns:xlink="http://www.w3.org/1999/xlink">
    <!-- Generator: Sketch 46.2 (44496) - http://www.bohemiancoding.com/sketch -->
    <title>Group 3</title>
    <desc>Created with Sketch.</desc>
    <defs></defs>
    <g id="Page-1" stroke="none" stroke-width="1" fill="none" fill-rule="evenodd">
        <g id="1215" transform="translate(-717.000000, -468.000000)">
            <g id="Group-3" transform="translate(717.000000, 468.000000)">
                <path d="M0,6.99999995 C-3.72657051e-08,9.50085908 1.33419242,11.8117482 3.49999997,13.0621778 C5.66580752,14.3126074 8.33419248,14.3126074 10.5,13.0621778 C12.6658076,11.8117482 14,9.50085908 14,6.99999995 C14,3.13400673 10.8659932,0 7,0 C3.13400675,0 0,3.13400673 0,6.99999995 Z" id="Shape-Copy" fill="#3A3A3A" fill-rule="nonzero"></path>
                <path d="M6.948,10.832 C8.554,10.832 9.643,9.809 9.643,8.39 L9.643,8.368 C9.643,6.949 8.543,6.355 7.377,6.212 L9.522,4.012 L9.522,3 L4.429,3 L4.429,4.177 L7.762,4.177 L5.683,6.388 L5.903,7.235 L6.53,7.235 C7.608,7.235 8.301,7.664 8.301,8.423 L8.301,8.445 C8.301,9.149 7.729,9.611 6.97,9.611 C6.112,9.611 5.496,9.248 4.946,8.599 L4,9.479 C4.649,10.271 5.606,10.832 6.948,10.832 Z" id="3" fill="#FFFFFF"></path>
            </g>
        </g>
    </g>
</svg>