<?xml version="1.0" encoding="UTF-8"?>
<svg width="14px" height="14px" viewBox="0 0 14 14" version="1.1" xmlns="http://www.w3.org/2000/svg" xmlns:xlink="http://www.w3.org/1999/xlink">
    <!-- Generator: Sketch 46.2 (44496) - http://www.bohemiancoding.com/sketch -->
    <title>Group 4</title>
    <desc>Created with Sketch.</desc>
    <defs></defs>
    <g id="Page-1" stroke="none" stroke-width="1" fill="none" fill-rule="evenodd">
        <g id="1215" transform="translate(-717.000000, -524.000000)">
            <g id="Group-4" transform="translate(717.000000, 524.000000)">
                <path d="M0,6.99999995 C-3.72657051e-08,9.50085908 1.33419242,11.8117482 3.49999997,13.0621778 C5.66580752,14.3126074 8.33419248,14.3126074 10.5,13.0621778 C12.6658076,11.8117482 14,9.50085908 14,6.99999995 C14,3.13400673 10.8659932,0 7,0 C3.13400675,0 0,3.13400673 0,6.99999995 Z" id="Shape-Copy-2" fill="#3A3A3A" fill-rule="nonzero"></path>
                <path d="M7.636,10.755 L7.636,9.028 L3.753,9.028 L3.5,8.06 L7.779,3 L8.934,3 L8.934,7.917 L10.034,7.917 L10.034,9.028 L8.934,9.028 L8.934,10.755 L7.636,10.755 Z M5.106,7.917 L7.636,7.917 L7.636,4.87 L5.106,7.917 Z" id="4" fill="#FFFFFF"></path>
            </g>
        </g>
    </g>
</svg>