<?xml version="1.0" encoding="utf-8"?>
<!-- Generator: Adobe Illustrator 18.0.0, SVG Export Plug-In . SVG Version: 6.00 Build 0)  -->
<!DOCTYPE svg PUBLIC "-//W3C//DTD SVG 1.1//EN" "http://www.w3.org/Graphics/SVG/1.1/DTD/svg11.dtd">
<svg version="1.1" id="Layer_1" xmlns="http://www.w3.org/2000/svg" xmlns:xlink="http://www.w3.org/1999/xlink" x="0px" y="0px"
	 viewBox="0 0 1182.4 400" enable-background="new 0 0 1182.4 400" xml:space="preserve">
<path d="M216.1,100"/>
<g>
	<polygon fill="#969696" points="0,0 0,60.5 0,60.5 0,400 73,400 100,400 200,400 200,300 100,300 100,100 300,100 300,400 400,400 
		400,100 400,60.5 400,0 	"/>
	<g>
		<path fill="#969696" d="M543.3,56.4h17.1l46.3,106h-19.5L576.5,137h-49.8l-10.8,25.4H497L543.3,56.4z M569.7,120.6l-18.2-42.1
			l-18,42.1H569.7z"/>
		<path fill="#969696" d="M624.8,57.1h46.9c13.2,0,23.6,3.9,30.4,10.5c5.6,5.7,8.7,13.5,8.7,22.7v0.3c0,17.3-10.4,27.7-25,31.9
			l28.4,39.8h-21.9l-25.9-36.7h-23.1v36.7h-18.5V57.1z M670.3,109.3c13.2,0,21.6-6.9,21.6-17.6v-0.3c0-11.3-8.1-17.4-21.8-17.4
			h-26.9v35.3H670.3z"/>
		<path fill="#969696" d="M758.8,74.3h-33.4V57.1h85.4v17.1h-33.4v88.1h-18.6V74.3z"/>
		<path fill="#969696" d="M831.4,57.1h18.5v105.2h-18.5V57.1z"/>
		<path fill="#969696" d="M871,147l11.1-13.2c10.1,8.7,20.3,13.7,33.2,13.7c11.4,0,18.6-5.4,18.6-13.2V134c0-7.5-4.2-11.6-23.8-16.1
			c-22.4-5.4-35-12-35-31.4v-0.3c0-18,15-30.5,35.9-30.5c15.3,0,27.5,4.7,38.2,13.2l-9.9,14c-9.5-7.1-18.9-10.8-28.6-10.8
			c-10.8,0-17.1,5.6-17.1,12.5v0.3c0,8.1,4.8,11.7,25.1,16.5c22.2,5.4,33.7,13.4,33.7,30.8v0.3c0,19.7-15.5,31.4-37.6,31.4
			C898.8,163.9,883.6,158.3,871,147z"/>
		<path fill="#969696" d="M1009.3,56.4h17.1l46.3,106h-19.5l-10.7-25.4h-49.8l-10.8,25.4H963L1009.3,56.4z M1035.7,120.6l-18.2-42.1
			l-18,42.1H1035.7z"/>
		<path fill="#969696" d="M1090.7,57.1h17.1l56.4,72.8V57.1h18.2v105.2H1167l-58-74.9v74.9h-18.2V57.1z"/>
		<path fill="#969696" d="M610.1,327.4l11.1-13.2c10.1,8.7,20.3,13.7,33.2,13.7c11.4,0,18.6-5.4,18.6-13.2v-0.3
			c0-7.5-4.2-11.6-23.8-16.1c-22.4-5.4-35-12-35-31.4v-0.3c0-18,15-30.5,35.9-30.5c15.3,0,27.5,4.7,38.2,13.2l-9.9,14
			c-9.5-7.1-18.9-10.8-28.6-10.8c-10.8,0-17.1,5.6-17.1,12.5v0.3c0,8.1,4.8,11.7,25.1,16.5c22.2,5.4,33.7,13.4,33.7,30.8v0.3
			c0,19.7-15.5,31.4-37.6,31.4C637.9,344.2,622.7,338.7,610.1,327.4z"/>
		<path fill="#969696" d="M737,254.7h-33.4v-17.1H789v17.1h-33.4v88.1H737V254.7z"/>
		<path fill="#969696" d="M832.3,236.8h17.1l46.3,106h-19.5l-10.7-25.4h-49.8l-10.8,25.4H786L832.3,236.8z M858.7,301l-18.2-42.1
			l-18,42.1H858.7z"/>
		<path fill="#969696" d="M926.1,254.7h-33.4v-17.1h85.4v17.1h-33.4v88.1h-18.6V254.7z"/>
		<path fill="#969696" d="M997.6,237.5h78v16.5h-59.5v27.4h52.8v16.5h-52.8v28.3h60.3v16.5h-78.8V237.5z"/>
	</g>
</g>
</svg>
