<?xml version="1.0" encoding="utf-8"?>
<!-- Generator: Adobe Illustrator 19.2.1, SVG Export Plug-In . SVG Version: 6.00 Build 0)  -->
<!DOCTYPE svg PUBLIC "-//W3C//DTD SVG 1.1//EN" "http://www.w3.org/Graphics/SVG/1.1/DTD/svg11.dtd">
<svg version="1.1" id="图层_1" xmlns="http://www.w3.org/2000/svg" xmlns:xlink="http://www.w3.org/1999/xlink" x="0px" y="0px"
	 viewBox="0 0 82 14.7" enable-background="new 0 0 82 14.7" xml:space="preserve">
<path fill="#969696" d="M7.5,3.9"/>
<g>
	<g id="a">
		<polygon id="a_1_" fill="#969696" points="0,0.5 0,2.6 0,2.6 0,14.3 2.5,14.3 3.5,14.3 6.9,14.3 6.9,10.8 3.5,10.8 3.5,3.9 
			10.4,3.9 10.4,14.3 13.8,14.3 13.8,3.9 13.8,2.6 13.8,0.5 		"/>
	</g>
	<g id="zno">
		<path id="z" fill="#969696" d="M41,13.4v0.9H27.6L38.9,1.4H27.6V0.5H41L29.8,13.4H41z"/>
		<path id="n" fill="#969696" d="M47.9,7.4v6.9H47V7.4c0-2,0.7-3.8,2.2-5.2C50.6,0.7,52.3,0,54.4,0c2,0,3.8,0.7,5.2,2.2
			c1.4,1.4,2.2,3.2,2.2,5.2v6.9h-0.9V7.4c0-1.8-0.6-3.3-1.9-4.6c-1.3-1.3-2.8-1.9-4.6-1.9c-1.8,0-3.3,0.6-4.6,1.9
			C48.5,4.1,47.9,5.6,47.9,7.4z"/>
		<path id="o" fill="#969696" d="M79.8,2.2C81.3,3.6,82,5.3,82,7.4c0,2-0.7,3.8-2.2,5.2c-1.4,1.4-3.2,2.2-5.2,2.2
			c-2,0-3.8-0.7-5.2-2.2c-1.4-1.4-2.2-3.2-2.2-5.2c0-2,0.7-3.8,2.2-5.2C70.9,0.7,72.6,0,74.6,0C76.7,0,78.4,0.7,79.8,2.2z
			 M79.2,11.9c1.3-1.3,1.9-2.8,1.9-4.6c0-1.8-0.6-3.3-1.9-4.6c-1.3-1.3-2.8-1.9-4.6-1.9c-1.8,0-3.3,0.6-4.6,1.9
			c-1.3,1.3-1.9,2.8-1.9,4.6c0,1.8,0.6,3.3,1.9,4.6c1.3,1.3,2.8,1.9,4.6,1.9C76.4,13.8,77.9,13.2,79.2,11.9z"/>
	</g>
</g>
</svg>
