<?xml version="1.0" encoding="utf-8"?>
<!-- Generator: Adobe Illustrator 19.2.1, SVG Export Plug-In . SVG Version: 6.00 Build 0)  -->
<!DOCTYPE svg PUBLIC "-//W3C//DTD SVG 1.1//EN" "http://www.w3.org/Graphics/SVG/1.1/DTD/svg11.dtd">
<svg version="1.1" id="a__x2B__zno" xmlns="http://www.w3.org/2000/svg" xmlns:xlink="http://www.w3.org/1999/xlink" x="0px"
	 y="0px" viewBox="0 0 100.1 18" enable-background="new 0 0 100.1 18" xml:space="preserve">
<g>
	<path fill="#FFFFFF" d="M9.1,4.8"/>
	<g id="a">
		<polygon id="a_1_" fill="#FFFFFF" points="0,0.6 0,3.1 0,3.1 0,17.4 3.1,17.4 4.2,17.4 8.4,17.4 8.4,13.2 4.2,13.2 4.2,4.8 
			12.7,4.8 12.7,17.4 16.9,17.4 16.9,4.8 16.9,3.1 16.9,0.6 		"/>
	</g>
	<g id="zno">
		<path id="z" fill="#FFFFFF" d="M50.1,16.3v1.1H33.7L47.5,1.7H33.7V0.6h16.3L36.4,16.3H50.1z"/>
		<path id="n" fill="#FFFFFF" d="M58.5,9v8.4h-1.1V9c0-2.5,0.9-4.6,2.6-6.4C61.8,0.9,63.9,0,66.4,0c2.5,0,4.6,0.9,6.4,2.6
			c1.8,1.8,2.6,3.9,2.6,6.4v8.4h-1.1V9c0-2.2-0.8-4-2.3-5.6c-1.5-1.5-3.4-2.3-5.6-2.3c-2.2,0-4,0.8-5.6,2.3C59.3,5,58.5,6.8,58.5,9z
			"/>
		<path id="o" fill="#FFFFFF" d="M97.5,2.6c1.8,1.8,2.6,3.9,2.6,6.4c0,2.5-0.9,4.6-2.6,6.4c-1.8,1.8-3.9,2.6-6.4,2.6
			c-2.5,0-4.6-0.9-6.4-2.6c-1.8-1.8-2.6-3.9-2.6-6.4c0-2.5,0.9-4.6,2.6-6.4C86.5,0.9,88.6,0,91.1,0C93.6,0,95.7,0.9,97.5,2.6z
			 M96.7,14.6C98.2,13,99,11.2,99,9c0-2.2-0.8-4-2.3-5.6c-1.5-1.5-3.4-2.3-5.6-2.3c-2.2,0-4,0.8-5.6,2.3C84,5,83.2,6.8,83.2,9
			c0,2.2,0.8,4,2.3,5.6c1.5,1.5,3.4,2.3,5.6,2.3C93.3,16.9,95.1,16.1,96.7,14.6z"/>
	</g>
</g>
</svg>
