<?xml version="1.0" encoding="UTF-8"?>
<svg width="93px" height="20px" viewBox="0 0 93 20" version="1.1" xmlns="http://www.w3.org/2000/svg" xmlns:xlink="http://www.w3.org/1999/xlink">
    <!-- Generator: Sketch 46 (44423) - http://www.bohemiancoding.com/sketch -->
    <title>facebook-1</title>
    <desc>Created with Sketch.</desc>
    <defs></defs>
    <g id="Page-1" stroke="none" stroke-width="1" fill="none" fill-rule="evenodd">
        <g id="pages-选择账号" transform="translate(-803.000000, -476.000000)" fill-rule="nonzero" fill="#3B5998">
            <g id="facebook-1" transform="translate(803.000000, 475.000000)">
                <g id="Group_133" transform="translate(0.988000, 0.246000)">
                    <path d="M48.91,10.132 C48.2374436,10.1536536 47.579124,10.331328 46.987,10.651 L46.987,16.581 C47.4473506,16.6239197 47.9097271,16.6412797 48.372,16.633 C50.255,16.633 50.513,15.771 50.513,14.567 L50.513,11.735 C50.513,10.846 50.213,10.135 48.913,10.135 L48.91,10.132 Z M36.41,9.808 C35.104,9.808 34.81,10.525 34.81,11.413 L34.81,11.913 L38.01,11.913 L38.01,11.413 C38.01,10.526 37.71,9.808 36.404,9.808 L36.41,9.808 Z M12.181,15.981 C12.1358241,16.2748896 12.2329725,16.5727613 12.4427308,16.7835062 C12.6524891,16.9942512 12.9499016,17.0927963 13.244,17.049 C13.8851002,17.0285452 14.5112588,16.8502806 15.067,16.53 L15.067,15.123 L13.351,15.123 C12.538,15.123 12.181,15.272 12.181,15.981 Z M61.072,10.132 C59.763,10.132 59.31,10.846 59.31,11.732 L59.31,14.977 C59.31,15.868 59.763,16.585 61.072,16.585 C62.381,16.585 62.834,15.869 62.834,14.977 L62.834,11.735 C62.833,10.846 62.376,10.132 61.072,10.132 Z M5.772,19.619 L1.922,19.619 L1.922,10.309 L0,10.309 L0,7.1 L1.922,7.1 L1.922,5.172 C1.922,2.554 3.007,0.998 6.09,0.998 L8.657,0.998 L8.657,4.207 L7.057,4.207 C5.857,4.207 5.777,4.655 5.777,5.492 L5.777,7.098 L8.683,7.098 L8.343,10.306 L5.768,10.306 L5.768,19.617 L5.772,19.619 Z M18.918,19.643 L15.71,19.643 L15.571,18.832 C14.4622552,19.455024 13.2107871,19.7796063 11.939,19.774 C10.9414023,19.8343018 9.96754671,19.454058 9.27474487,18.7337366 C8.58194304,18.0134151 8.23990357,17.0254935 8.339,16.031 C8.339,13.468 9.799,12.554 12.411,12.554 L15.07,12.554 L15.07,12 C15.07,10.692 14.92,10.308 12.908,10.308 L9.616,10.308 L9.937,7.1 L13.532,7.1 C17.946,7.1 18.913,8.494 18.913,12.026 L18.913,19.642 L18.918,19.643 Z M29.818,10.543 C28.6582568,10.29021 27.4767199,10.1505556 26.29,10.126 C24.566,10.126 24.045,10.506 24.045,11.971 L24.045,14.741 C24.045,16.205 24.566,16.587 26.29,16.587 C27.4768358,16.5617165 28.6583988,16.4210543 29.818,16.167 L29.818,19.296 C28.5584258,19.6073028 27.2673536,19.7733841 25.97,19.791 C21.84,19.791 20.199,17.619 20.199,14.482 L20.199,12.235 C20.199,9.095 21.84,6.919 25.97,6.919 C27.2675905,6.9376367 28.5587357,7.10540504 29.818,7.419 L29.818,10.547 L29.818,10.543 Z M41.853,14.482 L34.799,14.482 L34.799,14.741 C34.799,16.205 35.32,16.587 37.044,16.587 C38.5499751,16.5980171 40.05323,16.4573068 41.531,16.167 L41.531,19.296 C39.9548607,19.6523705 38.3416905,19.8185556 36.726,19.791 C32.596,19.791 30.954,17.619 30.954,14.482 L30.954,11.912 C30.954,9.167 32.172,6.919 36.405,6.919 C40.638,6.919 41.854,9.141 41.854,11.912 L41.853,14.482 Z M54.353,14.541 C54.353,17.573 53.486,19.785 48.236,19.785 C46.5249122,19.7725935 44.8182703,19.6089567 43.136,19.296 L43.136,1.964 L46.981,1.322 L46.981,7.385 C47.9096516,7.06866633 48.8849808,6.91112615 49.866,6.919 C53.712,6.919 54.352,8.643 54.352,11.414 L54.352,14.541 L54.353,14.541 Z M66.679,14.607 C66.679,17.223 65.599,19.76 61.079,19.76 C56.559,19.76 55.458,17.223 55.458,14.607 L55.458,12.082 C55.458,9.465 56.558,6.927 61.079,6.927 C65.6,6.927 66.679,9.464 66.679,12.082 L66.679,14.607 Z M78.997,14.607 C78.997,17.223 77.916,19.76 73.397,19.76 C68.878,19.76 67.776,17.223 67.776,14.607 L67.776,12.082 C67.776,9.465 68.876,6.927 73.397,6.927 C77.918,6.927 78.997,9.464 78.997,12.082 L78.997,14.607 Z M91.638,19.618 L87.47,19.618 L83.945,13.734 L83.945,19.618 L80.099,19.618 L80.099,1.963 L83.945,1.321 L83.945,12.688 L87.47,7.101 L91.638,7.101 L87.79,13.201 L91.638,19.618 Z M73.388,10.132 C72.082,10.132 71.628,10.846 71.628,11.732 L71.628,14.977 C71.628,15.868 72.081,16.585 73.388,16.585 C74.695,16.585 75.154,15.869 75.154,14.977 L75.154,11.735 C75.155,10.846 74.693,10.132 73.388,10.132 Z" id="Path_53"></path>
                </g>
            </g>
        </g>
    </g>
</svg>