<?xml version="1.0" encoding="UTF-8"?>
<svg width="20px" height="20px" viewBox="0 0 20 20" version="1.1" xmlns="http://www.w3.org/2000/svg" xmlns:xlink="http://www.w3.org/1999/xlink">
    <!-- Generator: Sketch 46 (44423) - http://www.bohemiancoding.com/sketch -->
    <title>Group 105</title>
    <desc>Created with Sketch.</desc>
    <defs></defs>
    <g id="Page-1" stroke="none" stroke-width="1" fill="none" fill-rule="evenodd">
        <g id="delete-page" transform="translate(-633.000000, -121.000000)">
            <g id="Group-105" transform="translate(633.000000, 121.000000)">
                <circle id="Ellipse_5" fill="#3A3A3A" fill-rule="nonzero" opacity="0.8" cx="10" cy="10" r="10"></circle>
                <g id="Group_5" transform="translate(5.833333, 5.833333)" fill="#FFFFFF">
                    <g id="Delete">
                        <g id="Group-5">
                            <path d="M4.16666667,3.17666667 L1.19666667,0.205833333 C0.923055597,-0.0677777365 0.479444403,-0.0677777365 0.205833333,0.205833333 C-0.0677777365,0.479444403 -0.0677777365,0.923055597 0.205833333,1.19666667 L3.17666667,4.16666667 L0.205833333,7.13666667 C0.0289868575,7.31351313 -0.0400795565,7.57127248 0.0246507419,7.81284925 C0.0893810403,8.05442602 0.278073978,8.24311896 0.51965075,8.30784926 C0.761227522,8.37257956 1.01898687,8.30351314 1.19583333,8.12666667 L4.16666667,5.15666667 L7.13666667,8.12666667 C7.31351313,8.30366201 7.57135189,8.37286597 7.81305758,8.30821011 C8.05476327,8.24355424 8.24361505,8.0548613 8.30847426,7.8132101 C8.37333348,7.57155889 8.30434648,7.31366199 8.1275,7.13666667 L5.15666667,4.16666667 L8.1275,1.19666667 C8.40111107,0.923055597 8.40111107,0.479444403 8.1275,0.205833333 C7.85388893,-0.0677777365 7.41027774,-0.0677777365 7.13666667,0.205833333 L4.16666667,3.17666667 Z" id="Delete-2"></path>
                        </g>
                    </g>
                </g>
            </g>
        </g>
    </g>
</svg>