<?xml version="1.0" encoding="UTF-8"?>
<svg width="54px" height="54px" viewBox="0 0 54 54" version="1.1" xmlns="http://www.w3.org/2000/svg" xmlns:xlink="http://www.w3.org/1999/xlink">
    <!-- Generator: Sketch 46 (44423) - http://www.bohemiancoding.com/sketch -->
    <title>屏幕快照 2017-08-07 上午10.26.16</title>
    <desc>Created with Sketch.</desc>
    <defs>
        <radialGradient cx="6.47222222%" cy="97.8092593%" fx="6.47222222%" fy="97.8092593%" r="126.962963%" id="radialGradient-1">
            <stop stop-color="#FA8F21" offset="9%"></stop>
            <stop stop-color="#D82D7E" offset="78%"></stop>
        </radialGradient>
        <linearGradient x1="50%" y1="47.021651%" x2="50%" y2="0%" id="linearGradient-2">
            <stop stop-color="#8C3AAA" stop-opacity="0" offset="0%"></stop>
            <stop stop-color="#8C3AAA" offset="100%"></stop>
        </linearGradient>
    </defs>
    <g id="Page-1" stroke="none" stroke-width="1" fill="none" fill-rule="evenodd">
        <g id="pages-未登录" transform="translate(-1043.000000, -363.000000)" fill-rule="nonzero">
            <g id="屏幕快照-2017-08-07-上午10.26.16" transform="translate(1043.000000, 363.000000)">
                <path d="M13.693,53.809 C11.6043841,53.7854793 9.53544252,53.4022041 7.577,52.676 C6.14649417,52.147208 4.85227462,51.3053503 3.789,50.212 C2.69383877,49.150997 1.85167229,47.8569863 1.325,46.426 C0.599136993,44.4674972 0.216200457,42.3985574 0.193,40.31 C0.032,36.839 0,35.8 0,27 C0,18.2 0.035,17.165 0.191,13.691 C0.216789433,11.6032566 0.599997082,9.53535581 1.324,7.577 C1.85383881,6.14672824 2.69554479,4.85240033 3.788,3.788 C4.84957543,2.69305914 6.14385612,1.85093935 7.575,1.324 C9.53344252,0.597795863 11.6023841,0.21452071 13.691,0.191 C17.164,0.032 18.208,0 27,0 C35.792,0 36.835,0.035 40.309,0.191 C42.3974164,0.216561378 44.4660128,0.599772584 46.425,1.324 C47.8561175,1.85157326 49.1505915,2.69359648 50.213,3.788 C51.3072186,4.85056061 52.1492127,6.14498986 52.677,7.576 C53.4032041,9.53444252 53.7864793,11.6033841 53.81,13.692 C53.968,17.166 54,18.206 54,27 C54,35.794 53.968,36.835 53.809,40.309 C53.7838133,42.3974531 53.4005904,44.4661127 52.676,46.425 C51.567629,49.2968514 49.2972059,51.5665481 46.425,52.674 C44.4665575,53.4002041 42.3976159,53.7834793 40.309,53.807 C36.837,53.968 35.794,54 27,54 C18.206,54 17.165,53.97 13.694,53.809" id="Path_47" fill="url(#radialGradient-1)"></path>
                <path d="M13.693,53.809 C11.6043841,53.7854793 9.53544252,53.4022041 7.577,52.676 C6.14649417,52.147208 4.85227462,51.3053503 3.789,50.212 C2.69383877,49.150997 1.85167229,47.8569863 1.325,46.426 C0.599136993,44.4674972 0.216200457,42.3985574 0.193,40.31 C0.032,36.839 0,35.8 0,27 C0,18.2 0.035,17.165 0.191,13.691 C0.216789433,11.6032566 0.599997082,9.53535581 1.324,7.577 C1.85383881,6.14672824 2.69554479,4.85240033 3.788,3.788 C4.84957543,2.69305914 6.14385612,1.85093935 7.575,1.324 C9.53344252,0.597795863 11.6023841,0.21452071 13.691,0.191 C17.164,0.032 18.208,0 27,0 C35.792,0 36.835,0.035 40.309,0.191 C42.3974164,0.216561378 44.4660128,0.599772584 46.425,1.324 C47.8561175,1.85157326 49.1505915,2.69359648 50.213,3.788 C51.3072186,4.85056061 52.1492127,6.14498986 52.677,7.576 C53.4032041,9.53444252 53.7864793,11.6033841 53.81,13.692 C53.968,17.166 54,18.206 54,27 C54,35.794 53.968,36.835 53.809,40.309 C53.7838133,42.3974531 53.4005904,44.4661127 52.676,46.425 C51.567629,49.2968514 49.2972059,51.5665481 46.425,52.674 C44.4665575,53.4002041 42.3976159,53.7834793 40.309,53.807 C36.837,53.968 35.794,54 27,54 C18.206,54 17.165,53.97 13.694,53.809" id="Path_48" fill="url(#linearGradient-2)"></path>
                <path d="M20.4348769,27.1250712 C20.4354298,23.4285206 23.4325243,20.4323224 27.1290748,20.4328752 C30.8256254,20.433428 33.8218236,23.4305225 33.8212708,27.1270731 C33.8207181,30.8236237 30.8236236,33.8198219 27.127073,33.8192691 C25.3519268,33.8190037 23.6495914,33.113575 22.3945612,31.8581694 C21.139531,30.6027637 20.4346115,28.9002174 20.4348769,27.1250712 M16.8165268,27.1250712 C16.8165268,32.8188758 21.4322675,37.4346165 27.1260721,37.4346165 C32.8198768,37.4346165 37.4356174,32.8188758 37.4356174,27.1250712 C37.4356174,21.4312665 32.8198768,16.8155259 27.1260721,16.8155259 C24.3918107,16.8155259 21.7695375,17.901707 19.8361227,19.8351218 C17.9027079,21.7685366 16.8165268,24.3908098 16.8165268,27.1250712 M35.4337639,16.4051459 C35.4332113,17.7357271 36.5114123,18.8148243 37.8419935,18.8153771 C39.1725747,18.8159298 40.251672,17.7377288 40.2522248,16.4071477 C40.2527776,15.0765665 39.1745767,13.9974691 37.8439955,13.9969162 L37.8439955,13.9969162 C36.514262,13.9980192 35.4364204,15.075413 35.4347649,16.4051459 M19.0125601,43.4692037 C17.7393241,43.4545998 16.4780989,43.2209769 15.284108,42.7785643 C13.5328251,42.1036619 12.1484014,40.7199653 11.472579,38.9690371 C11.0299735,37.7750994 10.7963443,36.5138405 10.7819396,35.2405851 C10.6818469,33.1236251 10.6648312,32.4880366 10.6648312,27.1260721 C10.6648312,21.7641076 10.6858506,21.1295201 10.7819396,19.0115591 C10.7979859,17.7384644 11.0315637,16.4774828 11.472579,15.2831071 C12.1476091,13.5312101 13.532211,12.1466082 15.284108,11.4715781 C16.4780457,11.0289726 17.7393046,10.7953434 19.0125601,10.7809387 C21.1295201,10.680846 21.7651086,10.6638302 27.1200666,10.6638302 C32.4750245,10.6638302 33.1166186,10.6848497 35.2345795,10.7809387 C36.5076705,10.7970242 37.7686454,11.0306008 38.9630316,11.4715781 C40.7149286,12.1466082 42.0995305,13.5312101 42.7745606,15.2831071 C43.2171661,16.4770448 43.4507953,17.7383037 43.4652,19.0115591 C43.5652927,21.1295201 43.5823084,21.7641076 43.5823084,27.1260721 C43.5823084,32.4880366 43.5632908,33.1226241 43.4652,35.2405851 C43.4497639,36.5137397 43.216167,37.7748241 42.7745606,38.9690371 C42.0987382,40.7199653 40.7143145,42.1036619 38.9630316,42.7785643 C37.7690939,43.2211698 36.507835,43.454799 35.2345795,43.4692037 C33.1176195,43.5692964 32.482031,43.5863121 27.1200666,43.5863121 C21.7581021,43.5863121 21.1235145,43.5672945 19.0125601,43.4692037 M18.8464062,7.16559132 C17.1804886,7.19848662 15.5322405,7.51392137 13.9718931,8.09845503 C11.2741286,9.1414966 9.1414966,11.2741286 8.09845503,13.9718931 C7.51412602,15.5319508 7.19869615,17.1798349 7.16559132,18.8454053 C7.06549865,20.9863876 7.04347826,21.6710214 7.04347826,27.1240703 C7.04347826,32.5771191 7.06649958,33.2617529 7.16559132,35.4027352 C7.19865753,37.0683096 7.51408863,38.7162002 8.09845503,40.2762474 C9.1414966,42.9740119 11.2741286,45.1066439 13.9718931,46.1496855 C15.5323192,46.7339387 17.180519,47.0493642 18.8464062,47.0825492 C20.9883894,47.1826419 21.6720224,47.2036613 27.1250712,47.2036613 C32.57812,47.2036613 33.2627539,47.18064 35.4037361,47.0825492 C37.0693085,47.0494637 38.7171959,46.7340332 40.2772484,46.1496855 C42.9750128,45.1066439 45.1076448,42.9740119 46.1506864,40.2762474 C46.7358216,38.7164162 47.0512781,37.0683928 47.0835501,35.4027352 C47.1836428,33.2597511 47.2036613,32.5771191 47.2036613,27.1240703 C47.2036613,21.6710214 47.18064,20.9863876 47.0835501,18.8454053 C47.0505612,17.1798228 46.7351276,15.5319193 46.1506864,13.9718931 C45.1077753,11.2747406 42.976047,9.1422855 40.2792502,8.09845503 C38.7193293,7.51363913 37.0713611,7.19819318 35.405738,7.16559132 C33.2647557,7.06549865 32.5801218,7.04347826 27.128074,7.04347826 C21.6760261,7.04347826 20.9903913,7.06649958 18.8484081,7.16559132" id="Path_49" fill="#FFFFFF"></path>
            </g>
        </g>
    </g>
</svg>