<?xml version="1.0" encoding="UTF-8"?>
<svg width="14px" height="14px" viewBox="0 0 14 14" version="1.1" xmlns="http://www.w3.org/2000/svg" xmlns:xlink="http://www.w3.org/1999/xlink">
    <!-- Generator: Sketch 43 (38999) - http://www.bohemiancoding.com/sketch -->
    <title>EditImage</title>
    <desc>Created with Sketch.</desc>
    <defs></defs>
    <g id="Page-1" stroke="none" stroke-width="1" fill="none" fill-rule="evenodd">
        <g id="LBB-Insidepage-Landscape" transform="translate(-611.000000, -630.000000)" fill="#FFFFFF">
            <g id="Edit" transform="translate(611.000000, 630.000000)">
                <g id="EditImage">
                    <path d="M3.708,0.178 C3.70745358,0.0799205392 3.62807946,0.000546416377 3.53,-1.98729921e-17 L2.008,-1.98729921e-17 C1.90992054,0.000546416377 1.83054642,0.0799205392 1.83,0.178 L1.83,11.478 L9.195,11.478 L9.195,9.605 L3.708,9.605 L3.708,0.178 Z M4.086,3.695 L9.586,3.695 L9.586,13.123 C9.58654642,13.2210795 9.66592054,13.3004536 9.764,13.301 L11.287,13.301 C11.3850795,13.3004536 11.4644536,13.2210795 11.465,13.123 L11.465,1.817 L4.086,1.817 L4.086,3.695 Z M3.08148791e-33,1.994 L3.08148791e-33,3.517 C0.000546416377,3.61507946 0.0799205392,3.69445358 0.178,3.695 L1.435,3.695 L1.435,1.817 L0.178,1.817 C0.0803066889,1.8175397 0.00109007128,1.89631128 -1.98729921e-17,1.994 L3.08148791e-33,1.994 Z M13.122,9.605 L11.865,9.605 L11.865,11.481 L13.122,11.481 C13.1696487,11.4807368 13.215226,11.4614864 13.2486366,11.4275128 C13.2820471,11.3935391 13.3005331,11.3476465 13.3,11.3 L13.3,9.781 C13.2997355,9.73405645 13.2808333,9.68914072 13.2474516,9.65613416 C13.21407,9.6231276 13.1689435,9.60473403 13.122,9.605 L13.122,9.605 Z" id="path"></path>
                </g>
            </g>
        </g>
    </g>
</svg>