<?xml version="1.0" encoding="UTF-8"?>
<svg width="35px" height="43px" viewBox="0 0 35 43" version="1.1" xmlns="http://www.w3.org/2000/svg" xmlns:xlink="http://www.w3.org/1999/xlink">
    <!-- Generator: Sketch 46 (44423) - http://www.bohemiancoding.com/sketch -->
    <title>刷新</title>
    <desc>Created with Sketch.</desc>
    <defs></defs>
    <g id="Page-1" stroke="none" stroke-width="1" fill="none" fill-rule="evenodd">
        <g id="preview-failed" transform="translate(-943.000000, -423.000000)" fill-rule="nonzero" fill="#7B7B7B">
            <g id="刷新" transform="translate(960.500000, 444.201923) scale(-1, 1) rotate(90.000000) translate(-960.500000, -444.201923) translate(939.298077, 426.701923)">
                <path d="M42.1747145,16.0790609 L37.2033722,21.1492611 C36.7945881,21.550426 36.1314913,21.550426 35.7222362,21.1492611 L30.7833895,16.0790609 C30.1961155,15.3833344 30.5884164,15.1359961 30.9976715,14.7343637 L35.5201989,14.7343637 C34.2721829,7.89445591 28.3405747,2.70830121 21.1967426,2.70830121 C15.6739185,2.70830121 10.8697633,5.80680889 8.39727873,10.3729815 L5.93044555,9.37801784 C8.80606284,3.82903803 14.5582393,0.0362065322 21.1967426,0.0362065322 C29.8066403,0.0362065322 36.9198607,6.41323178 38.1975465,14.7343637 L41.9609035,14.7343637 C42.3696876,15.1359961 42.5839696,15.6774284 42.1747145,16.0790609 Z M6.72729201,15.0008718 L11.6991053,20.0710721 C12.1078894,20.472237 11.8940783,21.0146044 11.4848233,21.4157693 L7.17987442,21.4157693 C8.90967172,27.5842636 14.5262148,32.1055506 21.1967426,32.1055506 C26.2731067,32.1055506 30.7391202,29.4853549 33.3486511,25.5157865 L35.8409155,26.5210364 C32.8056464,31.4696716 27.3911406,34.7781129 21.1967426,34.7781129 C13.0554396,34.7781129 6.26340681,29.0725011 4.46767659,21.4157693 L0.521591223,21.4157693 C0.112807108,21.0146044 -0.279493776,20.7667986 0.307780177,20.0710721 L5.24615602,15.0008718 C5.65494013,14.599707 6.31850789,14.599707 6.72729201,15.0008718 Z" id="Shape"></path>
            </g>
        </g>
    </g>
</svg>