<svg xmlns="http://www.w3.org/2000/svg" viewBox="-3494.449 -1216 10 10">
  <defs>
    <style>
      .cls-1 {
        fill: #fff;
      }
    </style>
  </defs>
  <g id="编辑" transform="translate(-3541.814 -1254.025)">
    <g id="group" transform="translate(47.365 38.025)">
      <path id="path" class="cls-1" d="M56.94,48.025H47.983a.431.431,0,0,1-.248-.084c-.01,0-.02,0-.03,0a.352.352,0,0,1-.219-.075.31.31,0,0,1-.119-.278l.3-2.748a.307.307,0,0,1,.078-.172l4.284-4.832a.355.355,0,0,1,.48-.038l2.517,2.007a.306.306,0,0,1,.04.449l-4.275,4.821a.34.34,0,0,1-.168.1l-.819.219H56.92c.235,0,.444-.012.444.208a.427.427,0,0,1-.425.417ZM55.8,41.447l-3.047-2.408.489-.546a1.428,1.428,0,0,1,1.065-.469,1.4,1.4,0,0,1,.862.294l.972.768a1.235,1.235,0,0,1,.147,1.814l-.489.546Z" transform="translate(-47.365 -38.025)"/>
    </g>
  </g>
</svg>
