<?xml version="1.0" encoding="UTF-8"?>
<svg width="253px" height="104px" viewBox="0 0 253 104" version="1.1" xmlns="http://www.w3.org/2000/svg" xmlns:xlink="http://www.w3.org/1999/xlink">
    <!-- Generator: Sketch 43.1 (39012) - http://www.bohemiancoding.com/sketch -->
    <title>logo</title>
    <desc>Created with Sketch.</desc>
    <defs></defs>
    <g id="Page-1" stroke="none" stroke-width="1" fill="none" fill-rule="evenodd">
        <g id="logo" fill="#000000">
            <g id="a+zno_logo" transform="translate(7.000000, 0.000000)" fill-rule="nonzero">
                <g id="a" transform="translate(0.000000, 1.406542)">
                    <polygon id="a_1_" points="0.0905469033 0 0.0905469033 6.07827103 0.0905469033 6.07827103 0.0905469033 40.1869159 7.43490684 40.1869159 10.1513139 40.1869159 20.212081 40.1869159 20.212081 30.1401869 10.1513139 30.1401869 10.1513139 10.046729 30.272848 10.046729 30.272848 40.1869159 40.333615 40.1869159 40.333615 10.046729 40.333615 6.07827103 40.333615 0"></polygon>
                </g>
                <g id="zno" transform="translate(80.586744, 0.000000)">
                    <polygon id="z" points="38.9251077 38.9009346 38.9251077 41.5834112 0 41.5834112 32.7578575 4.0588785 0 4.0588785 0 1.37640187 38.9251077 1.37640187 6.33828323 38.9009346"></polygon>
                    <path d="M59.0567025,21.4799065 L59.0567025,41.5834112 L56.3704777,41.5834112 L56.3704777,21.4799065 C56.3704777,15.5623832 58.4631172,10.5088785 62.6584571,6.31939252 C66.8537969,2.12990654 71.9143628,0.0401869159 77.8401545,0.0401869159 C83.7659463,0.0401869159 88.8265121,2.12990654 93.021852,6.31939252 C97.2171918,10.5088785 99.3098314,15.5623832 99.3098314,21.4799065 L99.3098314,41.5834112 L96.6236066,41.5834112 L96.6236066,21.4799065 C96.6236066,16.2957944 94.792547,11.8752336 91.120367,8.20817757 C87.448187,4.5411215 83.0214496,2.71261682 77.8300938,2.71261682 C72.638738,2.71261682 68.2120005,4.5411215 64.5398205,8.20817757 C60.8877621,11.8752336 59.0567025,16.2957944 59.0567025,21.4799065 Z" id="n"></path>
                    <path d="M152.078554,6.31939252 C156.273894,10.5088785 158.366534,15.5623832 158.366534,21.4799065 C158.366534,27.3974299 156.273894,32.4509346 152.078554,36.6404206 C147.883215,40.8299065 142.822649,42.9196262 136.896857,42.9196262 C130.971065,42.9196262 125.910499,40.8299065 121.71516,36.6404206 C117.51982,32.4509346 115.42718,27.3974299 115.42718,21.4799065 C115.42718,15.5623832 117.51982,10.5088785 121.71516,6.31939252 C125.910499,2.12990654 130.971065,0.0401869159 136.896857,0.0401869159 C142.822649,0.0401869159 147.883215,2.12990654 152.078554,6.31939252 Z M150.177069,34.7516355 C153.849249,31.0845794 155.680309,26.6640187 155.680309,21.4799065 C155.680309,16.2957944 153.849249,11.8752336 150.177069,8.20817757 C146.50489,4.5411215 142.078152,2.71261682 136.886796,2.71261682 C131.69544,2.71261682 127.268703,4.5411215 123.596523,8.20817757 C119.924343,11.8752336 118.093283,16.2957944 118.093283,21.4799065 C118.093283,26.6640187 119.924343,31.0845794 123.596523,34.7516355 C127.268703,38.4186916 131.69544,40.2471963 136.886796,40.2471963 C142.078152,40.2471963 146.51495,38.4086449 150.177069,34.7516355 Z" id="o"></path>
                </g>
            </g>
            <path d="M3.4765625,100.443359 L15.2636719,100.443359 L15.2636719,103 L0.206054688,103 L0.206054688,78.828125 L3.4765625,78.828125 L3.4765625,100.443359 Z M21.9873047,103 L18.7167969,103 L18.7167969,85.0371094 L21.9873047,85.0371094 L21.9873047,103 Z M21.9873047,80.4384766 L18.7167969,80.4384766 L18.7167969,77.1015625 L21.9873047,77.1015625 L21.9873047,80.4384766 Z M31.5664063,80.7041016 L31.5664063,85.0371094 L34.9697266,85.0371094 L34.9697266,87.4609375 L31.5664063,87.4609375 L31.5664063,98.3681641 C31.5664063,99.2093141 31.7407209,99.8014306 32.0893555,100.144531 C32.43799,100.487632 32.9000622,100.65918 33.4755859,100.65918 C33.6637379,100.65918 33.8740223,100.634278 34.1064453,100.584473 C34.3388683,100.534668 34.5325513,100.482097 34.6875,100.426758 L35.1357422,102.667969 C34.8922514,102.867188 34.5325545,103.030436 34.0566406,103.157715 C33.5807268,103.284994 33.1103539,103.348633 32.6455078,103.348633 C31.3173762,103.348633 30.2604206,102.947432 29.4746094,102.14502 C28.6887982,101.342607 28.2958984,100.083667 28.2958984,98.3681641 L28.2958984,87.4609375 L25.4404297,87.4609375 L25.4404297,85.0371094 L28.2958984,85.0371094 L28.2958984,80.7041016 L31.5664063,80.7041016 Z M43.0214844,80.7041016 L43.0214844,85.0371094 L46.4248047,85.0371094 L46.4248047,87.4609375 L43.0214844,87.4609375 L43.0214844,98.3681641 C43.0214844,99.2093141 43.195799,99.8014306 43.5444336,100.144531 C43.8930681,100.487632 44.3551404,100.65918 44.9306641,100.65918 C45.118816,100.65918 45.3291004,100.634278 45.5615234,100.584473 C45.7939465,100.534668 45.9876294,100.482097 46.1425781,100.426758 L46.5908203,102.667969 C46.3473295,102.867188 45.9876326,103.030436 45.5117188,103.157715 C45.0358049,103.284994 44.565432,103.348633 44.1005859,103.348633 C42.7724543,103.348633 41.7154987,102.947432 40.9296875,102.14502 C40.1438763,101.342607 39.7509766,100.083667 39.7509766,98.3681641 L39.7509766,87.4609375 L36.8955078,87.4609375 L36.8955078,85.0371094 L39.7509766,85.0371094 L39.7509766,80.7041016 L43.0214844,80.7041016 Z M53.4638672,103 L50.1933594,103 L50.1933594,77.1015625 L53.4638672,77.1015625 L53.4638672,103 Z M65.9316406,103.348633 C63.3528517,103.348633 61.3413158,102.524097 59.8969727,100.875 C58.4526295,99.2259032 57.7304688,97.0566541 57.7304688,94.3671875 L57.7304688,93.6367188 C57.7304688,91.0579298 58.4747647,88.9246504 59.9633789,87.2368164 C61.4519931,85.5489824 63.269846,84.7050781 65.4169922,84.7050781 C67.8186969,84.7050781 69.6199484,85.452141 70.8208008,86.9462891 C72.0216531,88.4404372 72.6220703,90.4270709 72.6220703,92.90625 L72.6220703,94.6328125 L61.1337891,94.6328125 L61.0839844,94.7158203 C61.0839844,96.5198658 61.4824179,97.9835556 62.2792969,99.1069336 C63.0761759,100.230312 64.2936116,100.791992 65.9316406,100.791992 C67.038417,100.791992 68.0095987,100.634279 68.8452148,100.318848 C69.680831,100.003416 70.3974579,99.5690132 70.9951172,99.015625 L72.2734375,101.140625 C71.6315072,101.76042 70.784836,102.283364 69.7333984,102.709473 C68.6819609,103.135582 67.414721,103.348633 65.9316406,103.348633 Z M65.4169922,87.2783203 C64.2770125,87.2783203 63.3334998,87.7182573 62.5864258,88.5981445 C61.8393517,89.4780317 61.3828133,90.6041598 61.2167969,91.9765625 L61.25,92.0595703 L69.3515625,92.0595703 L69.3515625,91.7939453 C69.3515625,90.4879492 69.0306022,89.4088584 68.3886719,88.5566406 C67.7467416,87.7044228 66.7561916,87.2783203 65.4169922,87.2783203 Z M85.1894531,103 L85.1894531,78.828125 L93.0751953,78.828125 C95.5986454,78.828125 97.5742116,79.3732042 99.0019531,80.4633789 C100.429695,81.5535536 101.143555,83.1887912 101.143555,85.3691406 C101.143555,86.4095104 100.822594,87.3419555 100.180664,88.1665039 C99.5387338,88.9910523 98.6865288,89.6191385 97.6240234,90.0507812 C99.2067136,90.2721365 100.460119,90.9583276 101.384277,92.109375 C102.308436,93.2604224 102.770508,94.6162031 102.770508,96.1767578 C102.770508,98.3903105 102.051114,100.080886 100.612305,101.248535 C99.1734954,102.416184 97.2255982,103 94.7685547,103 L85.1894531,103 Z M88.4599609,91.6611328 L88.4599609,100.443359 L94.7685547,100.443359 C96.2627028,100.443359 97.4220336,100.075362 98.246582,99.3393555 C99.0711304,98.6033492 99.4833984,97.5602281 99.4833984,96.2099609 C99.4833984,94.8707615 99.0628297,93.7916708 98.2216797,92.9726562 C97.3805296,92.1536417 96.2461009,91.7164716 94.8183594,91.6611328 L88.4599609,91.6611328 Z M88.4599609,89.1044922 L93.7558594,89.1044922 C94.9733134,89.1044922 95.9638634,88.7696974 96.7275391,88.1000977 C97.4912148,87.430498 97.8730469,86.4980529 97.8730469,85.3027344 C97.8730469,83.9967383 97.4607789,83.0200228 96.6362305,82.3725586 C95.8116821,81.7250944 94.6246822,81.4013672 93.0751953,81.4013672 L88.4599609,81.4013672 L88.4599609,89.1044922 Z M109.892578,103 L106.62207,103 L106.62207,77.1015625 L109.892578,77.1015625 L109.892578,103 Z M125.962891,103 C125.852213,102.45768 125.766439,101.979006 125.705566,101.563965 C125.644694,101.148924 125.608724,100.731122 125.597656,100.310547 C124.988929,101.173832 124.194829,101.895993 123.215332,102.477051 C122.235835,103.058108 121.181646,103.348633 120.052734,103.348633 C118.182282,103.348633 116.757329,102.869959 115.777832,101.912598 C114.798335,100.955236 114.308594,99.6354251 114.308594,97.953125 C114.308594,96.2376216 115.003086,94.8956754 116.39209,93.9272461 C117.781094,92.9588168 119.665353,92.4746094 122.044922,92.4746094 L125.597656,92.4746094 L125.597656,90.6982422 C125.597656,89.6468046 125.276696,88.8139679 124.634766,88.199707 C123.992835,87.5854461 123.085292,87.2783203 121.912109,87.2783203 C120.849604,87.2783203 119.991865,87.5439427 119.338867,88.0751953 C118.685869,88.606448 118.359375,89.2428348 118.359375,89.984375 L115.254883,90.0175781 L115.22168,89.9179688 C115.144205,88.6119726 115.75569,87.4166721 117.056152,86.3320312 C118.356615,85.2473904 120.036123,84.7050781 122.094727,84.7050781 C124.131195,84.7050781 125.7692,85.2224883 127.008789,86.2573242 C128.248379,87.2921601 128.868164,88.7835189 128.868164,90.7314453 L128.868164,99.3808594 C128.868164,100.02279 128.901367,100.642575 128.967773,101.240234 C129.03418,101.837894 129.155924,102.424476 129.333008,103 L125.962891,103 Z M120.53418,100.609375 C121.71843,100.609375 122.786454,100.305016 123.738281,99.6962891 C124.690109,99.0875621 125.309894,98.3903034 125.597656,97.6044922 L125.597656,94.6826172 L121.928711,94.6826172 C120.611647,94.6826172 119.557458,95.0146451 118.766113,95.6787109 C117.974768,96.3427768 117.579102,97.1230424 117.579102,98.0195312 C117.579102,98.8164102 117.828123,99.4472633 118.326172,99.9121094 C118.824221,100.376955 119.560216,100.609375 120.53418,100.609375 Z M140.754883,100.791992 C141.762049,100.791992 142.641923,100.457197 143.394531,99.7875977 C144.147139,99.117998 144.523438,98.2962288 144.523438,97.3222656 L147.478516,97.3222656 L147.52832,97.421875 C147.572591,98.9713619 146.908536,100.346511 145.536133,101.547363 C144.16373,102.748216 142.569996,103.348633 140.754883,103.348633 C138.231433,103.348633 136.283536,102.490894 134.911133,100.775391 C133.53873,99.0598873 132.852539,96.9238409 132.852539,94.3671875 L132.852539,93.6699219 C132.852539,91.135404 133.541497,89.0076583 134.919434,87.2866211 C136.29737,85.5655838 138.2425,84.7050781 140.754883,84.7050781 C142.758148,84.7050781 144.398919,85.3248636 145.677246,86.5644531 C146.955573,87.8040427 147.572591,89.3258373 147.52832,91.1298828 L147.495117,91.2294922 L144.523438,91.2294922 C144.523438,90.1337836 144.166507,89.2013385 143.452637,88.4321289 C142.738766,87.6629193 141.839524,87.2783203 140.754883,87.2783203 C139.150057,87.2783203 137.979659,87.9008727 137.243652,89.1459961 C136.507646,90.3911195 136.139648,91.8990797 136.139648,93.6699219 L136.139648,94.3671875 C136.139648,96.171233 136.502112,97.6930277 137.227051,98.9326172 C137.951989,100.172207 139.127922,100.791992 140.754883,100.791992 Z M156.376953,94.7158203 L154.700195,94.7158203 L154.700195,103 L151.429688,103 L151.429688,77.1015625 L154.700195,77.1015625 L154.700195,92.109375 L156.34375,92.109375 L161.739258,85.0371094 L165.657227,85.0371094 L159.132813,93.3212891 L166.22168,103 L162.353516,103 L156.376953,94.7158203 Z M177.743164,103 L177.743164,78.828125 L185.628906,78.828125 C188.152356,78.828125 190.127923,79.3732042 191.555664,80.4633789 C192.983406,81.5535536 193.697266,83.1887912 193.697266,85.3691406 C193.697266,86.4095104 193.376305,87.3419555 192.734375,88.1665039 C192.092445,88.9910523 191.24024,89.6191385 190.177734,90.0507812 C191.760425,90.2721365 193.01383,90.9583276 193.937988,92.109375 C194.862147,93.2604224 195.324219,94.6162031 195.324219,96.1767578 C195.324219,98.3903105 194.604825,100.080886 193.166016,101.248535 C191.727206,102.416184 189.779309,103 187.322266,103 L177.743164,103 Z M181.013672,91.6611328 L181.013672,100.443359 L187.322266,100.443359 C188.816414,100.443359 189.975745,100.075362 190.800293,99.3393555 C191.624841,98.6033492 192.037109,97.5602281 192.037109,96.2099609 C192.037109,94.8707615 191.616541,93.7916708 190.775391,92.9726562 C189.934241,92.1536417 188.799812,91.7164716 187.37207,91.6611328 L181.013672,91.6611328 Z M181.013672,89.1044922 L186.30957,89.1044922 C187.527024,89.1044922 188.517574,88.7696974 189.28125,88.1000977 C190.044926,87.430498 190.426758,86.4980529 190.426758,85.3027344 C190.426758,83.9967383 190.01449,83.0200228 189.189941,82.3725586 C188.365393,81.7250944 187.178393,81.4013672 185.628906,81.4013672 L181.013672,81.4013672 L181.013672,89.1044922 Z M198.146484,93.8525391 C198.146484,91.1962758 198.865878,89.0076583 200.304688,87.2866211 C201.743497,85.5655838 203.696928,84.7050781 206.165039,84.7050781 C208.655286,84.7050781 210.622551,85.5628169 212.066895,87.2783203 C213.511238,88.9938237 214.233398,91.185208 214.233398,93.8525391 L214.233398,94.2177734 C214.233398,96.8961722 213.514005,99.0875566 212.075195,100.791992 C210.636386,102.496428 208.677421,103.348633 206.198242,103.348633 C203.719063,103.348633 201.757331,102.493661 200.312988,100.783691 C198.868645,99.0737219 198.146484,96.8851045 198.146484,94.2177734 L198.146484,93.8525391 Z M201.416992,94.2177734 C201.416992,96.1214288 201.818193,97.6930277 202.620605,98.9326172 C203.423018,100.172207 204.615552,100.791992 206.198242,100.791992 C207.758797,100.791992 208.94303,100.172207 209.750977,98.9326172 C210.558923,97.6930277 210.962891,96.1214288 210.962891,94.2177734 L210.962891,93.8525391 C210.962891,91.9710192 210.556156,90.4049542 209.742676,89.1542969 C208.929195,87.9036396 207.736662,87.2783203 206.165039,87.2783203 C204.604484,87.2783203 203.423018,87.9036396 202.620605,89.1542969 C201.818193,90.4049542 201.416992,91.9710192 201.416992,93.8525391 L201.416992,94.2177734 Z M217.470703,93.8525391 C217.470703,91.1962758 218.190097,89.0076583 219.628906,87.2866211 C221.067716,85.5655838 223.021147,84.7050781 225.489258,84.7050781 C227.979505,84.7050781 229.94677,85.5628169 231.391113,87.2783203 C232.835456,88.9938237 233.557617,91.185208 233.557617,93.8525391 L233.557617,94.2177734 C233.557617,96.8961722 232.838223,99.0875566 231.399414,100.791992 C229.960605,102.496428 228.00164,103.348633 225.522461,103.348633 C223.043282,103.348633 221.08155,102.493661 219.637207,100.783691 C218.192864,99.0737219 217.470703,96.8851045 217.470703,94.2177734 L217.470703,93.8525391 Z M220.741211,94.2177734 C220.741211,96.1214288 221.142411,97.6930277 221.944824,98.9326172 C222.747237,100.172207 223.939771,100.791992 225.522461,100.791992 C227.083016,100.791992 228.267249,100.172207 229.075195,98.9326172 C229.883142,97.6930277 230.287109,96.1214288 230.287109,94.2177734 L230.287109,93.8525391 C230.287109,91.9710192 229.880375,90.4049542 229.066895,89.1542969 C228.253414,87.9036396 227.06088,87.2783203 225.489258,87.2783203 C223.928703,87.2783203 222.747237,87.9036396 221.944824,89.1542969 C221.142411,90.4049542 220.741211,91.9710192 220.741211,93.8525391 L220.741211,94.2177734 Z M242.522461,94.7158203 L240.845703,94.7158203 L240.845703,103 L237.575195,103 L237.575195,77.1015625 L240.845703,77.1015625 L240.845703,92.109375 L242.489258,92.109375 L247.884766,85.0371094 L251.802734,85.0371094 L245.27832,93.3212891 L252.367188,103 L248.499023,103 L242.522461,94.7158203 Z" id="Little-Black-Book"></path>
        </g>
    </g>
</svg>