<?xml version="1.0" encoding="UTF-8"?>
<svg width="22px" height="22px" viewBox="0 0 22 22" version="1.1" xmlns="http://www.w3.org/2000/svg" xmlns:xlink="http://www.w3.org/1999/xlink">
    <!-- Generator: Sketch 46 (44423) - http://www.bohemiancoding.com/sketch -->
    <title>choose-hover</title>
    <desc>Created with Sketch.</desc>
    <defs></defs>
    <g id="Page-1" stroke="none" stroke-width="1" fill="none" fill-rule="evenodd">
        <g id="说明" transform="translate(-1017.000000, -474.000000)" fill-rule="nonzero">
            <g id="choose-hover" transform="translate(1018.000000, 475.000000)">
                <path d="M20,10 C20,15.5228475 15.5228475,20 10,20 C4.4771525,20 6.66133815e-16,15.5228475 0,10 C-6.66133815e-16,4.4771525 4.4771525,1.77635684e-15 10,8.8817842e-16 C15.5228475,1.11022302e-15 20,4.4771525 20,10 Z" id="ellipse-2" fill="#3A3A3A" opacity="0.3"></path>
                <path d="M10,0 C15.5228475,1.11022302e-15 20,4.4771525 20,10 C20,15.5228475 15.5228475,20 10,20 C4.4771525,20 6.66133815e-16,15.5228475 0,10 C-6.66133815e-16,4.4771525 4.4771525,1.77635684e-15 10,8.8817842e-16 L10,0 Z" id="ellipse-2-copy" stroke="#FFFFFF" stroke-width="2"></path>
                <polygon id="path-3" fill="#FFFFFF" points="4 10.548 5.188 9.36 7.948 12.121 14.07 6 15.258 7.188 9.136 13.309 9.148 13.322 7.96 14.51"></polygon>
            </g>
        </g>
    </g>
</svg>