<?xml version="1.0" encoding="UTF-8"?>
<svg width="14px" height="14px" viewBox="0 0 14 14" version="1.1" xmlns="http://www.w3.org/2000/svg" xmlns:xlink="http://www.w3.org/1999/xlink">
    <!-- Generator: Sketch 46.2 (44496) - http://www.bohemiancoding.com/sketch -->
    <title>Group</title>
    <desc>Created with Sketch.</desc>
    <defs></defs>
    <g id="Page-1" stroke="none" stroke-width="1" fill="none" fill-rule="evenodd">
        <g id="LMC-2-Copy" transform="translate(-729.000000, -517.000000)" fill="#3A3A3A">
            <g id="Group" transform="translate(729.000000, 517.000000)">
                <path d="M7.055,5.343 L2.108,0.395 C1.81325589,0.100255881 1.38365698,-0.0148548035 0.981029035,0.0930290281 C0.578401086,0.20091286 0.26391286,0.515401086 0.156029028,0.918029035 C0.0481451965,1.32065698 0.163255881,1.75025589 0.458,2.045 L5.406,6.992 L0.458,11.94 C0.00264122376,12.3953588 0.00264122376,13.1336412 0.458,13.589 C0.913358776,14.0443588 1.65164122,14.0443588 2.107,13.589 L7.055,8.641 L12.002,13.588 C12.2965655,13.8825655 12.725904,13.9976064 13.128288,13.889788 C13.5306719,13.7819695 13.8449695,13.4676719 13.952788,13.065288 C14.0606064,12.662904 13.9455655,12.2335655 13.651,11.939 L8.705,6.992 L13.652,2.045 C14.1073588,1.58964122 14.1073588,0.851358776 13.652,0.396 C13.1966412,-0.0593587762 12.4583588,-0.0593587762 12.003,0.396 L7.055,5.343 Z" id="Delete-2"></path>
            </g>
        </g>
    </g>
</svg>