<?xml version="1.0" encoding="utf-8"?>
<!-- Generator: Adobe Illustrator 18.0.0, SVG Export Plug-In . SVG Version: 6.00 Build 0)  -->
<!DOCTYPE svg PUBLIC "-//W3C//DTD SVG 1.1//EN" "http://www.w3.org/Graphics/SVG/1.1/DTD/svg11.dtd">
<svg version="1.1" id="图层_1" xmlns="http://www.w3.org/2000/svg" xmlns:xlink="http://www.w3.org/1999/xlink" x="0px" y="0px"
	 viewBox="0 0 253 117.3" enable-background="new 0 0 253 117.3" xml:space="preserve">
<g>
	<g>
		<g>
			<path fill="#DBDBDB" d="M161.6,105.7H59.7c-1.7,0-3.1-1.4-3.1-3.1v0c0-1.7,1.4-3.1,3.1-3.1h101.9c1.7,0,3.1,1.4,3.1,3.1v0
				C164.7,104.3,163.3,105.7,161.6,105.7z"/>
			<path fill="#DBDBDB" d="M231.9,85.3H8c-3.3,0-4.9-1.2-4.9-2.7v0c0-1.5,1.6-2.7,4.9-2.7h223.9c0.6,0,2.2,1.2,2.2,2.7v0
				C234.1,84,232.5,85.3,231.9,85.3z"/>
			<path fill="#DBDBDB" d="M148.4,105.1H75c-6,0-10.9-4.6-10.9-10.2v-4.5c0-5.6,4.9-10.2,11.9-10.2h73.3c4.9,0,9.8,4.6,9.8,10.2v4.5
				C159.3,100.5,154.4,105.1,148.4,105.1z"/>
		</g>
		<path fill="#FFFFFF" d="M66,99.5H30.8c-3.9,0-7.2-3.2-7.2-7.2v0c0-3.9,3.2-7.2,7.2-7.2H66c3.9,0,7.2,3.2,7.2,7.2v0
			C73.1,96.3,69.9,99.5,66,99.5z"/>
		<path fill="#FFFFFF" d="M191.9,99.5l-35,0c-3.9,0-7.1-3.2-7.1-7.2v0c0-3.9,3.2-7.1,7.2-7.1l35,0c3.9,0,7.1,3.2,7.1,7.2v0
			C199,96.3,195.8,99.5,191.9,99.5z"/>
	</g>
	<g>
		<polygon fill="#FFFFFF" stroke="#3A3A3A" stroke-width="0.8504" stroke-miterlimit="10" points="107.1,14.1 88.7,59.5 92.3,59.5 
			110.8,14.1 		"/>
		<polygon fill="#FFFFFF" stroke="#3A3A3A" stroke-width="0.8504" stroke-miterlimit="10" points="122.1,14.1 103.7,59.5 
			107.3,59.5 125.8,14.1 		"/>
		<polygon fill="#FFFFFF" stroke="#3A3A3A" stroke-width="0.8504" stroke-miterlimit="10" points="152.1,14.1 133.6,59.5 
			137.3,59.5 155.7,14.1 		"/>
		<polygon fill="#FFFFFF" stroke="#3A3A3A" stroke-width="0.8504" stroke-miterlimit="10" points="137.1,14.1 118.6,59.5 
			122.3,59.5 140.7,14.1 		"/>
		<polygon fill="#FFFFFF" stroke="#3A3A3A" stroke-width="0.8504" stroke-miterlimit="10" points="71,14.1 71,59.5 77.3,59.5 
			95.8,14.1 		"/>
		<polygon fill="#FFFFFF" stroke="#3A3A3A" stroke-width="0.8504" stroke-miterlimit="10" points="174.4,14.1 167,14.1 148.6,59.5 
			174.4,59.5 		"/>
		<line fill="none" stroke="#3A3A3A" stroke-width="0.8504" stroke-miterlimit="10" x1="103.7" y1="59.5" x2="92.3" y2="59.5"/>
		<line fill="none" stroke="#3A3A3A" stroke-width="0.8504" stroke-miterlimit="10" x1="110.8" y1="14.1" x2="122.1" y2="14.1"/>
		<polygon fill="#FFFFFF" stroke="#3A3A3A" stroke-width="0.8504" stroke-miterlimit="10" points="110.8,14.1 92.3,59.5 103.7,59.5 
			122.1,14.1 		"/>
		<line fill="none" stroke="#3A3A3A" stroke-width="0.8504" stroke-miterlimit="10" x1="118.6" y1="59.5" x2="107.3" y2="59.5"/>
		<line fill="none" stroke="#3A3A3A" stroke-width="0.8504" stroke-miterlimit="10" x1="125.8" y1="14.1" x2="137.1" y2="14.1"/>
		<polygon fill="#FFFFFF" stroke="#3A3A3A" stroke-width="0.8504" stroke-miterlimit="10" points="125.8,14.1 107.3,59.5 
			118.6,59.5 137.1,14.1 		"/>
		<line fill="none" stroke="#3A3A3A" stroke-width="0.8504" stroke-miterlimit="10" x1="133.6" y1="59.5" x2="122.3" y2="59.5"/>
		<line fill="none" stroke="#3A3A3A" stroke-width="0.8504" stroke-miterlimit="10" x1="140.7" y1="14.1" x2="152.1" y2="14.1"/>
		<polygon fill="#FFFFFF" stroke="#3A3A3A" stroke-width="0.8504" stroke-miterlimit="10" points="140.7,14.1 122.3,59.5 
			133.6,59.5 152.1,14.1 		"/>
		<line fill="none" stroke="#3A3A3A" stroke-width="0.8504" stroke-miterlimit="10" x1="148.6" y1="59.5" x2="137.3" y2="59.5"/>
		<line fill="none" stroke="#3A3A3A" stroke-width="0.8504" stroke-miterlimit="10" x1="155.7" y1="14.1" x2="167" y2="14.1"/>
		<polygon fill="#FFFFFF" stroke="#3A3A3A" stroke-width="0.8504" stroke-miterlimit="10" points="155.7,14.1 137.3,59.5 
			148.6,59.5 167,14.1 		"/>
		<line fill="none" stroke="#3A3A3A" stroke-width="0.8504" stroke-miterlimit="10" x1="95.8" y1="14.1" x2="107.1" y2="14.1"/>
		<path fill="none" stroke="#3A3A3A" stroke-width="0.8504" stroke-miterlimit="10" d="M112.2-26.2"/>
		<line fill="none" stroke="#3A3A3A" stroke-width="0.8504" stroke-miterlimit="10" x1="88.7" y1="59.5" x2="77.3" y2="59.5"/>
		<polygon fill="#FFFFFF" stroke="#3A3A3A" stroke-width="0.8504" stroke-miterlimit="10" points="95.8,14.1 77.3,59.5 88.7,59.5 
			107.1,14.1 		"/>
	</g>
	<circle fill="none" stroke="#3A3A3A" stroke-width="0.8504" stroke-miterlimit="10" cx="68.9" cy="9.3" r="4.8"/>
	<circle fill="none" stroke="#3A3A3A" stroke-width="0.8504" stroke-miterlimit="10" cx="177.1" cy="9.8" r="4.8"/>
	<line fill="none" stroke="#3A3A3A" stroke-width="0.8504" stroke-miterlimit="10" x1="66.5" y1="13.5" x2="66.5" y2="17.3"/>
	<line fill="none" stroke="#3A3A3A" stroke-width="0.8504" stroke-miterlimit="10" x1="66.5" y1="20.8" x2="66.5" y2="25"/>
	<line fill="none" stroke="#3A3A3A" stroke-width="0.8504" stroke-miterlimit="10" x1="66.5" y1="28" x2="66.5" y2="30"/>
	<line fill="none" stroke="#3A3A3A" stroke-width="0.8504" stroke-miterlimit="10" x1="66.5" y1="33.3" x2="66.5" y2="86.5"/>
	<line fill="none" stroke="#383838" stroke-width="0.8504" stroke-miterlimit="10" x1="71" y1="59.5" x2="71" y2="87.3"/>
	<line fill="none" stroke="#383838" stroke-width="0.8504" stroke-miterlimit="10" x1="24.6" y1="86.9" x2="95.6" y2="86.9"/>
	<line fill="none" stroke="#383838" stroke-width="0.8504" stroke-miterlimit="10" x1="5.7" y1="78" x2="11" y2="78"/>
	<path fill="none" stroke="#383838" stroke-width="0.8504" stroke-miterlimit="10" d="M28.7,67.9"/>
	<path fill="none" stroke="#383838" stroke-width="0.8504" stroke-miterlimit="10" d="M25,67.9"/>
	<line fill="none" stroke="#383838" stroke-width="0.9668" stroke-miterlimit="10" x1="108.7" y1="93.6" x2="123.4" y2="93.6"/>
	<line fill="none" stroke="#3A3A3A" stroke-width="0.8504" stroke-miterlimit="10" x1="179.1" y1="14" x2="179.1" y2="21.8"/>
	<line fill="none" stroke="#3A3A3A" stroke-width="0.8504" stroke-miterlimit="10" x1="179.1" y1="24.8" x2="179.1" y2="27.5"/>
	<path fill="none" stroke="#383838" stroke-width="0.8504" stroke-miterlimit="10" d="M46.2,72.5c0-3.4,2.7-6.1,6.1-6.1
		s6.1,2.7,6.1,6.1"/>
	<path fill="none" stroke="#383838" stroke-width="0.8504" stroke-miterlimit="10" d="M31.8,72.5c0-8.5,6.9-15.4,15.4-15.4
		S62.6,64,62.6,72.5"/>
	<g>
		<line fill="none" stroke="#383838" stroke-width="0.8504" stroke-miterlimit="10" x1="74.2" y1="102.4" x2="77.5" y2="102.4"/>
		<g>
			<path fill="none" stroke="#383838" stroke-width="0.8504" stroke-miterlimit="10" d="M58,102.4c0-3.4,2.3-6.1,5.1-6.1
				s5.1,2.7,5.1,6.1"/>
			<line fill="none" stroke="#383838" stroke-width="0.8504" stroke-miterlimit="10" x1="67.8" y1="102.4" x2="72.2" y2="102.4"/>
			<line fill="none" stroke="#383838" stroke-width="0.8504" stroke-miterlimit="10" x1="43.1" y1="102" x2="58.3" y2="102"/>
		</g>
	</g>
	<g>
		<path fill="none" stroke="#383838" stroke-width="0.8504" stroke-miterlimit="10" d="M132.9,112.7c0-3.4,2.3-6.1,5.1-6.1
			s5.1,2.7,5.1,6.1"/>
		<line fill="none" stroke="#383838" stroke-width="0.8504" stroke-miterlimit="10" x1="142.7" y1="112.7" x2="147" y2="112.7"/>
		<line fill="none" stroke="#383838" stroke-width="0.8504" stroke-miterlimit="10" x1="126" y1="112.3" x2="133.2" y2="112.3"/>
	</g>
	<g>
		<path fill="none" stroke="#383838" stroke-width="0.8504" stroke-miterlimit="10" d="M223,105.5c0-2.3,1.5-4.1,3.5-4.1
			c1.9,0,3.5,1.8,3.5,4.1"/>
		<line fill="none" stroke="#383838" stroke-width="0.8504" stroke-miterlimit="10" x1="229.6" y1="105.5" x2="232.6" y2="105.5"/>
		<line fill="none" stroke="#383838" stroke-width="0.8504" stroke-miterlimit="10" x1="218.4" y1="105.3" x2="223.3" y2="105.3"/>
	</g>
	<g>
		<path fill="none" stroke="#383838" stroke-width="0.8504" stroke-miterlimit="10" d="M235.6,87"/>
		<line fill="none" stroke="#383838" stroke-width="0.8504" stroke-miterlimit="10" x1="197.4" y1="87" x2="229.9" y2="87"/>
		<line fill="none" stroke="#383838" stroke-width="0.8504" stroke-miterlimit="10" x1="234.7" y1="87" x2="240.8" y2="87"/>
		<line fill="none" stroke="#383838" stroke-width="0.8504" stroke-miterlimit="10" x1="246.1" y1="87" x2="250" y2="87"/>
	</g>
	<line fill="none" stroke="#383838" stroke-width="0.7252" stroke-miterlimit="10" x1="157.4" y1="89.7" x2="162.7" y2="89.7"/>
	<line fill="none" stroke="#383838" stroke-width="0.8001" stroke-miterlimit="10" x1="174" y1="86.8" x2="179.5" y2="86.8"/>
	<line fill="none" stroke="#3A3A3A" stroke-width="0.8504" stroke-miterlimit="10" x1="179.1" y1="30" x2="179.1" y2="87"/>
	<line fill="none" stroke="#383838" stroke-width="0.8504" stroke-miterlimit="10" x1="174.4" y1="57.5" x2="174.4" y2="86.8"/>
	<g>
		<path fill="none" stroke="#383838" stroke-width="0.8504" stroke-miterlimit="10" d="M185.3,86.9c0-7.2,5.8-13,13-13s13,5.8,13,13
			"/>
		<path fill="none" stroke="#383838" stroke-width="0.8504" stroke-miterlimit="10" d="M188.7,86.7c0-4.3,3.4-7.7,7.7-7.7
			s7.7,3.4,7.7,7.7"/>
	</g>
	<path fill="#DBDBDB" d="M201.3,98.8h-21.6c-1.1,0-2-0.9-2-2v0c0-1.1,0.9-2,2-2h21.6c1.1,0,2,0.9,2,2v0
		C203.3,97.9,202.4,98.8,201.3,98.8z"/>
</g>
</svg>
