<?xml version="1.0" encoding="utf-8"?>
<!-- Generator: Adobe Illustrator 18.0.0, SVG Export Plug-In . SVG Version: 6.00 Build 0)  -->
<!DOCTYPE svg PUBLIC "-//W3C//DTD SVG 1.1//EN" "http://www.w3.org/Graphics/SVG/1.1/DTD/svg11.dtd">
<svg version="1.1" id="图层_1" xmlns="http://www.w3.org/2000/svg" xmlns:xlink="http://www.w3.org/1999/xlink" x="0px" y="0px"
	 viewBox="0 0 150 150" enable-background="new 0 0 150 150" xml:space="preserve">
<g>
	
		<rect x="45.8" y="48.8" transform="matrix(0.9314 -0.3639 0.3639 0.9314 -20.1747 30.5273)" fill="none" stroke="#D9D9D9" stroke-width="4.4092" stroke-miterlimit="10" width="50.3" height="40"/>
	<rect x="55.7" y="57.3" fill="#FFFFFF" stroke="#D9D9D9" stroke-width="4.3248" stroke-miterlimit="10" width="48.4" height="40"/>
	<path fill="#D9D9D9" d="M67.9,76.1L67.9,76.1c-2.3,0-4.2-1.9-4.2-4.2v0c0-2.3,1.9-4.2,4.2-4.2h0c2.3,0,4.2,1.9,4.2,4.2v0
		C72.1,74.2,70.2,76.1,67.9,76.1z"/>
	<path fill="#D9D9D9" d="M61.6,91.2l8.5-10.4l5.6,4.1l9.9-17.1l3,8.5l3.7-2.3l5.7,17.2C98.1,91.1,61.8,91,61.6,91.2z"/>
</g>
</svg>
