<?xml version="1.0" encoding="UTF-8"?>
<svg width="59px" height="44px" viewBox="0 0 59 44" version="1.1" xmlns="http://www.w3.org/2000/svg" xmlns:xlink="http://www.w3.org/1999/xlink">
    <!-- Generator: Sketch 43 (38999) - http://www.bohemiancoding.com/sketch -->
    <title>AddPhotos-normal</title>
    <desc>Created with Sketch.</desc>
    <defs></defs>
    <g id="Page-1" stroke="none" stroke-width="1" fill="none" fill-rule="evenodd">
        <g id="Default" transform="translate(-930.000000, -368.000000)" fill-rule="nonzero" fill="#7B7B7B">
            <g id="AddPhotos-normal" transform="translate(930.000000, 368.000000)">
                <path d="M2.294,0.504 C1.2298088,0.517508874 0.370860228,1.37778915 0.359,2.442 L0.359,37.27 C0.372474868,38.3330395 1.23096051,39.1915251 2.294,39.205 L40.045,39.205 C42.6362265,42.441137 46.913488,43.8108563 50.9025469,42.6819424 C54.8916057,41.5530284 57.8167547,38.1450083 58.3278449,34.0309076 C58.8389351,29.916807 56.8365807,25.8966485 53.245,23.826 L53.245,2.442 C53.2320517,1.37873855 52.3732614,0.519948301 51.31,0.507 L2.294,0.504 Z M2.939,3.084 L50.667,3.084 L50.667,22.776 C48.9637072,22.3196221 47.1702928,22.3196221 45.467,22.776 L36.074,13.742 C35.8227972,13.5038491 35.4856196,13.3779736 35.1398083,13.3932466 C34.7939971,13.4085196 34.4692294,13.5636305 34.24,13.823 L22.812,26.442 L13.859,18.866 C13.3878095,18.4809417 12.715478,18.4644731 12.226,18.826 L2.939,26.202 L2.939,3.084 Z M20.998,6.954 C18.1482107,6.954 15.838,9.26421069 15.838,12.114 C15.838,14.9637893 18.1482107,17.274 20.998,17.274 C23.8477893,17.274 26.158,14.9637893 26.158,12.114 C26.1470356,9.26876468 23.8432353,6.96496442 20.998,6.954 L20.998,6.954 Z M20.998,9.534 C22.0415126,9.534 22.9822742,10.1625968 23.3816092,11.1266767 C23.7809442,12.0907567 23.5602103,13.2004607 22.8223355,13.9383355 C22.0844607,14.6762103 20.9747567,14.8969442 20.0106767,14.4976092 C19.0465968,14.0982742 18.418,13.1575126 18.418,12.114 C18.4128928,11.4281885 18.6830731,10.7689839 19.1680285,10.2840285 C19.6529839,9.79907315 20.3121885,9.52889282 20.998,9.534 L20.998,9.534 Z M35.248,16.528 L42.867,23.864 C38.4570589,26.4520766 36.6053605,31.8778844 38.513,36.622 L2.939,36.622 L2.939,29.507 L12.997,21.507 L22.107,29.207 C22.6383137,29.6277812 23.4003406,29.5848259 23.881,29.107 L35.248,16.528 Z M48.087,25.013 C52.361684,25.013 55.827,28.478316 55.827,32.753 C55.827,37.027684 52.361684,40.493 48.087,40.493 C43.812316,40.493 40.347,37.027684 40.347,32.753 C40.3416708,30.6985953 41.1554213,28.7267981 42.6081097,27.2741097 C44.0607981,25.8214213 46.0325953,25.0076708 48.087,25.013 L48.087,25.013 Z M48.087,26.948 C47.3745527,26.948 46.797,27.5255527 46.797,28.238 L46.797,31.462 L43.572,31.462 C42.8595527,31.462 42.282,32.0395527 42.282,32.752 C42.282,33.4644473 42.8595527,34.042 43.572,34.042 L46.797,34.042 L46.797,37.267 C46.797,37.9794473 47.3745527,38.557 48.087,38.557 C48.7994473,38.557 49.377,37.9794473 49.377,37.267 L49.377,34.042 L52.602,34.042 C53.3144473,34.042 53.892,33.4644473 53.892,32.752 C53.892,32.0395527 53.3144473,31.462 52.602,31.462 L49.377,31.462 L49.377,28.242 C49.378063,27.8991782 49.2426221,27.5700331 49.0005849,27.3272454 C48.7585476,27.0844576 48.4298234,26.9479984 48.087,26.948 Z" id="Path_4"></path>
            </g>
        </g>
    </g>
</svg>