<?xml version="1.0" encoding="UTF-8"?>
<svg width="13px" height="14px" viewBox="0 0 13 14" version="1.1" xmlns="http://www.w3.org/2000/svg" xmlns:xlink="http://www.w3.org/1999/xlink">
    <!-- Generator: Sketch 46.2 (44496) - http://www.bohemiancoding.com/sketch -->
    <title>替换</title>
    <desc>Created with Sketch.</desc>
    <defs></defs>
    <g id="Page-1" stroke="none" stroke-width="1" fill="none" fill-rule="evenodd">
        <g id="替换" fill-rule="nonzero" fill="#FFFFFF">
            <path d="M3.95103214,5.70118944 L3.95103214,4.01602812 L9.4646482,4.01602812 C10.0489973,4.01602812 10.5548048,4.38770856 10.8092794,4.92948005 C10.9993499,4.62552105 11.1108789,4.25699044 11.1108789,3.85853641 C11.1108789,2.83169044 10.3694467,2.0001342 9.45522322,2.0001342 L3.95103214,2.0001342 L3.95103214,0.307098294 C3.95103214,0.0582613889 3.70127004,-0.0866309865 3.5206245,0.0566864718 L0.116634186,2.7545195 C-0.038878062,2.87736304 -0.038878062,3.13407453 0.116634186,3.25534315 L3.5206245,5.95002635 C3.70127004,6.09491872 3.95103214,5.95002635 3.95103214,5.70118944 Z M12.8859177,9.78179971 L9.48192734,7.08554159 C9.29971097,6.94222413 9.04994888,7.08711651 9.04994888,7.33595342 L9.04994888,9.02111474 L3.53476198,9.02111474 C2.95041293,9.02111474 2.44460541,8.6494343 2.19013083,8.10923772 C2.0000603,8.41319673 1.88853131,8.78172733 1.88853131,9.18018137 C1.88853131,10.2070273 2.62996345,11.0385836 3.54418696,11.0385836 L9.04837804,11.0385836 L9.04837804,12.7300446 C9.04837804,12.9788815 9.29971097,13.1237738 9.48035651,12.9804564 L12.8843468,10.2841983 C13.0382882,10.1613547 13.0382882,9.90306833 12.8859177,9.78179971 L12.8859177,9.78179971 Z" id="Shape"></path>
        </g>
    </g>
</svg>