<?xml version="1.0" encoding="UTF-8"?>
<svg width="12px" height="12px" viewBox="0 0 12 12" version="1.1" xmlns="http://www.w3.org/2000/svg" xmlns:xlink="http://www.w3.org/1999/xlink">
    <!-- Generator: Sketch 44.1 (41455) - http://www.bohemiancoding.com/sketch -->
    <title>Group 2 Copy 6</title>
    <desc>Created with Sketch.</desc>
    <defs></defs>
    <g id="Page-1" stroke="none" stroke-width="1" fill="none" fill-rule="evenodd">
        <g id="Desktop-2" transform="translate(-50.000000, -270.000000)" fill-rule="nonzero" fill="#7B7B7B">
            <g id="Group-2-Copy-6" transform="translate(50.000000, 270.000000)">
                <g id="loading-(2)">
                    <path d="M2.6670001,6.40748933 L0.36865653,6.40748933 C0.170457749,6.40748933 0.0083074857,6.24516643 0.0083074857,6.04678414 L0.0083074857,6.03655225 C0.0083074857,5.83815758 0.17047012,5.67584705 0.36865653,5.67584705 L2.6670001,5.67584705 C2.86519888,5.67584705 3.02734914,5.83816996 3.02734914,6.03655225 L3.02734914,6.04678414 C3.02736152,6.24517881 2.86519888,6.40748933 2.6670001,6.40748933 Z M11.6292827,6.40748933 L9.33092677,6.40748933 C9.13272799,6.40748933 8.97057772,6.24516643 8.97057772,6.04678414 L8.97057772,6.03655225 C8.97057772,5.83815758 9.13274036,5.67584705 9.33092677,5.67584705 L11.6292703,5.67584705 C11.8274691,5.67584705 11.9896194,5.83816996 11.9896194,6.03655225 L11.9896194,6.04678414 C11.9896318,6.24517881 11.8274691,6.40748933 11.6292827,6.40748933 Z M11.1093822,3.48192357 L9.10900502,4.61480222 C8.93650921,4.71248832 8.71551559,4.6511465 8.61792595,4.47848021 L8.6128893,4.46957376 C8.51529966,4.29690747 8.57658092,4.07569543 8.74907672,3.97800934 L10.7494539,2.84513068 C10.9219497,2.74744459 11.1429433,2.80878641 11.2405329,2.9814527 L11.2455696,2.99035915 C11.3431716,3.16302544 11.2818903,3.3842251 11.1093822,3.48192357 Z M9.16055948,1.27811503 L7.97682418,3.25013279 C7.8747424,3.42018536 7.65222665,3.47571754 7.48234198,3.37354726 L7.47358045,3.36827028 C7.30369578,3.26608761 7.24821843,3.04335194 7.35028783,2.87329937 L8.53402312,0.901281609 C8.6361049,0.73122904 8.85862066,0.675696862 9.02850532,0.777867138 L9.03726686,0.78313173 C9.20715154,0.885326786 9.26264126,1.10806246 9.16055948,1.27811503 Z M6.35977654,0.37588752 L6.34789649,2.67647787 C6.34686937,2.87486016 6.1838776,3.03634073 5.98569119,3.03531259 L5.9754694,3.03526304 C5.77728299,3.0342349 5.61596186,2.87108204 5.61698898,2.67269975 L5.62886903,0.372109405 C5.62989616,0.173727118 5.79288792,0.0122465485 5.99107433,0.0132746876 L6.00129613,0.013324234 C6.19948254,0.0143399897 6.36080368,0.177505234 6.35977654,0.37588752 Z M3.52413311,0.897181412 L4.67782179,2.88696253 C4.77730481,3.05855112 4.71846146,3.28041969 4.54704227,3.38000103 L4.53819411,3.38514175 C4.36677494,3.48472309 4.14512543,3.42582158 4.04564242,3.25423297 L2.89195374,1.26445186 C2.79247072,1.09286327 2.85131408,0.870994694 3.02273326,0.77141336 L3.03158142,0.76627264 C3.20300059,0.666691305 3.42463772,0.725605204 3.52413311,0.897181412 Z M1.27746774,2.84038636 L3.27049411,3.98617256 C3.44235878,4.0849735 3.5022169,4.30656955 3.40351351,4.47860408 L3.39842736,4.48747337 C3.29972397,4.6595079 3.07834672,4.71942519 2.90648205,4.62062424 L0.913443308,3.47485043 C0.741578636,3.37604949 0.681720513,3.15445344 0.780423912,2.98241891 L0.785510059,2.97354962 C0.884225817,2.80150268 1.10560306,2.74158541 1.27746774,2.84038636 Z M10.7417195,9.13930566 L8.75129186,7.9889981 C8.57964993,7.88980076 8.5202992,7.66806846 8.61939859,7.49625689 L8.62450948,7.48739998 C8.72360887,7.31558841 8.94512225,7.25617903 9.11676417,7.35537636 L11.1071918,8.50568392 C11.2788337,8.60488126 11.3381844,8.82661356 11.239085,8.99842513 L11.2339742,9.00728204 C11.1348624,9.17909361 10.913349,9.23850299 10.7417195,9.13930566 Z M3.28743555,7.96063123 L1.3040246,9.12302878 C1.13298905,9.22326665 0.911116793,9.16519507 0.810977895,8.99399048 L0.805817496,8.98515835 C0.705678598,8.81395376 0.763692834,8.59186222 0.934728384,8.49162435 L2.91813934,7.32922681 C3.08917489,7.22898894 3.31104714,7.28706051 3.41118604,7.4582651 L3.41634644,7.46709723 C3.51647295,7.63830182 3.4584711,7.86039336 3.28743555,7.96063123 Z M4.67189414,9.04143376 L3.53268426,11.0395515 C3.43445112,11.2118586 3.21323476,11.2723704 3.04109783,11.1740402 L3.03222491,11.1689738 C2.86008799,11.0706436 2.79963587,10.8492086 2.89786901,10.6769015 L4.03707889,8.67878377 C4.13531203,8.50647671 4.3565284,8.44596485 4.52866532,8.54429508 L4.53755061,8.54936147 C4.70967516,8.64770407 4.77013965,8.86913909 4.67189414,9.04143376 Z M6.37930438,9.32527589 L6.37074084,11.6258786 C6.36999834,11.8242733 6.2072417,11.9859768 6.00904291,11.9852336 L5.99882112,11.9851964 C5.80062234,11.9844532 5.63907845,11.8215357 5.63980858,11.623141 L5.64837211,9.32253829 C5.64911461,9.12414362 5.81187125,8.96244008 6.01007005,8.96317093 L6.02029184,8.96320809 C6.21849062,8.96396372 6.38004688,9.12688122 6.37930438,9.32527589 Z M8.0120312,8.7193521 L9.13632914,10.725918 C9.23327527,10.8989559 9.17117727,11.1199202 8.99831022,11.2169745 L8.9893878,11.221979 C8.81652075,11.3190209 8.59577463,11.2568616 8.49881612,11.0838237 L7.37451818,9.07725777 C7.27757205,8.90421986 7.33967005,8.68325557 7.5125371,8.58620123 L7.52145951,8.58119677 C7.69432656,8.48415483 7.91508506,8.54631419 8.0120312,8.7193521 Z" id="Shape"></path>
                </g>
            </g>
        </g>
    </g>
</svg>