<?xml version="1.0" encoding="UTF-8"?>
<svg width="52px" height="64px" viewBox="0 0 52 64" version="1.1" xmlns="http://www.w3.org/2000/svg" xmlns:xlink="http://www.w3.org/1999/xlink">
    <!-- Generator: Sketch 43.2 (39069) - http://www.bohemiancoding.com/sketch -->
    <title>Shape</title>
    <desc>Created with Sketch.</desc>
    <defs></defs>
    <g id="Page-1" stroke="none" stroke-width="1" fill="none" fill-rule="evenodd">
        <g id="Photo_load-_failed" transform="translate(-1559.000000, -568.000000)" fill-rule="nonzero" fill="#7B7B7B">
            <g id="刷新-(5)-copy" transform="translate(1585.000000, 599.750000) scale(-1, 1) rotate(90.000000) translate(-1585.000000, -599.750000) translate(1553.500000, 573.750000)">
                <path d="M62.6595759,23.8888904 L55.2735816,31.4217594 C54.6662452,32.0177758 53.6810728,32.0177758 53.0730367,31.4217594 L45.7353215,23.8888904 C44.8628002,22.8552396 45.4456472,22.4877657 46.0536833,21.8910546 L52.772867,21.8910546 C50.9186718,11.7289059 42.1059967,4.02376179 31.4923033,4.02376179 C23.2869647,4.02376179 16.1493626,8.62725892 12.475957,15.4112868 L8.81094768,13.9330551 C13.0832934,5.6888565 21.6293841,0.0537925621 31.4923033,0.0537925621 C44.2841513,0.0537925621 54.8523644,9.52823007 56.7506405,21.8910546 L62.3419138,21.8910546 C62.9492502,22.4877657 63.267612,23.2921794 62.6595759,23.8888904 Z M9.99483384,22.2870096 L17.3815278,29.8198786 C17.9888642,30.4158949 17.6712021,31.221698 17.063166,31.8177144 L10.667242,31.8177144 C13.2372266,40.9823345 21.5818048,47.6996753 31.4923033,47.6996753 C39.0343299,47.6996753 45.66955,43.806813 49.5465673,37.9091685 L53.2493602,39.4026827 C48.7398174,46.7549407 40.6954089,51.6703391 31.4923033,51.6703391 C19.3966532,51.6703391 9.30563297,43.1934302 6.63769093,31.8177144 L0.774935531,31.8177144 C0.167599132,31.221698 -0.415247896,30.8535294 0.457273406,29.8198786 L7.79428894,22.2870096 C8.40162534,21.6909932 9.38749744,21.6909932 9.99483384,22.2870096 Z" id="Shape"></path>
            </g>
        </g>
    </g>
</svg>