<?xml version="1.0" encoding="UTF-8"?>
<svg width="100px" height="100px" viewBox="0 0 100 100" version="1.1" xmlns="http://www.w3.org/2000/svg" xmlns:xlink="http://www.w3.org/1999/xlink">
    <!-- Generator: Sketch 44.1 (41455) - http://www.bohemiancoding.com/sketch -->
    <title>Group</title>
    <desc>Created with Sketch.</desc>
    <defs></defs>
    <g id="Page-1" stroke="none" stroke-width="1" fill="none" fill-rule="evenodd">
        <g id="Desktop-1" transform="translate(-910.000000, -419.000000)">
            <g id="Group" transform="translate(910.000000, 419.000000)">
                <g id="Group-2-Copy-6" transform="translate(17.000000, 27.000000)" fill="#7B7B7B">
                    <text id="Loading…-Copy" font-family="Gotham-Book, Gotham" font-size="14" font-weight="300">
                        <tspan x="0.152" y="43">Loading…</tspan>
                    </text>
                    <g id="loading-(2)" transform="translate(23.000000, 0.000000)" fill-rule="nonzero">
                        <path d="M4.88950017,11.7470638 L0.675870306,11.7470638 C0.312505873,11.7470638 0.0152303905,11.4494718 0.0152303905,11.0857709 L0.0152303905,11.0670125 C0.0152303905,10.7032889 0.312528554,10.4057196 0.675870306,10.4057196 L4.88950017,10.4057196 C5.25286461,10.4057196 5.55014009,10.7033116 5.55014009,11.0670125 L5.55014009,11.0857709 C5.55016279,11.4494945 5.25286461,11.7470638 4.88950017,11.7470638 Z M21.3203516,11.7470638 L17.1066991,11.7470638 C16.7433346,11.7470638 16.4460592,11.4494718 16.4460592,11.0857709 L16.4460592,11.0670125 C16.4460592,10.7032889 16.7433573,10.4057196 17.1066991,10.4057196 L21.3203289,10.4057196 C21.6836934,10.4057196 21.9809689,10.7033116 21.9809689,11.0670125 L21.9809689,11.0857709 C21.9809916,11.4494945 21.6836934,11.7470638 21.3203516,11.7470638 Z M20.3672006,6.38352655 L16.6998425,8.46047075 C16.3836002,8.63956191 15.9784453,8.52710191 15.7995309,8.21054705 L15.7902971,8.19421855 C15.6113827,7.87766369 15.7237317,7.47210829 16.039974,7.29301712 L19.7073321,5.21607292 C20.0235744,5.03698175 20.4287294,5.14944175 20.6076437,5.46599662 L20.6168776,5.48232511 C20.7958146,5.79887998 20.6834656,6.20441268 20.3672006,6.38352655 Z M16.794359,2.34321089 L14.6241777,5.95857678 C14.4370277,6.27033982 14.0290822,6.37214882 13.717627,6.18483664 L13.7015642,6.17516219 C13.3901089,5.98782729 13.2884005,5.57947855 13.4755277,5.2677155 L15.6457091,1.65234962 C15.832859,1.34058657 16.2408045,1.23877758 16.5522598,1.42608975 L16.5683226,1.43574151 C16.8797778,1.62309911 16.981509,2.03144785 16.794359,2.34321089 Z M11.6595903,0.68912712 L11.6378102,4.9068761 C11.6359272,5.27057695 11.3371089,5.56662467 10.9737672,5.56473974 L10.9550272,5.56464891 C10.5916855,5.56276399 10.2959301,5.26365041 10.2978131,4.89994955 L10.3195932,0.682200575 C10.3214763,0.318499717 10.6202945,0.0224520055 10.9836363,0.0243369273 L11.0023762,0.0244277624 C11.365718,0.026289981 11.6614734,0.325426262 11.6595903,0.68912712 Z M6.46091071,1.64483259 L8.57600662,5.29276463 C8.75839216,5.60734372 8.65051267,6.01410277 8.33624417,6.19666855 L8.32002254,6.2060932 C8.00575406,6.38865901 7.59939663,6.28067289 7.41701111,5.96609379 L5.3019152,2.31816174 C5.11952965,2.00358266 5.22740914,1.59682361 5.54167765,1.41425783 L5.55789927,1.40483317 C5.87216775,1.22226739 6.27850248,1.33027621 6.46091071,1.64483259 Z M2.3420242,5.20737499 L5.99590587,7.30798302 C6.3109911,7.48911808 6.42073099,7.8953775 6.23977476,8.21077415 L6.23045016,8.22703451 C6.04949395,8.54243116 5.64363565,8.65227951 5.32855042,8.47114443 L1.67464606,6.37055913 C1.35956083,6.18942407 1.24982094,5.78316464 1.43077717,5.467768 L1.44010177,5.45150764 C1.62108066,5.13608824 2.02693894,5.02623991 2.3420242,5.20737499 Z M19.6931524,16.7553937 L16.0440351,14.6464965 C15.7293582,14.4646347 15.6205485,14.0581255 15.8022307,13.7431376 L15.8116007,13.7269 C15.9932829,13.4119121 16.3993908,13.3029949 16.7140677,13.4848567 L20.3631849,15.5937539 C20.6778618,15.7756156 20.7866715,16.1821249 20.6049893,16.4971127 L20.5956193,16.5133504 C20.4139144,16.8283383 20.0078065,16.9372555 19.6931524,16.7553937 Z M6.02696517,14.5944906 L2.39071176,16.7255528 C2.07714658,16.9093222 1.67038079,16.8028576 1.48679281,16.4889825 L1.47733208,16.4727903 C1.2937441,16.1589152 1.40010353,15.7517474 1.7136687,15.567978 L5.34992212,13.4369158 C5.66348729,13.2531464 6.07025309,13.3596109 6.25384107,13.673486 L6.2633018,13.6896783 C6.44686708,14.0035533 6.34053035,14.4107212 6.02696517,14.5944906 Z M8.56513925,16.5759619 L6.47658782,20.2391778 C6.29649372,20.5550741 5.89093039,20.6660125 5.57534602,20.4857404 L5.55907901,20.476452 C5.24349464,20.2961799 5.13266576,19.8902157 5.31275986,19.5743195 L7.40131129,15.9111036 C7.58140539,15.5952073 7.98696872,15.4842689 8.30255309,15.664541 L8.31884278,15.6738294 C8.63440447,15.8541241 8.74525603,16.2600883 8.56513925,16.5759619 Z M11.6953914,17.0963391 L11.6796915,21.3141108 C11.6783303,21.6778344 11.3799431,21.9742909 11.0165787,21.9729283 L10.9978387,21.9728601 C10.6344743,21.9714976 10.3383105,21.6728155 10.3396491,21.3090919 L10.3553489,17.0913202 C10.3567101,16.7275966 10.6550973,16.4311401 11.0184618,16.43248 L11.0372017,16.4325482 C11.4005661,16.4339335 11.6967526,16.7326156 11.6953914,17.0963391 Z M14.6887239,15.9854788 L16.7499368,19.664183 C16.9276713,19.9814191 16.813825,20.3865203 16.4969021,20.5644533 L16.4805443,20.5736281 C16.1636214,20.7515384 15.7589202,20.6375795 15.5811629,20.3203434 L13.51995,16.6416392 C13.3422154,16.3244031 13.4560618,15.9193019 13.7729847,15.7413689 L13.7893424,15.7321941 C14.1062654,15.5542839 14.5109893,15.6682427 14.6887239,15.9854788 Z" id="Shape"></path>
                    </g>
                </g>
                <rect id="Rectangle-4-Copy" stroke="#979797" x="0.5" y="0.5" width="99" height="99" rx="10"></rect>
            </g>
        </g>
    </g>
</svg>