<?xml version="1.0" encoding="UTF-8"?>
<svg width="16px" height="15px" viewBox="0 0 16 15" version="1.1" xmlns="http://www.w3.org/2000/svg" xmlns:xlink="http://www.w3.org/1999/xlink">
    <!-- Generator: Sketch 46 (44423) - http://www.bohemiancoding.com/sketch -->
    <title>right</title>
    <desc>Created with Sketch.</desc>
    <defs></defs>
    <g id="Page-1" stroke="none" stroke-width="1" fill="none" fill-rule="evenodd">
        <g id="upgrade-to-hard-cover-unchoose-copy-3" transform="translate(-1153.000000, -497.000000)" fill-rule="nonzero" fill="#000000">
            <g id="right" transform="translate(1153.000000, 496.000000)">
                <path d="M5.755,15.763 C5.47601216,15.7663209 5.20719539,15.6583623 5.008,15.463 L0.345,10.657 C-0.0274590596,10.2282718 -0.0123113707,9.58648017 0.379959533,9.17580131 C0.772230436,8.76512245 1.41265368,8.72057946 1.858,9.073 L5.275,11.511 C5.36911086,11.5949655 5.49437241,11.6351593 5.6197677,11.6216288 C5.74516298,11.6080983 5.85896704,11.5421086 5.933,11.44 L14.033,1.44 C14.2645614,1.11809861 14.6523045,0.946861884 15.0462006,0.99254608 C15.4400968,1.03823028 15.7783539,1.29366874 15.930091,1.66002521 C16.0818281,2.02638168 16.0232415,2.4461844 15.777,2.757 L6.627,15.32 C6.43875299,15.5673852 6.1539142,15.7227188 5.844,15.747 C5.81648894,15.7607801 5.78558799,15.7663353 5.755,15.763 Z"></path>
            </g>
        </g>
    </g>
</svg>