<?xml version="1.0" encoding="UTF-8"?>
<svg width="14px" height="14px" viewBox="0 0 14 14" version="1.1" xmlns="http://www.w3.org/2000/svg" xmlns:xlink="http://www.w3.org/1999/xlink">
    <!-- Generator: Sketch 46.2 (44496) - http://www.bohemiancoding.com/sketch -->
    <title>刷新</title>
    <desc>Created with Sketch.</desc>
    <defs></defs>
    <g id="Page-1" stroke="none" stroke-width="1" fill="none" fill-rule="evenodd">
        <g id="upload-2" transform="translate(-1183.000000, -536.000000)" fill-rule="nonzero" fill="#3A3A3A">
            <g id="刷新" transform="translate(1183.000000, 536.000000)">
                <path d="M6.99487208,13.9858124 C6.2651398,13.9858283 5.54135156,13.8708834 4.83980972,13.643336 C3.94310209,13.3525076 3.12996181,12.8945605 2.42298586,12.2822432 C1.74032793,11.6909611 1.18520424,10.9815629 0.773040632,10.1737134 C0.360892966,9.36583189 0.112342245,8.50000786 0.0343046096,7.60027242 C-0.0465058509,6.66849009 0.0599771835,5.74137695 0.350821531,4.84466932 C0.641649931,3.94794576 1.09959709,3.13482141 1.71191439,2.42784546 C2.30316456,1.74518754 3.01257869,1.19006385 3.82042828,0.777900236 C4.62826193,0.365736623 5.49407004,0.117185918 6.3937736,0.0391482825 C7.32547625,-0.041662178 8.25260534,0.0648208565 9.14924921,0.355665204 C10.1673558,0.685870979 11.0711389,1.20274874 11.8354838,1.89190847 C12.5914783,2.5735465 13.1680994,3.38405737 13.5493156,4.30090786 C13.6506673,4.54470971 13.5352124,4.82451054 13.2914106,4.92589411 C13.0476725,5.02724581 12.7678079,4.91180686 12.6664243,4.66798907 C12.0047698,3.07662387 10.6152793,1.83634032 8.85422969,1.26515334 C7.32265562,0.768354681 5.68923581,0.89781715 4.25494981,1.62958921 C2.820616,2.36139314 1.75709239,3.60795539 1.26032561,5.13964102 C0.234792957,8.30155929 1.9728791,11.7082993 5.13479736,12.7338319 C7.81422732,13.6029069 10.7862067,12.4698554 12.2016248,10.0396773 C12.3345294,9.8115085 12.6272063,9.73429953 12.8553433,9.86717225 C13.0834962,10.0000609 13.160737,10.2927379 13.0278483,10.5208908 C12.2377034,11.8775057 10.9922248,12.9395154 9.52080839,13.5113238 C8.78709215,13.7964632 8.01785502,13.9547057 7.23448281,13.981685 C7.15456477,13.9844419 7.07466264,13.9858124 6.99487208,13.9858124 Z" id="Shape"></path>
                <path d="M13.1943456,5.10302056 L9.87969861,5.10302056 C9.61567422,5.10302056 9.40162452,4.88897085 9.40162452,4.62494647 C9.40162452,4.36092209 9.61567422,4.14687238 9.87969861,4.14687238 L13.1943456,4.14687238 C13.45837,4.14687238 13.6724197,4.36092209 13.6724197,4.62494647 C13.6724197,4.88897085 13.45837,5.10302056 13.1943456,5.10302056 Z" id="Shape"></path>
                <path d="M13.4023875,5.10302056 C13.1383631,5.10302056 12.9243134,4.88897085 12.9243134,4.62494647 L12.9243134,1.31029948 C12.9243134,1.0462751 13.1383631,0.83222539 13.4023875,0.83222539 C13.6664119,0.83222539 13.8804616,1.0462751 13.8804616,1.31029948 L13.8804616,4.62494647 C13.8804616,4.88897085 13.6664278,5.10302056 13.4023875,5.10302056 Z" id="Shape"></path>
            </g>
        </g>
    </g>
</svg>