<?xml version="1.0" encoding="UTF-8"?>
<svg width="14px" height="14px" viewBox="0 0 14 14" version="1.1" xmlns="http://www.w3.org/2000/svg" xmlns:xlink="http://www.w3.org/1999/xlink">
    <!-- Generator: Sketch 46.2 (44496) - http://www.bohemiancoding.com/sketch -->
    <title>Group 12 Copy 3</title>
    <desc>Created with Sketch.</desc>
    <defs></defs>
    <g id="H5统一edit图片编辑交互-180108" stroke="none" stroke-width="1" fill="none" fill-rule="evenodd">
        <g id="standard-photo-print" transform="translate(-176.000000, -328.000000)" stroke="#FFFFFF" fill-rule="nonzero">
            <g id="Group-12-Copy-3" transform="translate(176.000000, 328.000000)">
                <path d="M7,0.9 C3.63106303,0.9 0.9,3.63106303 0.9,7 C0.9,10.368937 3.63106303,13.1 7,13.1 C10.368937,13.1 13.1,10.368937 13.1,7 C13.1,3.63106303 10.368937,0.9 7,0.9 Z" id="ellipse-2-2" stroke-width="1.8"></path>
                <path d="M6.60201567,9.51868234 L6.60201567,7.39798433 L4.48131766,7.39798433 C4.26151698,7.39798433 4.08333333,7.21980067 4.08333333,7 C4.08333333,6.78019933 4.26151698,6.60201567 4.48131766,6.60201567 L6.60201567,6.60201567 L6.60201567,4.48131766 C6.60201567,4.26151699 6.78019932,4.08333333 7,4.08333333 C7.21980067,4.08333333 7.39798433,4.26151699 7.39798433,4.48131766 L7.39798433,6.60201567 L9.51868234,6.60201567 C9.73848301,6.60201568 9.91666665,6.78019933 9.91666665,7 C9.91666665,7.21980067 9.73848301,7.39798432 9.51868234,7.39798433 L7.39798433,7.39798433 L7.39798433,9.51868234 C7.39798433,9.73848301 7.21980067,9.91666667 7,9.91666667 C6.78019932,9.91666667 6.60201567,9.73848301 6.60201567,9.51868234 Z" id="Union_1" stroke-width="0.8" fill="#FFFFFF"></path>
            </g>
        </g>
    </g>
</svg>