<?xml version="1.0" encoding="UTF-8"?>
<svg width="27px" height="27px" viewBox="0 0 27 27" version="1.1" xmlns="http://www.w3.org/2000/svg" xmlns:xlink="http://www.w3.org/1999/xlink">
    <!-- Generator: Sketch 43.2 (39069) - http://www.bohemiancoding.com/sketch -->
    <title>Group 6</title>
    <desc>Created with Sketch.</desc>
    <defs></defs>
    <g id="Page-1" stroke="none" stroke-width="1" fill="none" fill-rule="evenodd">
        <g id="click&amp;hover" transform="translate(-611.000000, -275.000000)">
            <g id="Group-6" transform="translate(611.000000, 275.000000)">
                <rect id="Rectangle-4" fill="#3A3A3A" x="0" y="0" width="27" height="27" rx="3"></rect>
                <g id="交互" transform="translate(14.000000, 13.169492) scale(-1, 1) translate(-14.000000, -13.169492) translate(4.000000, 3.000000)" fill-rule="nonzero" fill="#FFFFFF">
                    <path d="M2.87201536,7.1728152 L6.68218604,7.1728152 C7.76173441,7.1728152 8.58727137,6.39641732 8.58727137,5.38112781 L8.58727137,1.797753 C8.58727137,0.782463468 7.76173438,0.00606561072 6.68218604,0.00606561072 L2.87201536,0.00606561072 C1.79246699,0.00606561072 0.966930029,0.782463489 0.966930029,1.797753 L0.966930029,5.38112781 C0.966930029,6.39641735 1.85596985,7.1728152 2.87201536,7.1728152 Z M2.23698692,1.797753 C2.23698692,1.43941552 2.49099831,1.20052388 2.87201536,1.20052388 L6.68218604,1.20052388 C7.06320311,1.20052388 7.31721447,1.43941554 7.3172145,1.797753 L7.3172145,5.38112781 C7.3172145,5.7394653 7.06320311,5.97835693 6.68218604,5.97835693 L2.87201536,5.97835693 C2.49099828,5.97835693 2.23698692,5.73946528 2.23698692,5.38112781 L2.23698692,1.797753 L2.23698692,1.797753 Z M17.2236582,13.1451065 L12.6514534,13.1451065 C11.8259164,13.1451065 11.1273852,13.8020586 11.1273852,14.5784565 L11.1273852,18.8785062 C11.1273852,19.6549041 11.8259164,20.3118561 12.6514534,20.3118561 L17.2236582,20.3118561 C18.0491952,20.3118561 18.7477265,19.6549041 18.7477265,18.8785062 L18.7477265,14.5784565 C18.7477265,13.8020586 18.0491952,13.1451065 17.2236582,13.1451065 Z M16.5251269,9.32284008 L18.1126981,11.8909254 L19.7002692,9.32284008 L18.6842237,9.32284008 C18.2397037,5.08251323 14.4295331,1.797753 9.85732826,1.797753 L9.85732826,2.99221127 C13.7310018,2.99221127 16.9696469,5.7991882 17.4141668,9.32284008 L16.5251269,9.32284008 Z M2.30048976,11.0548046 L3.1895296,11.0548046 L1.60195849,8.4867193 L0.0143873533,11.0548046 L1.03043289,11.0548046 C1.4749528,15.2354085 5.28512348,18.5201687 9.85732826,18.5201687 L9.85732826,17.3257105 C5.98365475,17.3257105 2.74500967,14.5784565 2.30048976,11.0548046 Z" id="Shape"></path>
                </g>
            </g>
        </g>
    </g>
</svg>