<?xml version="1.0" encoding="UTF-8"?>
<svg width="14px" height="14px" viewBox="0 0 14 14" version="1.1" xmlns="http://www.w3.org/2000/svg" xmlns:xlink="http://www.w3.org/1999/xlink">
    <!-- Generator: Sketch 46.2 (44496) - http://www.bohemiancoding.com/sketch -->
    <title>Edit Copy 2</title>
    <desc>Created with Sketch.</desc>
    <defs></defs>
    <g id="H5统一edit图片编辑交互-180108" stroke="none" stroke-width="1" fill="none" fill-rule="evenodd">
        <g id="standard-photo-print" transform="translate(-122.000000, -328.000000)" fill-rule="nonzero" fill="#FFFFFF">
            <g id="Edit-Copy-2" transform="translate(122.000000, 328.000000)">
                <path d="M3.85329412,0.790222222 C3.85284313,0.693749369 3.77014772,0.615648157 3.668,0.615222222 L2.08682353,0.615222222 C1.98467581,0.615648157 1.9019804,0.693749369 1.90152941,0.790222222 L1.90152941,11.8805556 L9.55294118,11.8805556 L9.55294118,10.0418889 L3.85329412,10.0418889 L3.85329412,0.790222222 Z M4.24611765,4.242 L9.96470588,4.242 L9.96470588,13.4975556 C9.96515685,13.5940284 10.0478523,13.6721296 10.15,13.6725556 L11.7328235,13.6725556 C11.8349712,13.6721296 11.9176667,13.5940284 11.9181176,13.4975556 L11.9181176,2.39866667 L4.24611765,2.39866667 L4.24611765,4.242 Z M0,2.57211111 L0,4.067 C0.000450989922,4.16347285 0.0831463912,4.24157407 0.185294118,4.242 L1.49141176,4.242 L1.49141176,2.39866667 L0.185294118,2.39866667 C0.0837821987,2.39908245 0.00134656141,2.47624627 0,2.57211111 Z M13.636,10.0387778 L12.3298824,10.0387778 L12.3298824,11.8797778 L13.636,11.8797778 C13.6855052,11.8795728 13.7328842,11.8607488 13.7676575,11.8274695 C13.8024308,11.7941902 13.8217327,11.7491981 13.8212941,11.7024444 L13.8212941,10.2145556 C13.821077,10.1684194 13.8014061,10.1242661 13.7666325,10.0918623 C13.7318589,10.0594584 13.6848486,10.0414746 13.636,10.0418889 L13.636,10.0387778 Z" id="path"></path>
            </g>
        </g>
    </g>
</svg>