<?xml version="1.0" encoding="UTF-8"?>
<svg width="17px" height="18px" viewBox="0 0 17 18" version="1.1" xmlns="http://www.w3.org/2000/svg" xmlns:xlink="http://www.w3.org/1999/xlink">
    <!-- Generator: Sketch 46.2 (44496) - http://www.bohemiancoding.com/sketch -->
    <title>Edit</title>
    <desc>Created with Sketch.</desc>
    <defs></defs>
    <g id="Page-1" stroke="none" stroke-width="1" fill="none" fill-rule="evenodd">
        <g id="LMC-2-Copy" transform="translate(-627.000000, -516.000000)" fill="#3A3A3A">
            <g id="Edit" transform="translate(627.000000, 516.000000)">
                <path d="M4.679,1.016 C4.67845237,0.891963475 4.57803652,0.791547631 4.454,0.791 L2.534,0.791 C2.40996348,0.791547631 2.30954763,0.891963475 2.309,1.016 L2.309,15.275 L11.6,15.275 L11.6,12.911 L4.679,12.911 L4.679,1.016 Z M5.156,5.454 L12.1,5.454 L12.1,17.354 C12.1005476,17.4780365 12.2009635,17.5784524 12.325,17.579 L14.247,17.579 C14.3710365,17.5784524 14.4714524,17.4780365 14.472,17.354 L14.472,3.084 L5.156,3.084 L5.156,5.454 Z M0,3.307 L0,5.229 C0.000547630619,5.35303652 0.100963475,5.45345237 0.225,5.454 L1.811,5.454 L1.811,3.084 L0.225,3.084 C0.101735527,3.08453458 0.00163511028,3.18374521 0,3.307 Z M16.558,12.907 L14.972,12.907 L14.972,15.274 L16.558,15.274 C16.6181135,15.2737364 16.6756451,15.2495342 16.7178698,15.2067465 C16.7600945,15.1639588 16.7835326,15.1061118 16.783,15.046 L16.783,13.133 C16.7827364,13.0736821 16.7588503,13.0169136 16.7166252,12.9752515 C16.6744001,12.9335894 16.6173161,12.9104674 16.558,12.911 L16.558,12.907 Z" id="path"></path>
            </g>
        </g>
    </g>
</svg>