<?xml version="1.0" encoding="UTF-8"?>
<svg width="13px" height="12px" viewBox="0 0 13 12" version="1.1" xmlns="http://www.w3.org/2000/svg" xmlns:xlink="http://www.w3.org/1999/xlink">
    <!-- Generator: Sketch 44.1 (41455) - http://www.bohemiancoding.com/sketch -->
    <title>刷新</title>
    <desc>Created with Sketch.</desc>
    <defs></defs>
    <g id="Page-1" stroke="none" stroke-width="1" fill="none" fill-rule="evenodd">
        <g id="LRB-2" transform="translate(-1074.000000, -734.000000)" fill-rule="nonzero" fill="#7B7B7B">
            <g id="Group-7">
                <g id="button-copy-2" transform="translate(1030.000000, 728.000000)">
                    <g id="Group-9" transform="translate(44.000000, 6.000000)">
                        <g id="刷新">
                            <path d="M0.980708291,4.88218792 C1.01580962,4.88218792 1.05120368,4.87751678 1.08685056,4.86818792 L3.10553634,4.3226443 C3.32299693,4.26361074 3.4522784,4.03791946 3.39403787,3.818 C3.33551791,3.59836242 3.11261515,3.46931544 2.89378403,3.52669799 L1.82714534,3.81526174 C2.66026305,2.00565101 4.45957216,0.823677852 6.47470522,0.823677852 C8.94409314,0.823677852 11.0642907,2.59841611 11.5158178,5.04363758 C11.5525691,5.24186577 11.7240307,5.37997315 11.9167155,5.37997315 C11.9414913,5.37997315 11.96652,5.37805369 11.9918414,5.37310067 C12.2133869,5.33165101 12.3598066,5.11667114 12.3184514,4.89289933 C11.7948055,2.0578255 9.33711361,5.68434189e-14 6.47471853,5.68434189e-14 C4.16400512,5.68434189e-14 2.09852201,1.34065772 1.11925077,3.40012081 L0.802992835,2.20853691 C0.744472876,1.98889933 0.521024565,1.85985235 0.302738997,1.9172349 C0.0850122825,1.97626846 -0.0442691914,2.20195973 0.0139713408,2.42187919 L0.586623337,4.57715436 C0.635350051,4.76110067 0.800544524,4.88218792 0.980721597,4.88218792 L0.980708291,4.88218792 Z M12.9795486,9.32420134 L12.4068966,7.16919463 C12.3486561,6.9498255 12.1251945,6.82051007 11.9069222,6.87816107 L9.88823644,7.4237047 C9.67050972,7.48273826 9.54122825,7.70842953 9.59946878,7.92834899 C9.65798874,8.14798658 9.88117093,8.27731544 10.0997226,8.21965101 L11.2390256,7.91131544 C10.470695,9.85216107 8.57366633,11.1722282 6.47470522,11.1722282 C3.99661515,11.1722282 1.8753132,9.39034899 1.43033265,6.93526174 C1.38977584,6.71122148 1.17613408,6.56295302 0.955400205,6.60414765 C0.73357523,6.6450604 0.586876151,6.85948993 0.627166837,7.08324832 C1.14320164,9.92986577 3.60223746,11.995906 6.47471853,11.995906 C8.82489765,11.995906 10.9543562,10.5660134 11.8993112,8.44092617 L12.1908066,9.53751678 C12.2395333,9.72146309 12.4047277,9.84283221 12.5849048,9.84283221 C12.6200061,9.84283221 12.6554002,9.83816107 12.690781,9.82883221 C12.9085077,9.76979866 13.0377892,9.54410738 12.9795486,9.32418792 L12.9795486,9.32420134 Z" id="Shape"></path>
                        </g>
                    </g>
                </g>
            </g>
        </g>
    </g>
</svg>