<?xml version="1.0" encoding="UTF-8"?>
<svg width="16px" height="14px" viewBox="0 0 16 14" version="1.1" xmlns="http://www.w3.org/2000/svg" xmlns:xlink="http://www.w3.org/1999/xlink">
    <!-- Generator: Sketch 44.1 (41455) - http://www.bohemiancoding.com/sketch -->
    <title>right</title>
    <desc>Created with Sketch.</desc>
    <defs></defs>
    <g id="Page-1" stroke="none" stroke-width="1" fill="none" fill-rule="evenodd">
        <g id="lsc-2" transform="translate(-1134.000000, -365.000000)" fill-rule="nonzero" fill="#000000">
            <g id="right" transform="translate(1134.000000, 365.000000)">
                <path d="M5.41647059,13.792625 C5.1538938,13.7955308 4.90088978,13.701067 4.71341176,13.530125 L0.324705882,9.324875 C-0.0258438208,8.94973786 -0.0115871724,8.38817015 0.357608972,8.02882615 C0.726805116,7.66948215 1.3295564,7.63050703 1.74870588,7.938875 L4.96470588,10.072125 C5.05328081,10.1455948 5.17117403,10.1807644 5.28919312,10.1689252 C5.40721222,10.157086 5.51432192,10.0993451 5.584,10.01 L13.2075294,1.26 C13.4254696,0.978336283 13.7904042,0.828504149 14.16113,0.86847782 C14.5318558,0.908451492 14.8502155,1.13196014 14.9930268,1.45252206 C15.1358382,1.77308397 15.0806979,2.14041135 14.8489412,2.412375 L6.23717647,13.405 C6.06000281,13.6214621 5.79191925,13.7573789 5.50023529,13.778625 C5.47434253,13.7906826 5.44525928,13.7955434 5.41647059,13.792625 Z"></path>
            </g>
        </g>
    </g>
</svg>