<?xml version="1.0" encoding="UTF-8"?>
<svg width="10px" height="10px" viewBox="0 0 10 10" version="1.1" xmlns="http://www.w3.org/2000/svg" xmlns:xlink="http://www.w3.org/1999/xlink">
    <!-- Generator: Sketch 46.2 (44496) - http://www.bohemiancoding.com/sketch -->
    <title>delete copy 2</title>
    <desc>Created with Sketch.</desc>
    <defs></defs>
    <g id="H5统一edit图片编辑交互-180108" stroke="none" stroke-width="1" fill="none" fill-rule="evenodd">
        <g id="standard-photo-print" transform="translate(-230.000000, -330.000000)" fill-rule="nonzero" fill="#FFFFFF">
            <g id="delete-copy-2" transform="translate(230.000000, 330.000000)">
                <path d="M5.03928571,3.81642857 L1.50571429,0.282142857 C1.29518278,0.0716113436 0.988326414,-0.0106105739 0.700735025,0.0664493058 C0.413143633,0.143509186 0.188509186,0.368143633 0.111449306,0.655735025 C0.0343894261,0.943326414 0.116611344,1.25018278 0.327142857,1.46071429 L3.86142857,4.99428571 L0.327142857,8.52857143 C0.0018865884,8.85382771 0.0018865884,9.38117229 0.327142857,9.70642857 C0.652399126,10.0316849 1.17974373,10.0316849 1.505,9.70642857 L5.03928571,6.17214286 L8.57285714,9.70571429 C8.78326107,9.91611821 9.08993143,9.99829029 9.37734857,9.92127714 C9.66476564,9.84426393 9.88926393,9.61976564 9.96627714,9.33234857 C10.0432903,9.04493143 9.96111821,8.73826107 9.75071429,8.52785714 L6.21785714,4.99428571 L9.75142857,1.46071429 C10.0766849,1.13545801 10.0766849,0.608113411 9.75142857,0.282857143 C9.42617229,-0.0423991259 8.89882771,-0.0423991259 8.57357143,0.282857143 L5.03928571,3.81642857 Z" id="Delete-2"></path>
            </g>
        </g>
    </g>
</svg>