<svg xmlns="http://www.w3.org/2000/svg" viewBox="-6098.3 -2271.3 12 12">
  <defs>
    <style>
      .cls-1 {
        fill: #7b7b7b;
        fill-rule: evenodd;
      }
    </style>
  </defs>
  <g id="group-31" transform="translate(-6098.3 -2271.3)">
    <path id="path" class="cls-1" d="M6,12a6,6,0,1,1,6-6,6.007,6.007,0,0,1-6,6H6M6,.706A5.294,5.294,0,1,0,11.3,6,5.3,5.3,0,0,0,6,.706H6m0,0Z"/>
    <path id="path-2" data-name="path" class="cls-1" d="M379.139,295.814a.439.439,0,0,1-.439-.439v-4.436a.439.439,0,1,1,.878,0v4.438a.438.438,0,0,1-.439.438h0m0,0Z" transform="translate(-373.139 -286.234)"/>
    <path id="path-3" data-name="path" class="cls-1" d="M368.4,157.6h0a.6.6,0,0,1-.6-.6h0a.6.6,0,0,1,.6-.6h0a.6.6,0,0,1,.6.6h0a.6.6,0,0,1-.6.6h0m0,0Z" transform="translate(-362.399 -154.103)"/>
  </g>
</svg>
