<?xml version="1.0" encoding="UTF-8"?>
<svg width="22px" height="19px" viewBox="0 0 22 19" version="1.1" xmlns="http://www.w3.org/2000/svg" xmlns:xlink="http://www.w3.org/1999/xlink">
    <!-- Generator: Sketch 46.2 (44496) - http://www.bohemiancoding.com/sketch -->
    <title>upload-icon copy</title>
    <desc>Created with Sketch.</desc>
    <defs></defs>
    <g id="2018，1.9" stroke="none" stroke-width="1" fill="none" fill-rule="evenodd">
        <g id="upload-images" transform="translate(-870.000000, -335.000000)" stroke="#FFFFFF" stroke-width="0.3" fill="#FFFFFF" fill-rule="nonzero">
            <g id="Group-2" transform="translate(813.000000, 253.000000)">
                <g id="Group-3" transform="translate(0.000000, 70.000000)">
                    <g id="upload-icon-copy" transform="translate(58.000000, 13.000000)">
                        <path d="M10.5,17 C10.8236994,17 11.0934489,16.7358767 11.0934489,16.4189288 L11.0934489,9.94790902 L13.0086705,11.8231842 C13.1165703,11.9288335 13.27842,11.9816581 13.4132948,11.9816581 C13.5481696,11.9816581 13.7100193,11.9288335 13.8179191,11.8231842 C14.0606936,11.5854732 14.0606936,11.242113 13.8179191,11.0308144 L10.9046243,8.1782832 C10.6618497,7.94057227 10.3111753,7.94057227 10.0953757,8.1782832 L7.18208092,11.0308144 C6.93930636,11.2685253 6.93930636,11.6118855 7.18208092,11.8231842 C7.28998073,11.9288335 7.45183044,11.9816581 7.5867052,11.9816581 C7.72157996,11.9816581 7.88342967,11.9288335 7.99132948,11.8231842 L9.90655106,9.94790902 L9.90655106,16.4189288 C9.90655106,16.7358767 10.1763006,17 10.5,17 Z" id="Shape"></path>
                        <path d="M15.9051186,5.2260274 C15.6554307,2.27739726 13.0836454,0 9.98751561,0 C6.71660424,0 4.04494382,2.56506849 4.04494382,5.70547945 C4.04494382,5.96917808 4.06991261,6.23287671 4.0948814,6.47260274 C4.04494382,6.47260274 3.97003745,6.47260274 3.89513109,6.47260274 C1.74781523,6.47260274 0,8.17465753 0,10.2363014 C0,12.2979452 1.74781523,14 3.92009988,14 L7.29088639,14 C7.59051186,14 7.84019975,13.760274 7.84019975,13.4726027 C7.84019975,13.1849315 7.59051186,12.9452055 7.29088639,12.9452055 L3.92009988,12.9452055 C2.34706617,12.9452055 1.07365793,11.7226027 1.07365793,10.2123288 C1.07365793,8.70205479 2.34706617,7.47945205 3.92009988,7.47945205 C4.16978777,7.47945205 4.39450687,7.50342466 4.64419476,7.57534247 C4.84394507,7.62328767 5.01872659,7.57534247 5.16853933,7.45547945 C5.31835206,7.33561644 5.36828964,7.11986301 5.29338327,6.92808219 C5.16853933,6.52054795 5.09363296,6.06506849 5.09363296,5.65753425 C5.09363296,3.09246575 7.29088639,0.982876712 9.96254682,0.982876712 C12.6342072,0.982876712 14.8314607,3.09246575 14.8314607,5.65753425 C14.8314607,5.94520548 15.0811486,6.18493151 15.380774,6.18493151 C17.3283396,6.18493151 18.9013733,7.69520548 18.9013733,9.56506849 C18.9013733,11.4349315 17.3283396,12.9452055 15.380774,12.9452055 L12.7091136,12.9452055 C12.4094881,12.9452055 12.1598002,13.1849315 12.1598002,13.4726027 C12.1598002,13.760274 12.4094881,14 12.7091136,14 L15.4057428,14 C17.9525593,14 20,12.0342466 20,9.5890411 C19.9750312,7.33561644 18.2022472,5.46575342 15.9051186,5.2260274 Z" id="Shape"></path>
                    </g>
                </g>
            </g>
        </g>
    </g>
</svg>