<?xml version="1.0" encoding="UTF-8"?>
<svg width="26px" height="26px" viewBox="0 0 26 26" version="1.1" xmlns="http://www.w3.org/2000/svg" xmlns:xlink="http://www.w3.org/1999/xlink">
    <!-- Generator: Sketch 43 (38999) - http://www.bohemiancoding.com/sketch -->
    <title>Rotate</title>
    <desc>Created with Sketch.</desc>
    <defs></defs>
    <g id="Page-1" stroke="none" stroke-width="1" fill="none" fill-rule="evenodd">
        <g id="Artboard" transform="translate(-1619.000000, -477.000000)">
            <g id="Rotate" transform="translate(1618.000000, 476.000000)">
                <rect id="Rectangle" x="0" y="0" width="28" height="28"></rect>
                <circle id="Oval" fill="#3A3A3A" cx="14" cy="14" r="13"></circle>
                <path d="M20.3351713,16.3676278 C19.3440706,19.104225 16.6807136,20.8714971 13.7740533,20.7212616 C10.867393,20.571026 8.40043045,18.5385849 7.69674839,15.7143901 C6.99306633,12.8901953 8.21801452,9.93787031 10.7143798,8.44140607 C13.2107451,6.94494184 16.3919366,7.25597449 18.5511713,9.20762778 L18.5511713,9.20762778 L19.8421713,7.91362778 C20.0721713,7.68362778 20.2581713,7.76062778 20.2571713,8.08662778 L20.2441713,11.3606278 C20.2398641,11.6857795 19.977323,11.9483206 19.6521713,11.9526278 L16.3961713,11.9586278 C16.0701713,11.9586278 15.9961713,11.7726278 16.2231713,11.5426278 L17.5501713,10.2146278 C15.8387436,8.70660476 13.3438062,8.49138865 11.399414,9.68405652 C9.45502168,10.8767244 8.5160857,13.1982389 9.08465955,15.4072753 C9.65323339,17.6163117 11.5962932,19.1960425 13.8748756,19.301778 C16.1534581,19.4075136 18.2344647,18.0145161 19.0051713,15.8676278 L19.0111713,15.8676278 C19.0836141,15.6092983 19.2956697,15.4139881 19.5590732,15.3629918 C19.8224768,15.3119955 20.0921036,15.4140496 20.2557258,15.6266756 C20.4193481,15.8393017 20.4489349,16.1260738 20.3321713,16.3676278 L20.3351713,16.3676278 Z" id="path" fill="#FFFFFF" fill-rule="nonzero"></path>
            </g>
        </g>
    </g>
</svg>