<?xml version="1.0" encoding="UTF-8"?>
<svg width="20px" height="20px" viewBox="0 0 20 20" version="1.1" xmlns="http://www.w3.org/2000/svg" xmlns:xlink="http://www.w3.org/1999/xlink">
    <!-- Generator: Sketch 46.2 (44496) - http://www.bohemiancoding.com/sketch -->
    <title>facebook copy 2</title>
    <desc>Created with Sketch.</desc>
    <defs></defs>
    <g id="2018，1.9" stroke="none" stroke-width="1" fill="none" fill-rule="evenodd">
        <g id="upload-images" transform="translate(-871.000000, -489.000000)" fill-rule="nonzero" fill="#485992">
            <g id="facebook" transform="translate(871.000000, 489.000000)">
                <g id="facebook-copy-2">
                    <path d="M10.4672355,20 L13.5855137,20 L13.5855137,20 C13.0565399,20 11.7996716,20 10.4672355,20 L10.4672355,20 Z M4.95079457,0.0122222222 C4.5121234,0.0134013412 4.07428843,0.0505630311 3.64169558,0.123333333 C3.20883368,0.195348165 2.78879072,0.330099676 2.3948288,0.523333333 C1.99823083,0.732773003 1.63586652,1.00141159 1.32021189,1.32 C1.00201447,1.63598682 0.733385464,1.9982219 0.523417339,2.39444444 C0.330721793,2.78857235 0.195975789,3.20846333 0.123353131,3.64111111 C0.0505711475,4.07363453 0.0134034924,4.51139923 0.0122241841,4.95 C0.0122241841,5.05111111 0.0122241841,5.14555556 0.0122241841,5.29222222 L0,14.0833333 C0,14.1944444 0,14.3155556 0,14.4488889 C0,14.7677778 0.00555644733,14.8933333 0.00777902626,15.0488889 C0.00895833453,15.4874897 0.0461259896,15.9252544 0.118907973,16.3577778 C0.155580525,16.5511111 0.196698236,16.7366667 0.25004013,16.9133333 C0.31854996,17.1497463 0.408955631,17.379258 0.52008347,17.5988889 C0.729556759,17.9954232 0.998238464,18.3577294 1.31687802,18.6733333 C1.63291556,18.9914797 1.99520878,19.2600656 2.39149493,19.47 C2.7856861,19.6626646 3.20564448,19.797389 3.63836171,19.87 C4.07095456,19.9427703 4.50878953,19.979932 4.9474607,19.9811111 L5.54755702,19.9888889 L6.28211935,19.9888889 L10.4661242,19.9888889 L10.4661242,12.2433333 L7.95127613,12.2433333 L7.95127613,9.34222222 L10.446121,9.34222222 L10.446121,6.64333333 C10.4364155,5.67692914 10.8241723,4.74896586 11.5186095,4.07669884 C12.2130468,3.40443182 13.1531901,3.04688873 14.1189327,3.08777778 L16.7993629,3.14666667 L16.7993629,5.93 L14.753479,5.93 C14.130765,6.01292359 13.6693715,6.54977505 13.6810846,7.17777778 L13.6810846,9.34222222 L16.7015694,9.34222222 L16.2715004,12.2444444 L13.5855137,12.2444444 L13.5855137,20 L13.7144233,20 L14.4489856,20 L14.9546223,20 C14.9857385,20 15.0168546,20 15.0501932,20 C15.4888644,19.9988209 15.9266994,19.9616592 16.3592922,19.8888889 C16.7921541,19.8168741 17.2121971,19.6821225 17.606159,19.4888889 C18.4011844,19.0637858 19.0523991,18.4126756 19.4775705,17.6177778 C19.670266,17.2236499 19.805012,16.8037589 19.8776347,16.3711111 C19.9504167,15.9385877 19.9875843,15.500823 19.9887636,15.0622222 C19.9887636,14.9122222 19.9887636,14.7811111 19.9965427,14.4622222 C20.0043217,14.1433333 19.9965427,13.9066667 19.9965427,13.7277778 L19.9965427,6.07444444 C19.9965427,5.92555556 19.9965427,5.75 19.9965427,5.55111111 C19.9965427,5.23222222 19.9909862,5.10666667 19.9887636,4.95111111 C19.9875793,4.51251056 19.9504117,4.07474626 19.8776347,3.64222222 C19.8056083,3.20942979 19.6708351,2.78945425 19.4775705,2.39555556 C19.0522235,1.60106882 18.4010258,0.950362279 17.606159,0.525555556 C17.2119678,0.332890936 16.7920095,0.198166558 16.3592922,0.125555556 C15.9266994,0.0527852533 15.4888644,0.0156235634 15.0501932,0.0144444444 L14.4467631,0 L13.7099781,0 L6.28434193,0 L5.54977959,0 L4.95079457,0.0122222222 Z" id="facebook"></path>
                </g>
            </g>
        </g>
    </g>
</svg>