<?xml version="1.0" encoding="UTF-8"?>
<svg width="20px" height="20px" viewBox="0 0 20 20" version="1.1" xmlns="http://www.w3.org/2000/svg" xmlns:xlink="http://www.w3.org/1999/xlink">
    <!-- Generator: Sketch 46.2 (44496) - http://www.bohemiancoding.com/sketch -->
    <title>Instagram Copy 4</title>
    <desc>Created with Sketch.</desc>
    <defs>
        <radialGradient cx="6.5%" cy="97.8%" fx="6.5%" fy="97.8%" r="127%" id="radialGradient-1">
            <stop stop-color="#FA8F21" offset="9%"></stop>
            <stop stop-color="#D82D7E" offset="78%"></stop>
        </radialGradient>
        <linearGradient x1="50%" y1="47%" x2="50%" y2="0%" id="linearGradient-2">
            <stop stop-color="#8C3AAA" stop-opacity="0" offset="0%"></stop>
            <stop stop-color="#8C3AAA" offset="100%"></stop>
        </linearGradient>
    </defs>
    <g id="2018，1.9" stroke="none" stroke-width="1" fill="none" fill-rule="evenodd">
        <g id="upload-images" transform="translate(-871.000000, -553.000000)" fill-rule="nonzero">
            <g id="Instagram-Copy-4" transform="translate(871.000000, 553.000000)">
                <path d="M5.07111111,19.9288889 C4.2974034,19.9201014 3.53099918,19.7780216 2.80555556,19.5088889 C2.27564052,19.313197 1.79617185,19.0015234 1.40222222,18.5966667 C0.996740925,18.2036648 0.684955914,17.7244046 0.49,17.1944444 C0.221246365,16.4689338 0.0795427661,15.7025316 0.0711111111,14.9288889 C0.0122222222,13.6444444 0,13.2588889 0,10 C0,6.74111111 0.0133333333,6.35777778 0.0711111111,5.07111111 C0.0804181654,4.29791515 0.222096372,3.53202607 0.49,2.80666667 C0.686128482,2.27697082 0.997743055,1.79759298 1.40222222,1.40333333 C1.79552797,0.997429226 2.27516162,0.685268608 2.80555556,0.49 C3.53106616,0.221246365 4.29746839,0.0795427661 5.07111111,0.0711111111 C6.35666667,0.0122222222 6.74333333,0 10,0 C13.2566667,0 13.6422222,0.0133333333 14.9288889,0.0711111111 C15.7025233,0.0806473891 16.4688008,0.222703745 17.1944444,0.491111111 C17.7245462,0.686430795 18.2040925,0.99815492 18.5977778,1.40333333 C19.0029562,1.79701857 19.3146803,2.27656494 19.51,2.80666667 C19.7791327,3.53211029 19.9212125,4.29851451 19.93,5.07222222 C19.9877778,6.35777778 20,6.74333333 20,10 C20,13.2566667 19.9877778,13.6422222 19.9288889,14.9288889 C19.9194841,15.7025362 19.7774237,16.4688359 19.5088889,17.1944444 C19.0983375,18.2581938 18.2572796,19.0988482 17.1933333,19.5088889 C16.4678897,19.7780216 15.7014855,19.9201014 14.9277778,19.9288889 C13.6433333,19.9877778 13.2566667,20 10,20 C6.74333333,20 6.35777778,19.9888889 5.07222222,19.9288889" id="Path_47" fill="url(#radialGradient-1)"></path>
                <path d="M5.07111111,19.9288889 C4.2974034,19.9201014 3.53099918,19.7780216 2.80555556,19.5088889 C2.27564052,19.313197 1.79617185,19.0015234 1.40222222,18.5966667 C0.996740925,18.2036648 0.684955914,17.7244046 0.49,17.1944444 C0.221246365,16.4689338 0.0795427661,15.7025316 0.0711111111,14.9288889 C0.0122222222,13.6444444 0,13.2588889 0,10 C0,6.74111111 0.0133333333,6.35777778 0.0711111111,5.07111111 C0.0804181654,4.29791515 0.222096372,3.53202607 0.49,2.80666667 C0.686128482,2.27697082 0.997743055,1.79759298 1.40222222,1.40333333 C1.79552797,0.997429226 2.27516162,0.685268608 2.80555556,0.49 C3.53106616,0.221246365 4.29746839,0.0795427661 5.07111111,0.0711111111 C6.35666667,0.0122222222 6.74333333,0 10,0 C13.2566667,0 13.6422222,0.0133333333 14.9288889,0.0711111111 C15.7025233,0.0806473891 16.4688008,0.222703745 17.1944444,0.491111111 C17.7245462,0.686430795 18.2040925,0.99815492 18.5977778,1.40333333 C19.0029562,1.79701857 19.3146803,2.27656494 19.51,2.80666667 C19.7791327,3.53211029 19.9212125,4.29851451 19.93,5.07222222 C19.9877778,6.35777778 20,6.74333333 20,10 C20,13.2566667 19.9877778,13.6422222 19.9288889,14.9288889 C19.9194841,15.7025362 19.7774237,16.4688359 19.5088889,17.1944444 C19.0983375,18.2581938 18.2572796,19.0988482 17.1933333,19.5088889 C16.4678897,19.7780216 15.7014855,19.9201014 14.9277778,19.9288889 C13.6433333,19.9877778 13.2566667,20 10,20 C6.74333333,20 6.35777778,19.9888889 5.07222222,19.9288889" id="Path_48" fill="url(#linearGradient-2)"></path>
                <path d="M7.56777778,10.0455556 C7.56824927,8.8629687 8.40400856,7.84539032 9.56395759,7.61510762 C10.7239066,7.38482493 11.8849992,8.00597173 12.3371838,9.09869353 C12.7893685,10.1914153 12.4067116,11.4513888 11.4232221,12.108093 C10.4397327,12.7647972 9.12931285,12.6353398 8.29333333,11.7988889 C7.8285116,11.333805 7.56751562,10.7030981 7.56777778,10.0455556 M6.22777778,10.0455556 C6.22743214,11.8674692 7.51413622,13.4359071 9.3009798,13.791659 C11.0878234,14.1474109 12.8771344,13.1913927 13.5746232,11.5082769 C14.2721119,9.82516104 13.6835136,7.88372937 12.1687977,6.87130411 C10.6540817,5.85887885 8.635127,6.05744089 7.34666667,7.34555556 C6.63044199,8.06158809 6.22796991,9.03279678 6.22777778,10.0455556 M13.1233333,6.07555556 C13.1233333,6.56647533 13.5213024,6.96444444 14.0122222,6.96444444 C14.503142,6.96444444 14.9011111,6.56647533 14.9011111,6.07555556 C14.9011111,5.58463578 14.503142,5.18666667 14.0122222,5.18666667 L14.0122222,5.18666667 C13.7764742,5.18666667 13.5503819,5.28031719 13.3836829,5.44701619 C13.2169839,5.6137152 13.1233333,5.83980756 13.1233333,6.07555556 M7.04111111,16.0988889 C6.56948973,16.0935591 6.10230251,16.0071125 5.66,15.8433333 C5.01113069,15.5934642 4.49815755,15.0808947 4.24777778,14.4322222 C4.08399857,13.9899197 3.99755202,13.5227325 3.99222222,13.0511111 C3.95555556,12.2666667 3.94888889,12.0311111 3.94888889,10.0511111 C3.94888889,8.07111111 3.95666667,7.82888889 3.99222222,7.05111111 C3.99727008,6.57610998 4.08409486,6.1055272 4.24888889,5.66 C4.49889968,5.01147454 5.01147454,4.49889968 5.66,4.24888889 C6.10230251,4.08510968 6.56948973,3.99866313 7.04111111,3.99333333 C7.82555556,3.95666667 8.06111111,3.95 10.0411111,3.95 C12.0211111,3.95 12.2633333,3.95777778 13.0411111,3.99333333 C13.5126811,3.99918947 13.9797794,4.08561958 14.4222222,4.24888889 C15.0741188,4.49680629 15.5902162,5.00967307 15.8422222,5.66 C16.0060014,6.10230251 16.092448,6.56948973 16.0977778,7.04111111 C16.1344444,7.82555556 16.1411111,8.06111111 16.1411111,10.0411111 C16.1411111,12.0211111 16.1344444,12.2633333 16.0977778,13.0411111 C16.092162,13.5127046 16.0057244,13.9798435 15.8422222,14.4222222 C15.5918424,15.0708947 15.0788693,15.5834642 14.43,15.8333333 C13.9876975,15.9971125 13.5205103,16.0835591 13.0488889,16.0888889 C12.2644444,16.1255556 12.0288889,16.1322222 10.0488889,16.1322222 C8.06888889,16.1322222 7.82666667,16.1255556 7.04888889,16.0888889 M6.98777778,2.64444444 C6.36724979,2.66036746 5.75399499,2.78211657 5.17444444,3.00444444 C4.17836367,3.39078132 3.39078132,4.17836367 3.00444444,5.17444444 C2.78795732,5.75241718 2.67111368,6.3629346 2.65888889,6.98 C2.62222222,7.77333333 2.61333333,8.02666667 2.61333333,10.0466667 C2.61333333,12.0666667 2.62222222,12.32 2.65888889,13.1133333 C2.67134284,13.7296525 2.78818317,14.3394012 3.00444444,14.9166667 C3.39073427,15.9159726 4.18069408,16.7059324 5.18,17.0922222 C5.75799021,17.3086471 6.3684969,17.4254887 6.98555556,17.4377778 C7.77888889,17.4744444 8.03222222,17.4822222 10.0522222,17.4822222 C12.0722222,17.4822222 12.3255556,17.4733333 13.1188889,17.4377778 C13.7359565,17.4255744 14.3464775,17.3087301 14.9244444,17.0922222 C15.9237504,16.7059324 16.7137102,15.9159726 17.1,14.9166667 C17.313547,14.339693 17.427757,13.7306982 17.4377778,13.1155556 C17.4744444,12.3222222 17.4822222,12.0688889 17.4822222,10.0488889 C17.4822222,8.02888889 17.4733333,7.77555556 17.4377778,6.98222222 C17.4255959,6.36515232 17.3087509,5.75462774 17.0922222,5.17666667 C16.7052843,4.1789258 15.9159138,3.39036193 14.9177778,3.00444444 C14.3412464,2.78622283 13.7318415,2.66749783 13.1155556,2.65333333 C12.3222222,2.61666667 12.0688889,2.60777778 10.05,2.60777778 C8.03111111,2.60777778 7.77666667,2.61666667 6.98333333,2.65333333" id="Path_49" fill="#FFFFFF"></path>
            </g>
        </g>
    </g>
</svg>