<?xml version="1.0" encoding="UTF-8"?>
<svg width="86px" height="30px" viewBox="0 0 86 30" version="1.1" xmlns="http://www.w3.org/2000/svg" xmlns:xlink="http://www.w3.org/1999/xlink">
    <!-- Generator: Sketch 43.2 (39069) - http://www.bohemiancoding.com/sketch -->
    <title>Group 3 Copy</title>
    <desc>Created with Sketch.</desc>
    <defs></defs>
    <g id="Page-1" stroke="none" stroke-width="1" fill="none" fill-rule="evenodd">
        <g id="Group-3-Copy" fill="#000000">
            <path d="M0.981152325,29.0025389 L4.51728507,29.0025389 L4.51728507,29.7695311 L0,29.7695311 L0,22.5179687 L0.981152325,22.5179687 L0.981152325,29.0025389 Z M6.53437488,29.7695311 L5.55322255,29.7695311 L5.55322255,24.380664 L6.53437488,24.380664 L6.53437488,29.7695311 Z M6.53437488,23.0010742 L5.55322255,23.0010742 L5.55322255,22 L6.53437488,22 L6.53437488,23.0010742 Z M9.40810529,23.0807617 L9.40810529,24.380664 L10.4291014,24.380664 L10.4291014,25.1078124 L9.40810529,25.1078124 L9.40810529,28.3799803 C9.40810529,28.6323254 9.46039969,28.8099603 9.56499006,28.9128905 C9.66958042,29.0158207 9.80820208,29.067285 9.98085919,29.067285 C10.0373048,29.067285 10.1003901,29.0598144 10.170117,29.0448729 C10.2398439,29.0299314 10.2979488,29.0141601 10.3444334,28.9975585 L10.4789061,29.6699217 C10.4058588,29.7296877 10.2979497,29.7786618 10.1551756,29.8168456 C10.0124014,29.8550293 9.87128958,29.8741209 9.73183576,29.8741209 C9.33339627,29.8741209 9.0163096,29.7537608 8.78056624,29.513037 C8.54482288,29.2723131 8.42695297,28.8946314 8.42695297,28.3799803 L8.42695297,25.1078124 L7.57031236,25.1078124 L7.57031236,24.380664 L8.42695297,24.380664 L8.42695297,23.0807617 L9.40810529,23.0807617 Z M12.8446287,23.0807617 L12.8446287,24.380664 L13.8656247,24.380664 L13.8656247,25.1078124 L12.8446287,25.1078124 L12.8446287,28.3799803 C12.8446287,28.6323254 12.8969231,28.8099603 13.0015134,28.9128905 C13.1061038,29.0158207 13.2447255,29.067285 13.4173826,29.067285 C13.4738282,29.067285 13.5369135,29.0598144 13.6066404,29.0448729 C13.6763673,29.0299314 13.7344722,29.0141601 13.7809568,28.9975585 L13.9154294,29.6699217 C13.8423822,29.7296877 13.7344731,29.7786618 13.591699,29.8168456 C13.4489248,29.8550293 13.3078129,29.8741209 13.1683591,29.8741209 C12.7699196,29.8741209 12.452833,29.7537608 12.2170896,29.513037 C11.9813463,29.2723131 11.8634763,28.8946314 11.8634763,28.3799803 L11.8634763,25.1078124 L11.0068357,25.1078124 L11.0068357,24.380664 L11.8634763,24.380664 L11.8634763,23.0807617 L12.8446287,23.0807617 Z M15.9773435,29.7695311 L14.9961911,29.7695311 L14.9961911,22 L15.9773435,22 L15.9773435,29.7695311 Z M19.7176754,29.8741209 C18.9440387,29.8741209 18.340578,29.6267601 17.9072751,29.1320311 C17.4739721,28.6373021 17.2573239,27.9865274 17.2573239,27.1796874 L17.2573239,26.9605468 C17.2573239,26.1869101 17.4806127,25.5469263 17.9271969,25.0405761 C18.3737812,24.5342259 18.9191371,24.2810546 19.5632809,24.2810546 C20.2837923,24.2810546 20.8241677,24.5051735 21.1844234,24.9534179 C21.5446791,25.4016623 21.7248043,25.9976525 21.7248043,26.7414062 L21.7248043,27.2593749 L18.27832,27.2593749 L18.2633786,27.2842772 C18.2633786,27.8254909 18.3829086,28.2645978 18.6219723,28.6016112 C18.861036,28.9386246 19.2262667,29.1071288 19.7176754,29.1071288 C20.0497083,29.1071288 20.3410628,29.0598148 20.5917477,28.9651854 C20.8424325,28.870556 21.0574206,28.7402351 21.2367184,28.5742186 L21.6202144,29.2117186 C21.4276354,29.397657 21.173634,29.5545402 20.8582027,29.6823729 C20.5427715,29.8102056 20.1625995,29.8741209 19.7176754,29.8741209 Z M19.5632809,25.0530273 C19.221287,25.0530273 18.9382332,25.1850084 18.714111,25.4489745 C18.4899888,25.7129407 18.3530272,26.0507791 18.3032223,26.4624999 L18.3131833,26.4874023 L20.743652,26.4874023 L20.743652,26.4077148 C20.743652,26.0159159 20.6473639,25.6921887 20.4547848,25.4365234 C20.2622057,25.180858 19.9650407,25.0530273 19.5632809,25.0530273 Z M29.3598627,27.9416991 C29.3598627,27.6129865 29.2419928,27.3374034 29.0062495,27.1149413 C28.7705061,26.8924793 28.3554712,26.7032233 27.7611323,26.5471679 C27.0240192,26.3645498 26.4487809,26.0956072 26.0353999,25.740332 C25.6220189,25.3850568 25.4153316,24.9384792 25.4153316,24.4005859 C25.4153316,23.8328096 25.6377903,23.3596698 26.0827144,22.9811523 C26.5276384,22.6026348 27.105367,22.4133789 27.8159174,22.4133789 C28.5795931,22.4133789 29.1880343,22.6300271 29.6412592,23.0633301 C30.0944841,23.496633 30.3144526,24.0021455 30.3011713,24.5798828 L30.2862299,24.6097656 L29.3499018,24.6097656 C29.3499018,24.1980448 29.2062997,23.8577162 28.9190913,23.5887695 C28.6318828,23.3198228 28.2641619,23.1853515 27.8159174,23.1853515 C27.357712,23.1853515 27.0065925,23.2965809 26.7625483,23.5190429 C26.5185041,23.741505 26.3964839,24.0303693 26.3964839,24.3856445 C26.3964839,24.7010757 26.5301251,24.9642079 26.7974116,25.1750488 C27.0646981,25.3858897 27.4988246,25.5709952 28.0998042,25.730371 C28.8302766,25.9196298 29.3864233,26.1985332 29.7682612,26.5670898 C30.150099,26.9356463 30.3410151,27.3905245 30.3410151,27.9317382 C30.3410151,28.5161161 30.1110857,28.9859356 29.6512201,29.3412108 C29.1913546,29.696486 28.5912141,29.8741209 27.8507807,29.8741209 C27.1501913,29.8741209 26.5317893,29.6782245 25.9955562,29.2864256 C25.459323,28.8946268 25.1995112,28.3700227 25.2161128,27.7125975 L25.2260737,27.6827147 L26.1624019,27.6827147 C26.1624019,28.1375998 26.3350564,28.4887193 26.6803706,28.7360839 C27.0256848,28.9834484 27.4158176,29.1071288 27.8507807,29.1071288 C28.3156268,29.1071288 28.6833477,29.00254 28.9539545,28.7933592 C29.2245614,28.5841785 29.3598627,28.3002946 29.3598627,27.9416991 Z M33.7376947,29.1071288 C34.0398446,29.1071288 34.3038068,29.0066903 34.5295892,28.8058104 C34.7553716,28.6049305 34.8682611,28.3583998 34.8682611,28.0662108 L35.7547845,28.0662108 L35.7697259,28.0960936 C35.7830072,28.5609397 35.5837905,28.9734844 35.1720697,29.3337401 C34.7603489,29.6939958 34.2822286,29.8741209 33.7376947,29.8741209 C32.9806597,29.8741209 32.3962905,29.6167993 31.9845697,29.1021483 C31.5728489,28.5874973 31.3669916,27.9466834 31.3669916,27.1796874 L31.3669916,26.9705077 C31.3669916,26.2101524 31.573679,25.5718287 31.9870599,25.0555175 C32.4004409,24.5392064 32.98398,24.2810546 33.7376947,24.2810546 C34.3386742,24.2810546 34.8309056,24.4669903 35.2144036,24.8388671 C35.5979016,25.210744 35.7830072,25.6672824 35.7697259,26.208496 L35.759765,26.2383788 L34.8682611,26.2383788 C34.8682611,25.9096663 34.7611821,25.6299327 34.5470208,25.3991699 C34.3328596,25.168407 34.0630869,25.0530273 33.7376947,25.0530273 C33.256247,25.0530273 32.9051274,25.239793 32.6843256,25.61333 C32.4635237,25.986867 32.3531244,26.4392551 32.3531244,26.9705077 L32.3531244,27.1796874 C32.3531244,27.720901 32.4618635,28.1774394 32.6793451,28.5493163 C32.8968266,28.9211931 33.2496063,29.1071288 33.7376947,29.1071288 Z M39.4851555,25.2472656 L38.9821282,25.2173828 C38.7231425,25.2173828 38.5048342,25.2788079 38.3271965,25.4016601 C38.1495589,25.5245123 38.0125974,25.6971668 37.9163079,25.9196288 L37.9163079,29.7695311 L36.9351556,29.7695311 L36.9351556,24.380664 L37.811718,24.380664 L37.9063469,25.1675781 C38.0590821,24.8886704 38.2475079,24.6711921 38.4716301,24.5151367 C38.6957524,24.3590812 38.9539041,24.2810546 39.246093,24.2810546 C39.3191403,24.2810546 39.3888661,24.2868651 39.4552727,24.2984863 C39.5216793,24.3101074 39.5764639,24.3225585 39.6196282,24.3358398 L39.4851555,25.2472656 Z M41.5669914,29.7695311 L40.5858391,29.7695311 L40.5858391,24.380664 L41.5669914,24.380664 L41.5669914,29.7695311 Z M41.5669914,23.0010742 L40.5858391,23.0010742 L40.5858391,22 L41.5669914,22 L41.5669914,23.0010742 Z M47.6780265,27.2792968 C47.6780265,28.0562538 47.4912607,28.6829565 47.1177237,29.1594237 C46.7441867,29.6358909 46.2303735,29.8741209 45.5762687,29.8741209 C45.2176731,29.8741209 44.906397,29.803565 44.6424308,29.662451 C44.3784646,29.521337 44.1601563,29.3129895 43.9874992,29.0374022 L43.8281242,29.7695311 L43.0760734,29.7695311 L43.0760734,22 L44.0572257,22 L44.0572257,25.018164 C44.2265625,24.7791003 44.4365702,24.596485 44.687255,24.4703125 C44.9379399,24.34414 45.2309545,24.2810546 45.5663077,24.2810546 C46.2303735,24.2810546 46.7483371,24.546677 47.120214,25.0779296 C47.4920908,25.6091823 47.6780265,26.3081011 47.6780265,27.1747069 L47.6780265,27.2792968 Z M46.6968741,27.1747069 C46.6968741,26.5571257 46.5831546,26.0532734 46.355712,25.6631347 C46.1282695,25.272996 45.7821304,25.0779296 45.3172843,25.0779296 C45.0151344,25.0779296 44.7603029,25.1518058 44.5527824,25.2995605 C44.3452618,25.4473151 44.1800779,25.6457018 44.0572257,25.8947265 L44.0572257,28.2305663 C44.1833982,28.4961926 44.3485821,28.7037101 44.5527824,28.8531249 C44.7569826,29.0025397 45.0151343,29.077246 45.3272452,29.077246 C45.788771,29.077246 46.1324199,28.9128921 46.3582023,28.5841796 C46.5839846,28.255467 46.6968741,27.8205104 46.6968741,27.2792968 L46.6968741,27.1747069 Z M53.475292,27.2792968 C53.475292,28.0562538 53.2885263,28.6829565 52.9149892,29.1594237 C52.5414522,29.6358909 52.027639,29.8741209 51.3735342,29.8741209 C51.0149387,29.8741209 50.7036625,29.803565 50.4396963,29.662451 C50.1757302,29.521337 49.9574218,29.3129895 49.7847647,29.0374022 L49.6253897,29.7695311 L48.8733389,29.7695311 L48.8733389,22 L49.8544913,22 L49.8544913,25.018164 C50.023828,24.7791003 50.2338357,24.596485 50.4845205,24.4703125 C50.7352054,24.34414 51.02822,24.2810546 51.3635733,24.2810546 C52.0276391,24.2810546 52.5456026,24.546677 52.9174795,25.0779296 C53.2893563,25.6091823 53.475292,26.3081011 53.475292,27.1747069 L53.475292,27.2792968 Z M52.4941396,27.1747069 C52.4941396,26.5571257 52.3804201,26.0532734 52.1529775,25.6631347 C51.925535,25.272996 51.5793959,25.0779296 51.1145498,25.0779296 C50.8123999,25.0779296 50.5575685,25.1518058 50.3500479,25.2995605 C50.1425273,25.4473151 49.9773434,25.6457018 49.8544913,25.8947265 L49.8544913,28.2305663 C49.9806638,28.4961926 50.1458477,28.7037101 50.3500479,28.8531249 C50.5542481,29.0025397 50.8123998,29.077246 51.1245108,29.077246 C51.5860365,29.077246 51.9296854,28.9128921 52.1554678,28.5841796 C52.3812501,28.255467 52.4941396,27.8205104 52.4941396,27.2792968 L52.4941396,27.1747069 Z M55.7314443,29.7695311 L54.7502919,29.7695311 L54.7502919,22 L55.7314443,22 L55.7314443,29.7695311 Z M59.4717762,29.8741209 C58.6981396,29.8741209 58.0946788,29.6267601 57.6613759,29.1320311 C57.2280729,28.6373021 57.0114247,27.9865274 57.0114247,27.1796874 L57.0114247,26.9605468 C57.0114247,26.1869101 57.2347135,25.5469263 57.6812977,25.0405761 C58.127882,24.5342259 58.6732379,24.2810546 59.3173817,24.2810546 C60.0378931,24.2810546 60.5782686,24.5051735 60.9385243,24.9534179 C61.29878,25.4016623 61.4789051,25.9976525 61.4789051,26.7414062 L61.4789051,27.2593749 L58.0324208,27.2593749 L58.0174794,27.2842772 C58.0174794,27.8254909 58.1370094,28.2645978 58.3760731,28.6016112 C58.6151368,28.9386246 58.9803675,29.1071288 59.4717762,29.1071288 C59.8038091,29.1071288 60.0951636,29.0598148 60.3458485,28.9651854 C60.5965333,28.870556 60.8115214,28.7402351 60.9908192,28.5742186 L61.3743153,29.2117186 C61.1817362,29.397657 60.9277348,29.5545402 60.6123036,29.6823729 C60.2968723,29.8102056 59.9167003,29.8741209 59.4717762,29.8741209 Z M59.3173817,25.0530273 C58.9753878,25.0530273 58.692334,25.1850084 58.4682118,25.4489745 C58.2440896,25.7129407 58.1071281,26.0507791 58.0573231,26.4624999 L58.0672841,26.4874023 L60.4977528,26.4874023 L60.4977528,26.4077148 C60.4977528,26.0159159 60.4014647,25.6921887 60.2088856,25.4365234 C60.0163065,25.180858 59.7191415,25.0530273 59.3173817,25.0530273 Z M70.4238268,27.4486327 L70.4337877,27.4785155 C70.4470691,28.159183 70.208009,28.7286109 69.7166003,29.1868163 C69.2251916,29.6450217 68.576077,29.8741209 67.769237,29.8741209 C66.9491157,29.8741209 66.2809095,29.5835965 65.7645984,29.0025389 C65.2482872,28.4214813 64.9901355,27.6843794 64.9901355,26.7912108 L64.9901355,25.5012695 C64.9901355,24.608101 65.2482872,23.8701689 65.7645984,23.2874511 C66.2809095,22.7047334 66.9491157,22.4133789 67.769237,22.4133789 C68.5893583,22.4133789 69.2417932,22.6316873 69.7265612,23.0683105 C70.2113292,23.5049338 70.4470691,24.0834925 70.4337877,24.8040039 L70.4238268,24.8338867 L69.4825182,24.8338867 C69.4825182,24.3258763 69.3331057,23.9241225 69.0342761,23.6286133 C68.7354464,23.333104 68.313771,23.1853515 67.769237,23.1853515 C67.2213827,23.1853515 66.784766,23.4061501 66.4593738,23.8477539 C66.1339815,24.2893576 65.9712878,24.8372037 65.9712878,25.4913085 L65.9712878,26.7912108 C65.9712878,27.4519563 66.1339815,28.0031227 66.4593738,28.4447264 C66.784766,28.8863302 67.2213827,29.1071288 67.769237,29.1071288 C68.313771,29.1071288 68.7354464,28.9602064 69.0342761,28.6663573 C69.3331057,28.3725082 69.4825182,27.966604 69.4825182,27.4486327 L70.4238268,27.4486327 Z M74.8863267,29.7695311 C74.8531234,29.606835 74.8273913,29.4632329 74.8091295,29.3387206 C74.7908677,29.2142082 74.7800767,29.0888677 74.7767564,28.9626952 C74.5941383,29.2216808 74.3559083,29.4383291 74.0620592,29.6126463 C73.76821,29.7869636 73.4519534,29.8741209 73.1132799,29.8741209 C72.5521443,29.8741209 72.1246583,29.7305189 71.8308092,29.4433104 C71.5369601,29.1561019 71.3900377,28.7601586 71.3900377,28.2554686 C71.3900377,27.7408176 71.5983852,27.3382338 72.0150865,27.047705 C72.4317878,26.7571762 72.9970654,26.611914 73.7109361,26.611914 L74.7767564,26.611914 L74.7767564,26.0790038 C74.7767564,25.7635726 74.6804683,25.5137216 74.4878892,25.3294433 C74.2953101,25.145165 74.0230473,25.0530273 73.6710924,25.0530273 C73.3523408,25.0530273 73.0950191,25.132714 72.8991197,25.2920898 C72.7032203,25.4514656 72.6052721,25.6423816 72.6052721,25.8648437 L71.6739244,25.8748046 L71.6639635,25.8449218 C71.6407212,25.453123 71.8241666,25.0945328 72.2143053,24.7691406 C72.604444,24.4437483 73.1082963,24.2810546 73.7258775,24.2810546 C74.3368181,24.2810546 74.8282194,24.4362777 75.2000963,24.7467285 C75.5719731,25.0571792 75.7579087,25.5045869 75.7579087,26.0889648 L75.7579087,28.6837889 C75.7579087,28.876368 75.7678696,29.0623037 75.7877916,29.2416014 C75.8077135,29.4208992 75.8442366,29.596874 75.8973619,29.7695311 L74.8863267,29.7695311 Z M73.2577135,29.0523436 C73.6129887,29.0523436 73.9333956,28.9610359 74.2189439,28.7784178 C74.5044922,28.5957997 74.6904279,28.3866222 74.7767564,28.1508788 L74.7767564,27.2743163 L73.6760728,27.2743163 C73.2809537,27.2743163 72.9646971,27.3739247 72.7272936,27.5731444 C72.48989,27.7723642 72.3711901,28.0064439 72.3711901,28.2753905 C72.3711901,28.5144542 72.4458963,28.7037101 72.5953111,28.8431639 C72.7447259,28.9826178 72.9655245,29.0523436 73.2577135,29.0523436 Z M79.7323227,25.2472656 L79.2292954,25.2173828 C78.9703097,25.2173828 78.7520014,25.2788079 78.5743638,25.4016601 C78.3967262,25.5245123 78.2597646,25.6971668 78.1634751,25.9196288 L78.1634751,29.7695311 L77.1823228,29.7695311 L77.1823228,24.380664 L78.0588853,24.380664 L78.1535142,25.1675781 C78.3062493,24.8886704 78.4946751,24.6711921 78.7187974,24.5151367 C78.9429196,24.3590812 79.2010713,24.2810546 79.4932602,24.2810546 C79.5663075,24.2810546 79.6360333,24.2868651 79.7024399,24.2984863 C79.7688465,24.3101074 79.8236311,24.3225585 79.8667954,24.3358398 L79.7323227,25.2472656 Z M80.4345688,27.1747069 C80.4345688,26.3081011 80.6196744,25.6091823 80.9898911,25.0779296 C81.3601078,24.546677 81.8789014,24.2810546 82.5462875,24.2810546 C82.8617188,24.2810546 83.1414523,24.3391595 83.3854965,24.455371 C83.6295407,24.5715826 83.8378882,24.7409168 84.0105453,24.9633789 L84.0105453,22 L84.9916976,22 L84.9916976,29.7695311 L84.2396469,29.7695311 L84.0902328,29.0872069 C83.9142554,29.3461926 83.6967771,29.542089 83.4377914,29.6749022 C83.1788057,29.8077154 82.8783205,29.8741209 82.5363266,29.8741209 C81.8789014,29.8741209 81.3642582,29.6358909 80.9923813,29.1594237 C80.6205044,28.6829565 80.4345688,28.0562538 80.4345688,27.2792968 L80.4345688,27.1747069 Z M81.4157211,27.2792968 C81.4157211,27.8238307 81.5269505,28.2596174 81.7494125,28.5866698 C81.9718746,28.9137222 82.3171836,29.077246 82.78535,29.077246 C83.077539,29.077246 83.3232396,29.0108404 83.5224594,28.8780272 C83.7216791,28.7452141 83.8843728,28.5592784 84.0105453,28.3202147 L84.0105453,25.8050781 C83.8843728,25.582616 83.720849,25.4058111 83.5199691,25.2746581 C83.3190892,25.1435051 83.0775389,25.0779296 82.795311,25.0779296 C82.3238242,25.0779296 81.976025,25.272166 81.7519028,25.6606445 C81.5277806,26.049123 81.4157211,26.5538054 81.4157211,27.1747069 L81.4157211,27.2792968 Z" id="Little-Scribble-Card"></path>
            <g id="a+zno_logo" fill-rule="nonzero">
                <g id="a" transform="translate(0.000000, 0.490654)">
                    <polygon id="a_1_" points="0.0321969697 0 0.0321969697 2.1203271 0.0321969697 2.1203271 0.0321969697 14.0186916 2.64372896 14.0186916 3.60963805 14.0186916 7.18707912 14.0186916 7.18707912 10.5140187 3.60963805 10.5140187 3.60963805 3.5046729 10.7645202 3.5046729 10.7645202 14.0186916 14.3419613 14.0186916 14.3419613 3.5046729 14.3419613 2.1203271 14.3419613 0"></polygon>
                </g>
                <g id="zno" transform="translate(28.655303, 0.000000)">
                    <polygon id="z" points="13.8411195 13.5700935 13.8411195 14.5058411 0 14.5058411 11.6481481 1.41588785 0 1.41588785 0 0.480140187 13.8411195 0.480140187 2.25378788 13.5700935"></polygon>
                    <path d="M20.9995791,7.49299065 L20.9995791,14.5058411 L20.0444024,14.5058411 L20.0444024,7.49299065 C20.0444024,5.42873832 20.7885101,3.66588785 22.280303,2.20443925 C23.772096,0.742990654 25.5715488,0.0140186916 27.6786616,0.0140186916 C29.7857744,0.0140186916 31.5852273,0.742990654 33.0770202,2.20443925 C34.5688131,3.66588785 35.3129209,5.42873832 35.3129209,7.49299065 L35.3129209,14.5058411 L34.3577441,14.5058411 L34.3577441,7.49299065 C34.3577441,5.68457944 33.7066498,4.14252336 32.4008838,2.86331776 C31.0951178,1.58411215 29.5210438,0.946261682 27.6750842,0.946261682 C25.8291246,0.946261682 24.2550505,1.58411215 22.9492845,2.86331776 C21.6506734,4.14252336 20.9995791,5.68457944 20.9995791,7.49299065 Z" id="n"></path>
                    <path d="M54.0765993,2.20443925 C55.5683923,3.66588785 56.3125,5.42873832 56.3125,7.49299065 C56.3125,9.55724299 55.5683923,11.3200935 54.0765993,12.7815421 C52.5848064,14.2429907 50.7853535,14.9719626 48.6782407,14.9719626 C46.5711279,14.9719626 44.7716751,14.2429907 43.2798822,12.7815421 C41.7880892,11.3200935 41.0439815,9.55724299 41.0439815,7.49299065 C41.0439815,5.42873832 41.7880892,3.66588785 43.2798822,2.20443925 C44.7716751,0.742990654 46.5711279,0.0140186916 48.6782407,0.0140186916 C50.7853535,0.0140186916 52.5848064,0.742990654 54.0765993,2.20443925 Z M53.400463,12.1226636 C54.706229,10.8434579 55.3573232,9.30140187 55.3573232,7.49299065 C55.3573232,5.68457944 54.706229,4.14252336 53.400463,2.86331776 C52.094697,1.58411215 50.5206229,0.946261682 48.6746633,0.946261682 C46.8287037,0.946261682 45.2546296,1.58411215 43.9488636,2.86331776 C42.6430976,4.14252336 41.9920034,5.68457944 41.9920034,7.49299065 C41.9920034,9.30140187 42.6430976,10.8434579 43.9488636,12.1226636 C45.2546296,13.4018692 46.8287037,14.0397196 48.6746633,14.0397196 C50.5206229,14.0397196 52.0982744,13.3983645 53.400463,12.1226636 Z" id="o"></path>
                </g>
            </g>
        </g>
    </g>
</svg>