<?xml version="1.0" encoding="UTF-8"?>
<svg width="20px" height="20px" viewBox="0 0 20 20" version="1.1" xmlns="http://www.w3.org/2000/svg" xmlns:xlink="http://www.w3.org/1999/xlink">
    <!-- Generator: Sketch 46.2 (44496) - http://www.bohemiancoding.com/sketch -->
    <title>切换</title>
    <desc>Created with Sketch.</desc>
    <defs></defs>
    <g id="Page-1" stroke="none" stroke-width="1" fill="none" fill-rule="evenodd">
        <g id="LRB-Copy" transform="translate(-209.000000, -516.000000)" fill-rule="nonzero" fill="#3A3A3A">
            <g id="切换" transform="translate(209.000000, 516.000000)">
                <path d="M4.19047619,9.28571428 L15.8095238,9.28571428 C16.1428571,9.28571428 16.4285714,8.95238094 16.4285714,8.57142857 C16.4285714,8.19047621 16.1428571,7.85714285 15.8095238,7.85714285 L5.95238096,7.85714285 L7.42857143,6.38095238 C7.7142857,6.09523811 7.7142857,5.66666666 7.42857143,5.38095238 C7.14285715,5.09523811 6.7142857,5.09523811 6.42857143,5.38095238 L3.76190477,8.04761904 C3.52380953,8.28571428 3.47619049,8.61904762 3.66666666,8.90476191 C3.76190475,9.14285715 3.95238094,9.2857143 4.19047619,9.28571428 Z" id="Shape"></path>
                <path d="M10,0 C4.47619047,0 0,4.47619047 0,10 C0,15.5238095 4.47619047,20 10,20 C15.5238095,20 20,15.5238095 20,10 C20,4.47619047 15.5238095,0 10,0 Z M10,18 C5.59999999,18 2,14.4 2,10 C2,5.59999999 5.59999999,2 10,2 C14.4,2 18,5.59999999 18,10 C18,14.4 14.4,18 10,18 Z" id="Shape"></path>
                <path d="M15.8095238,10.7142857 L4.19047619,10.7142857 C3.85714285,10.7142857 3.57142857,11.0476191 3.57142857,11.4285714 C3.57142857,11.8095238 3.85714285,12.1428571 4.19047619,12.1428571 L14.047619,12.1428571 L12.5238095,13.6666667 C12.2380953,13.9523809 12.2380953,14.3809524 12.5238095,14.6666667 C12.8095238,14.9523809 13.2380953,14.9523809 13.5238095,14.6666667 L16.1904762,12 C16.1904762,12 16.1904762,11.952381 16.2380952,11.952381 C16.3809524,11.8095238 16.4285714,11.6190476 16.4285714,11.4285714 C16.4285714,11.047619 16.1428571,10.7142857 15.8095238,10.7142857 L15.8095238,10.7142857 Z" id="Shape"></path>
            </g>
        </g>
    </g>
</svg>