<?xml version="1.0" encoding="UTF-8"?>
<svg width="56px" height="57px" viewBox="0 0 56 57" version="1.1" xmlns="http://www.w3.org/2000/svg" xmlns:xlink="http://www.w3.org/1999/xlink">
    <!-- Generator: Sketch 46.2 (44496) - http://www.bohemiancoding.com/sketch -->
    <title>Group 21</title>
    <desc>Created with Sketch.</desc>
    <defs></defs>
    <g id="Page-1" stroke="none" stroke-width="1" fill="none" fill-rule="evenodd">
        <g id="Group-21" fill-rule="nonzero" fill="#CCCCCC">
            <g id="图片-(1)">
                <path d="M42.5386538,43.4864971 L4.34207123,43.4864971 C1.94771904,43.4864971 0.000812158719,41.5387781 0.000812158719,39.1444801 L0.000812158719,11.2251164 C0.000812158719,8.83076418 1.9471776,6.88304514 4.34207123,6.88304514 L42.5386538,6.88304514 C44.9310026,6.88304514 46.8770974,8.83076418 46.8770974,11.2250622 L46.8770974,39.1443718 C46.8773681,41.538724 44.9310026,43.486443 42.5386538,43.486443 L42.5386538,43.4864971 Z M4.34207123,9.23386562 C3.24283669,9.23476184 2.35208043,10.1258816 2.35163264,11.2251164 L2.35163264,39.1444259 C2.35163264,40.2419772 3.24370778,41.1357308 4.34207123,41.1357308 L42.5386538,41.1357308 C43.635068,41.1357308 44.5262769,40.2419772 44.5262769,39.1444801 L44.5262769,11.2251164 C44.5262769,10.1272944 43.635068,9.23381148 42.5386538,9.23381148 L4.34207123,9.23381148 L4.34207123,9.23386562 Z" id="Shape"></path>
                <path d="M51.020677,36.6356676 L46.5580273,36.6356676 L46.5580273,34.2848472 L51.020677,34.2848472 C52.1630595,34.2848472 53.0934143,33.3561707 53.0934143,32.2157375 L53.0934143,4.45133365 C53.0934143,3.3111711 52.1633302,2.38303611 51.020677,2.38303611 L12.1265584,2.38303611 C10.9858003,2.38303611 10.0557702,3.3111711 10.0557702,4.45133365 L10.0557702,7.20184451 L7.70494976,7.20184451 L7.70494976,4.45133365 C7.70494976,2.01404533 9.68932423,0.0322156292 12.1268833,0.0322156292 L51.0208936,0.0322156292 C53.4600769,0.0322156292 55.4444514,2.01431605 55.4444514,4.45133365 L55.4444514,32.2157375 C55.4441265,34.6532965 53.4598062,36.6356676 51.0206229,36.6356676 L51.020677,36.6356676 Z M44.4685595,41.0888963 L33.5939708,31.7658015 L24.9140516,36.9735798 L13.1059677,23.4789671 L2.00646519,34.5800939 L0.344571872,32.9184172 L13.2188036,20.0395291 L25.3894351,33.946935 L33.8368063,28.8766281 L45.9988831,39.3041505 L44.4685595,41.0888963 Z" id="Shape"></path>
                <path d="M34.5717016,24.6485298 C31.5636282,24.6485298 29.1161066,22.2006834 29.1161066,19.1906608 C29.1161066,16.1812337 31.5636282,13.7328459 34.5717016,13.7328459 C37.5797751,13.7328459 40.0273507,16.180963 40.0273507,19.1906608 C40.0273507,22.2006834 37.5797751,24.6485298 34.5717016,24.6485298 M34.5717016,16.0836123 C32.8598876,16.0836123 31.4671437,17.4774932 31.4671437,19.1906608 C31.4671437,20.9038825 32.8598876,22.2974386 34.5717558,22.2974386 C36.2827035,22.2974386 37.6762595,20.9038825 37.6762595,19.1906608 C37.6762595,17.4774932 36.2827035,16.0836123 34.5717016,16.0836123" id="Shape"></path>
            </g>
            <g id="icon-鼠标箭头-01" transform="translate(35.356774, 44.145497) rotate(-7.000000) translate(-35.356774, -44.145497) translate(29.356774, 32.645497)" stroke="#FFFFFF">
                <path d="M6.6166167,13.8241828 L12,14.4432062 L0.388864797,8.18545232e-12 L2.27373675e-13,18.5441241 L0.520907364,18.0400258 L3.93435933,14.7368455 L6.55529384,22.0603838 C6.76262351,22.639015 7.30704171,23.0003741 7.88908474,22.9999997 C8.04770804,22.9999997 8.20925147,22.973084 8.36615263,22.917044 C8.94471396,22.7089808 9.30594978,22.1649769 9.30550053,21.583351 C9.30538686,21.4206612 9.27736398,21.2591964 9.22265102,21.1059812 L6.6166167,13.8241828 Z" id="Shape"></path>
            </g>
        </g>
    </g>
</svg>