<?xml version="1.0" encoding="UTF-8"?>
<svg width="94px" height="10px" viewBox="0 0 94 10" version="1.1" xmlns="http://www.w3.org/2000/svg" xmlns:xlink="http://www.w3.org/1999/xlink">
    <!-- Generator: Sketch 43 (38999) - http://www.bohemiancoding.com/sketch -->
    <title>Group</title>
    <desc>Created with Sketch.</desc>
    <defs></defs>
    <g id="Page-1" stroke="none" stroke-width="1" fill="none" fill-rule="evenodd">
        <g id="Group" fill="#7B7B7B">
            <path d="M0.429,9 L3.938,1.245 L4.752,1.245 L8.261,9 L7.326,9 L6.424,6.965 L2.233,6.965 L1.32,9 L0.429,9 Z M2.574,6.173 L6.083,6.173 L4.334,2.257 L2.574,6.173 Z M11.748,9.121 C10.384,9.121 9.031,8.043 9.031,6.173 L9.031,6.151 C9.031,4.292 10.384,3.192 11.748,3.192 C12.804,3.192 13.486,3.764 13.926,4.402 L13.926,0.97 L14.773,0.97 L14.773,9 L13.926,9 L13.926,7.856 C13.464,8.538 12.793,9.121 11.748,9.121 Z M11.902,8.362 C12.958,8.362 13.959,7.471 13.959,6.162 L13.959,6.14 C13.959,4.831 12.958,3.951 11.902,3.951 C10.802,3.951 9.9,4.765 9.9,6.14 L9.9,6.162 C9.9,7.504 10.835,8.362 11.902,8.362 Z M19.052,9.121 C17.688,9.121 16.335,8.043 16.335,6.173 L16.335,6.151 C16.335,4.292 17.688,3.192 19.052,3.192 C20.108,3.192 20.79,3.764 21.23,4.402 L21.23,0.97 L22.077,0.97 L22.077,9 L21.23,9 L21.23,7.856 C20.768,8.538 20.097,9.121 19.052,9.121 Z M19.206,8.362 C20.262,8.362 21.263,7.471 21.263,6.162 L21.263,6.14 C21.263,4.831 20.262,3.951 19.206,3.951 C18.106,3.951 17.204,4.765 17.204,6.14 L17.204,6.162 C17.204,7.504 18.139,8.362 19.206,8.362 Z M27.412,9 L27.412,1.3 L30.294,1.3 C32.032,1.3 33.176,2.224 33.176,3.742 L33.176,3.764 C33.176,5.425 31.79,6.283 30.151,6.283 L28.281,6.283 L28.281,9 L27.412,9 Z M28.281,5.491 L30.184,5.491 C31.46,5.491 32.296,4.809 32.296,3.797 L32.296,3.775 C32.296,2.675 31.471,2.103 30.228,2.103 L28.281,2.103 L28.281,5.491 Z M36.201,9.121 C35.145,9.121 34.078,8.516 34.078,7.35 L34.078,7.328 C34.078,6.129 35.068,5.491 36.509,5.491 C37.235,5.491 37.752,5.59 38.258,5.733 L38.258,5.535 C38.258,4.512 37.631,3.984 36.564,3.984 C35.893,3.984 35.365,4.16 34.837,4.402 L34.584,3.709 C35.211,3.423 35.827,3.236 36.652,3.236 C37.455,3.236 38.071,3.445 38.489,3.863 C38.874,4.248 39.072,4.798 39.072,5.524 L39.072,9 L38.258,9 L38.258,8.142 C37.862,8.659 37.202,9.121 36.201,9.121 Z M36.366,8.45 C37.411,8.45 38.269,7.812 38.269,6.91 L38.269,6.36 C37.851,6.239 37.29,6.118 36.597,6.118 C35.53,6.118 34.936,6.58 34.936,7.295 L34.936,7.317 C34.936,8.032 35.596,8.45 36.366,8.45 Z M40.898,2.07 L41.866,2.07 L41.866,1.135 L40.898,1.135 L40.898,2.07 Z M40.953,9 L41.8,9 L41.8,3.313 L40.953,3.313 L40.953,9 Z M43.769,9 L44.616,9 L44.616,5.744 C44.616,4.677 45.342,3.962 46.321,3.962 C47.322,3.962 47.894,4.622 47.894,5.678 L47.894,9 L48.741,9 L48.741,5.469 C48.741,4.116 47.938,3.192 46.563,3.192 C45.584,3.192 44.99,3.687 44.616,4.303 L44.616,3.313 L43.769,3.313 L43.769,9 Z M52.448,9.099 C52.855,9.099 53.174,9.011 53.471,8.857 L53.471,8.131 C53.174,8.274 52.932,8.329 52.646,8.329 C52.074,8.329 51.689,8.076 51.689,7.383 L51.689,4.061 L53.493,4.061 L53.493,3.313 L51.689,3.313 L51.689,1.597 L50.842,1.597 L50.842,3.313 L50.05,3.313 L50.05,4.061 L50.842,4.061 L50.842,7.493 C50.842,8.648 51.535,9.099 52.448,9.099 Z M57.31,9.132 C55.748,9.132 54.472,7.933 54.472,6.173 L54.472,6.151 C54.472,4.512 55.627,3.192 57.2,3.192 C58.883,3.192 59.851,4.534 59.851,6.195 C59.851,6.305 59.851,6.371 59.84,6.47 L55.33,6.47 C55.451,7.702 56.32,8.395 57.332,8.395 C58.113,8.395 58.663,8.076 59.125,7.592 L59.653,8.065 C59.081,8.703 58.388,9.132 57.31,9.132 Z M55.33,5.843 L58.993,5.843 C58.905,4.809 58.311,3.907 57.178,3.907 C56.188,3.907 55.44,4.732 55.33,5.843 Z M63.723,9.121 C62.359,9.121 61.006,8.043 61.006,6.173 L61.006,6.151 C61.006,4.292 62.359,3.192 63.723,3.192 C64.779,3.192 65.461,3.764 65.901,4.402 L65.901,0.97 L66.748,0.97 L66.748,9 L65.901,9 L65.901,7.856 C65.439,8.538 64.768,9.121 63.723,9.121 Z M63.877,8.362 C64.933,8.362 65.934,7.471 65.934,6.162 L65.934,6.14 C65.934,4.831 64.933,3.951 63.877,3.951 C62.777,3.951 61.875,4.765 61.875,6.14 L61.875,6.162 C61.875,7.504 62.81,8.362 63.877,8.362 Z M74.118,9 L74.118,2.103 L71.533,2.103 L71.533,1.3 L77.583,1.3 L77.583,2.103 L74.998,2.103 L74.998,9 L74.118,9 Z M80.157,9.132 C78.595,9.132 77.319,7.933 77.319,6.173 L77.319,6.151 C77.319,4.512 78.474,3.192 80.047,3.192 C81.73,3.192 82.698,4.534 82.698,6.195 C82.698,6.305 82.698,6.371 82.687,6.47 L78.177,6.47 C78.298,7.702 79.167,8.395 80.179,8.395 C80.96,8.395 81.51,8.076 81.972,7.592 L82.5,8.065 C81.928,8.703 81.235,9.132 80.157,9.132 Z M78.177,5.843 L81.84,5.843 C81.752,4.809 81.158,3.907 80.025,3.907 C79.035,3.907 78.287,4.732 78.177,5.843 Z M84.392,3.313 L83.424,3.313 L85.558,6.107 L83.336,9 L84.282,9 L86.053,6.657 L87.813,9 L88.792,9 L86.548,6.096 L88.704,3.313 L87.758,3.313 L86.064,5.535 L84.392,3.313 Z M92.07,9.099 C92.477,9.099 92.796,9.011 93.093,8.857 L93.093,8.131 C92.796,8.274 92.554,8.329 92.268,8.329 C91.696,8.329 91.311,8.076 91.311,7.383 L91.311,4.061 L93.115,4.061 L93.115,3.313 L91.311,3.313 L91.311,1.597 L90.464,1.597 L90.464,3.313 L89.672,3.313 L89.672,4.061 L90.464,4.061 L90.464,7.493 C90.464,8.648 91.157,9.099 92.07,9.099 Z" id="Add-Painted-Text"></path>
        </g>
    </g>
</svg>