<?xml version="1.0" encoding="UTF-8"?>
<svg width="16px" height="15px" viewBox="0 0 16 15" version="1.1" xmlns="http://www.w3.org/2000/svg" xmlns:xlink="http://www.w3.org/1999/xlink">
    <!-- Generator: Sketch 46 (44423) - http://www.bohemiancoding.com/sketch -->
    <title>right copy 2</title>
    <desc>Created with Sketch.</desc>
    <defs></defs>
    <g id="Page-1" stroke="none" stroke-width="1" fill="none" fill-rule="evenodd">
        <g id="8x8paper-upgrade" transform="translate(-1204.000000, -587.000000)" fill-rule="nonzero" fill="#000000">
            <path d="M1209.70173,601.999043 C1209.42166,602.002414 1209.1518,601.892838 1208.95182,601.694551 L1204.27065,596.816582 C1203.89674,596.381433 1203.91195,595.730031 1204.30575,595.313202 C1204.69955,594.896374 1205.34247,594.851164 1205.78955,595.208862 L1209.21986,597.68337 C1209.31434,597.768593 1209.44009,597.809389 1209.56598,597.795656 C1209.69186,597.781922 1209.80611,597.714945 1209.88043,597.611307 L1218.01199,587.461559 C1218.24446,587.134837 1218.63371,586.961036 1219.02914,587.007404 C1219.42457,587.053773 1219.76415,587.313036 1219.91648,587.684879 C1220.06881,588.056722 1220.00999,588.482811 1219.76279,588.798281 L1210.57713,601.549409 C1210.38815,601.800499 1210.1022,601.958159 1209.79108,601.982803 C1209.76346,601.99679 1209.73244,602.002428 1209.70173,601.999043 Z" id="right-copy-2"></path>
        </g>
    </g>
</svg>