<?xml version="1.0" encoding="UTF-8"?>
<svg width="14px" height="14px" viewBox="0 0 14 14" version="1.1" xmlns="http://www.w3.org/2000/svg" xmlns:xlink="http://www.w3.org/1999/xlink">
    <!-- Generator: Sketch 46.2 (44496) - http://www.bohemiancoding.com/sketch -->
    <title>Group 2</title>
    <desc>Created with Sketch.</desc>
    <defs></defs>
    <g id="Page-1" stroke="none" stroke-width="1" fill="none" fill-rule="evenodd">
        <g id="1215" transform="translate(-717.000000, -412.000000)">
            <g id="Group-2" transform="translate(717.000000, 412.000000)">
                <path d="M0,6.99999995 C-3.72657051e-08,9.50085908 1.33419242,11.8117482 3.49999997,13.0621778 C5.66580752,14.3126074 8.33419248,14.3126074 10.5,13.0621778 C12.6658076,11.8117482 14,9.50085908 14,6.99999995 C14,3.13400673 10.8659932,0 7,0 C3.13400675,0 0,3.13400673 0,6.99999995 Z" id="Shape" fill="#3A3A3A" fill-rule="nonzero"></path>
                <path d="M4,10.81 L9.566,10.81 L9.566,9.622 L5.903,9.622 L7.487,8.302 C8.851,7.191 9.489,6.531 9.489,5.321 L9.489,5.299 C9.489,3.924 8.455,3 6.948,3 C5.573,3 4.847,3.583 4.11,4.606 L5.078,5.365 C5.661,4.595 6.145,4.21 6.849,4.21 C7.553,4.21 8.092,4.65 8.092,5.409 C8.092,6.102 7.707,6.586 6.651,7.488 L4,9.743 L4,10.81 Z" id="2-copy" fill="#FFFFFF"></path>
            </g>
        </g>
    </g>
</svg>