<?xml version="1.0" encoding="UTF-8"?>
<svg width="14px" height="14px" viewBox="0 0 14 14" version="1.1" xmlns="http://www.w3.org/2000/svg" xmlns:xlink="http://www.w3.org/1999/xlink">
    <!-- Generator: Sketch 46.2 (44496) - http://www.bohemiancoding.com/sketch -->
    <title>Group 6</title>
    <desc>Created with Sketch.</desc>
    <defs></defs>
    <g id="Page-1" stroke="none" stroke-width="1" fill="none" fill-rule="evenodd">
        <g id="1215" transform="translate(-717.000000, -579.000000)">
            <g id="Group-6" transform="translate(717.000000, 579.000000)">
                <path d="M0,6.99999995 C-3.72657051e-08,9.50085908 1.33419242,11.8117482 3.49999997,13.0621778 C5.66580752,14.3126074 8.33419248,14.3126074 10.5,13.0621778 C12.6658076,11.8117482 14,9.50085908 14,6.99999995 C14,3.13400673 10.8659932,0 7,0 C3.13400675,0 0,3.13400673 0,6.99999995 Z" id="Shape-Copy-3" fill="#3A3A3A" fill-rule="nonzero"></path>
                <path d="M6.827,10.832 C8.532,10.832 9.687,9.798 9.687,8.225 L9.687,8.203 C9.687,6.575 8.499,5.783 7.003,5.783 C6.486,5.783 6.145,5.871 5.782,6.003 L5.903,4.199 L9.346,4.199 L9.346,3 L4.737,3 L4.517,6.773 L5.331,7.312 C5.727,7.125 6.2,6.971 6.75,6.971 C7.685,6.971 8.345,7.466 8.345,8.247 L8.345,8.269 C8.345,9.072 7.74,9.6 6.816,9.6 C6.101,9.6 5.452,9.248 4.836,8.676 L4,9.655 C4.726,10.359 5.65,10.832 6.827,10.832 Z" id="5" fill="#FFFFFF"></path>
            </g>
        </g>
    </g>
</svg>