<?xml version="1.0" encoding="utf-8"?>
<!-- Generator: Adobe Illustrator 18.0.0, SVG Export Plug-In . SVG Version: 6.00 Build 0)  -->
<!DOCTYPE svg PUBLIC "-//W3C//DTD SVG 1.1//EN" "http://www.w3.org/Graphics/SVG/1.1/DTD/svg11.dtd">
<svg version="1.1" id="图层_1" xmlns="http://www.w3.org/2000/svg" xmlns:xlink="http://www.w3.org/1999/xlink" x="0px" y="0px"
	 viewBox="0 0 1024 1024" enable-background="new 0 0 1024 1024" xml:space="preserve">
<g>
	<circle fill="#FFA500" cx="512" cy="512" r="512"/>
	<path fill="#FFFFFF" d="M563.2,608.7h-79.6c-17.1,0-28.4-11.4-28.4-28.4V267.4c0-17.1,11.4-28.4,28.4-28.4h79.6
		c17.1,0,28.4,11.4,28.4,28.4v312.9C591.6,597.3,580.3,608.7,563.2,608.7z"/>
	<path fill="#FFFFFF" d="M563.2,785.1h-79.6c-17.1,0-28.4-11.4-28.4-28.4v-45.5c0-17.1,11.4-28.4,28.4-28.4h79.6
		c17.1,0,28.4,11.4,28.4,28.4v45.5C591.6,773.7,580.3,785.1,563.2,785.1z"/>
</g>
</svg>
