<?xml version="1.0" encoding="UTF-8"?>
<svg width="13px" height="13px" viewBox="0 0 13 13" version="1.1" xmlns="http://www.w3.org/2000/svg" xmlns:xlink="http://www.w3.org/1999/xlink">
    <!-- Generator: Sketch 46.2 (44496) - http://www.bohemiancoding.com/sketch -->
    <title>问号</title>
    <desc>Created with Sketch.</desc>
    <defs></defs>
    <g id="Page-1" stroke="none" stroke-width="1" fill="none" fill-rule="evenodd">
        <g id="Artboard" transform="translate(-1885.000000, -881.000000)" fill-rule="nonzero" fill="#7B7B7B">
            <g id="问号" transform="translate(1885.000000, 881.000000)">
                <path d="M6.50024876,0 C10.0829612,0.000400516769 13.0070498,2.92558079 12.9999872,6.50217082 C12.9928802,10.0920374 10.0734654,13.0087177 6.49603499,12.9999804 C2.9080108,12.9912283 0.00475372197,10.0868751 5.81314704e-06,6.50147363 C-0.00475692845,2.92261398 2.9176995,-0.000400516769 6.50024876,0 Z M12.3862014,6.49901115 C12.3856821,3.25777558 9.76013312,0.623417796 6.50346844,0.616742449 C3.25720464,0.610096776 0.617842263,3.24423204 0.614444543,6.49918916 C0.611061655,9.74073624 3.24532004,12.3725722 6.49642076,12.3818287 C9.73462795,12.3910555 12.3867207,9.74210099 12.3862014,6.49901115 Z" id="Shape"></path>
                <path d="M6.92316271,8 C6.61990908,8 6.32474459,8 6.02116675,8 C6.02116675,7.84909196 6.01153759,7.70095387 6.02319308,7.55399709 C6.04671481,7.25724568 6.12865992,6.97261961 6.31378615,6.71406365 C6.45785067,6.5128484 6.6413072,6.33921048 6.84512438,6.17963955 C7.09825451,5.98146582 7.35439985,5.7858448 7.60250466,5.58333962 C7.74859552,5.4641095 7.87844326,5.33111111 7.94594463,5.16559294 C8.10764639,4.76906897 8.00427074,4.41497685 7.68932919,4.09960974 C7.16630705,3.57588526 6.29154507,3.55794846 5.75586236,3.82007547 C5.41822582,3.98528135 5.21578656,4.23808014 5.09761054,4.54209589 C5.04463395,4.67839379 5.0080464,4.81915892 4.96056524,4.96876345 C4.6492549,4.93780517 4.33060109,4.90611366 4,4.87324086 C4.01233635,4.80416859 4.02117118,4.7392241 4.03584187,4.67521649 C4.11815982,4.31615476 4.26695786,3.98128935 4.54678703,3.69406984 C4.88768192,3.34417339 5.33180656,3.14044617 5.8549746,3.05634285 C6.40104837,2.96855982 6.94676548,2.97803741 7.47781192,3.12250938 C8.15773746,3.30747153 8.66085286,3.66888229 8.88948862,4.2445841 C9.10899776,4.79729802 9.00114795,5.31942028 8.56906786,5.7858448 C8.29497729,6.0817272 7.95409861,6.32211553 7.63375889,6.57974816 C7.49283924,6.69308534 7.35026611,6.80712859 7.22785909,6.93397606 C7.04603984,7.1223735 6.97664182,7.35022915 6.95472494,7.58847212 C6.94233997,7.72297771 6.93392661,7.85775486 6.92316271,8 Z" id="Shape"></path>
                <path d="M6,10 C6,9.66631246 6,9.33584309 6,9 C6.33410698,9 6.66426989,9 7,9 C7,9.33267047 7,9.66323092 7,10 C6.66783471,10 6.33576044,10 6,10 Z" id="Shape"></path>
            </g>
        </g>
    </g>
</svg>