<?xml version="1.0" encoding="UTF-8"?>
<svg width="26px" height="27px" viewBox="0 0 26 27" version="1.1" xmlns="http://www.w3.org/2000/svg" xmlns:xlink="http://www.w3.org/1999/xlink">
    <!-- Generator: Sketch 46.2 (44496) - http://www.bohemiancoding.com/sketch -->
    <title>手 (2) copy</title>
    <desc>Created with Sketch.</desc>
    <defs>
        <filter x="-40.9%" y="-26.3%" width="187.0%" height="173.7%" filterUnits="objectBoundingBox" id="filter-1">
            <feOffset dx="0" dy="2" in="SourceAlpha" result="shadowOffsetOuter1"></feOffset>
            <feGaussianBlur stdDeviation="2" in="shadowOffsetOuter1" result="shadowBlurOuter1"></feGaussianBlur>
            <feColorMatrix values="0 0 0 0 0   0 0 0 0 0   0 0 0 0 0  0 0 0 0.5 0" type="matrix" in="shadowBlurOuter1" result="shadowMatrixOuter1"></feColorMatrix>
            <feMerge>
                <feMergeNode in="shadowMatrixOuter1"></feMergeNode>
                <feMergeNode in="SourceGraphic"></feMergeNode>
            </feMerge>
        </filter>
    </defs>
    <g id="Page-1" stroke="none" stroke-width="1" fill="none" fill-rule="evenodd">
        <g id="快速crop-copy-2" transform="translate(-1269.000000, -432.000000)" fill-rule="nonzero" fill="#FFFFFF">
            <g id="手-(2)-copy" filter="url(#filter-1)" transform="translate(1273.000000, 434.000000)">
                <path d="M15.0807819,3.79865526 C14.724658,3.79865526 14.4872421,3.91736322 14.2498261,3.91736324 L14.2498261,2.96769942 C14.2498261,1.89932763 13.3001623,0.949663805 12.2317905,0.949663823 C11.8756666,0.949663823 11.5195426,1.06837179 11.2821267,1.18707976 C11.0447107,0.474831893 10.3324629,7.10542736e-15 9.50150703,7.10542736e-15 C8.67055119,7.10542736e-15 7.95830334,0.474831912 7.72088739,1.18707976 C7.36476344,1.06837179 7.00863952,0.949663823 6.6525156,0.949663823 C5.5841438,0.949663823 4.63447998,1.89932765 4.63447998,2.96769942 L4.63447998,9.49663816 L3.68481616,7.59731053 C3.4474002,7.12247862 2.97256829,6.76635469 2.4977364,6.64764671 C1.90419652,6.52893874 1.42936461,6.52893874 0.954532694,6.88506266 C0.00486888998,7.47860254 -0.232547066,8.66568232 0.242284827,9.61534613 C0.360992796,9.85276208 0.954532694,11.1585498 2.73515235,14.6010812 C3.56610819,16.3817008 4.63447998,17.6874886 5.5841438,18.3997364 C6.41509964,18.9932763 7.00863952,18.9932763 7.12734749,18.9932763 L11.8756666,18.9932763 C12.7066224,18.9932763 13.4188703,18.7558604 14.1311181,18.1623205 C14.724658,17.6874885 15.3181979,16.9752407 15.7930298,16.0255769 C16.6239856,14.2449572 17.0988176,11.8707977 17.0988176,8.90309828 L17.0988176,5.69798288 C17.0988176,4.62961109 16.2678617,3.79865526 15.0807819,3.79865526 Z M8.07701131,9.61534613 C8.43313524,9.61534613 8.67055119,9.37793017 8.67055119,9.02180625 L8.67055119,2.01803561 C8.67055119,1.5432037 9.02667512,1.18707978 9.50150703,1.18707976 C9.97633894,1.18707974 10.3324629,1.54320368 10.3324629,2.01803561 L10.3324629,9.02180625 C10.3324629,9.37793017 10.5698788,9.61534613 10.9260028,9.61534613 C11.2821267,9.61534613 11.5195426,9.37793017 11.5195426,9.02180625 L11.5195426,2.96769942 C11.5195426,2.49286751 11.8756666,2.13674358 12.3504985,2.13674358 C12.8253304,2.13674358 13.1814543,2.49286751 13.1814543,2.96769942 L13.1814543,9.97147007 C13.1814543,10.327594 13.4188703,10.5650099 13.7749942,10.5650099 C14.1311181,10.5650099 14.3685341,10.327594 14.3685341,9.97147007 L14.3685341,5.69798288 C14.3685341,5.22315097 14.724658,4.86702705 15.1994899,4.86702705 C15.6743218,4.86702705 16.0304458,5.22315097 16.0304458,5.69798288 L16.0304458,9.02180625 C16.0304458,11.6333817 15.5556139,14.0075413 14.843366,15.550745 C14.2498261,16.6191168 13.3001623,17.8061965 11.8756666,17.8061965 L7.24605548,17.8061965 C7.24605548,17.8061965 6.88993155,17.8061965 6.29639165,17.3313646 C5.70285175,16.8565327 4.87189594,16.0255769 3.80352415,14.0075413 C2.14161247,10.5650099 1.42936461,9.2592222 1.31065662,9.02180625 C1.07324066,8.54697433 1.19194865,8.07214242 1.66678056,7.83472649 C1.66678056,7.83472649 1.78548853,7.71601852 1.90419652,7.7160185 L2.14161247,7.7160185 C2.37902843,7.7160185 2.4977364,7.95343445 2.61644437,8.07214242 L4.0409401,10.6837179 C4.39706403,11.2772578 4.75318797,11.5146738 5.22801986,11.3959658 C5.70285177,11.2772578 5.82155974,10.9211339 5.82155974,10.208886 L5.82155974,2.96769942 C5.82155974,2.49286751 6.17768367,2.13674358 6.6525156,2.13674358 C7.12734751,2.13674358 7.48347143,2.49286751 7.48347143,2.96769942 L7.48347143,9.02180625 C7.48347143,9.37793017 7.72088739,9.61534613 8.07701131,9.61534613 Z" id="Shape"></path>
            </g>
        </g>
    </g>
</svg>