<?xml version="1.0" encoding="utf-8"?>
<!-- Generator: Adobe Illustrator 18.0.0, SVG Export Plug-In . SVG Version: 6.00 Build 0)  -->
<!DOCTYPE svg PUBLIC "-//W3C//DTD SVG 1.1//EN" "http://www.w3.org/Graphics/SVG/1.1/DTD/svg11.dtd">
<svg version="1.1" id="图层_1" xmlns="http://www.w3.org/2000/svg" xmlns:xlink="http://www.w3.org/1999/xlink" x="0px" y="0px"
	 viewBox="80 -19 80 66.5" enable-background="new 80 -19 80 66.5" xml:space="preserve">
<g>
	<path fill="#7B7B7B" d="M120,47.5c1.2,0,2.2-1,2.2-2.2V20.8l7.1,7.1c0.4,0.4,1,0.6,1.5,0.6s1.1-0.2,1.5-0.6c0.9-0.9,0.9-2.2,0-3
		l-10.8-10.8c-0.9-0.9-2.2-0.9-3,0l-10.8,10.8c-0.9,0.9-0.9,2.2,0,3c0.4,0.4,1,0.6,1.5,0.6s1.1-0.2,1.5-0.6l7.1-7.1v24.5
		C117.8,46.5,118.8,47.5,120,47.5z"/>
	<path fill="#7B7B7B" d="M143.7,2.8C142.7-9.5,132.4-19,120-19C106.9-19,96.2-8.3,96.2,4.8c0,1.1,0.1,2.2,0.2,3.2
		c-0.2,0-0.5,0-0.8,0C87,8,80,15.1,80,23.7s7,15.7,15.7,15.7h13.5c1.2,0,2.2-1,2.2-2.2c0-1.2-1-2.2-2.2-2.2H95.7
		c-6.3,0-11.4-5.1-11.4-11.4s5.1-11.4,11.4-11.4c1,0,1.9,0.1,2.9,0.4c0.8,0.2,1.5,0,2.1-0.5s0.8-1.4,0.5-2.2
		c-0.5-1.7-0.8-3.6-0.8-5.3c0-10.7,8.8-19.5,19.5-19.5s19.5,8.8,19.5,19.5c0,1.2,1,2.2,2.2,2.2c7.8,0,14.1,6.3,14.1,14.1
		s-6.3,14.1-14.1,14.1h-10.7c-1.2,0-2.2,1-2.2,2.2c0,1.2,1,2.2,2.2,2.2h10.8c10.2,0,18.4-8.2,18.4-18.4
		C160,11.6,152.9,3.8,143.7,2.8z"/>
</g>
</svg>
