<?xml version="1.0" encoding="UTF-8"?>
<svg width="18px" height="18px" viewBox="0 0 18 18" version="1.1" xmlns="http://www.w3.org/2000/svg" xmlns:xlink="http://www.w3.org/1999/xlink">
    <!-- Generator: Sketch 46 (44423) - http://www.bohemiancoding.com/sketch -->
    <title>facebook</title>
    <desc>Created with Sketch.</desc>
    <defs></defs>
    <g id="Page-1" stroke="none" stroke-width="1" fill="none" fill-rule="evenodd">
        <g id="mycomputer-copy" transform="translate(-216.000000, -164.000000)" fill-rule="nonzero" fill="#485992">
            <g id="facebook" transform="translate(216.000000, 164.000000)">
                <path d="M9.419,18 L12.225,18 L12.225,18 C11.749,18 10.618,18 9.419,18 L9.419,18 Z M4.455,0.011 C4.06025931,0.0120612071 3.66627107,0.045506728 3.277,0.111 C2.88748681,0.175813348 2.50950882,0.297089708 2.155,0.471 C1.79811911,0.659495703 1.47204357,0.901270428 1.188,1.188 C0.901668283,1.47238814 0.659940984,1.79839971 0.471,2.155 C0.297601842,2.50971512 0.176349902,2.887617 0.111,3.277 C0.045506728,3.66627107 0.0120612071,4.06025931 0.011,4.455 C0.011,4.546 0.011,4.631 0.011,4.763 L0,12.675 C0,12.775 0,12.884 0,13.004 C0,13.291 0.005,13.404 0.007,13.544 C0.00806120709,13.9387407 0.041506728,14.3327289 0.107,14.722 C0.14,14.896 0.177,15.063 0.225,15.222 C0.286648951,15.4347716 0.368000997,15.6413322 0.468,15.839 C0.656495703,16.1958809 0.898270428,16.5219564 1.185,16.806 C1.46938814,17.0923317 1.79539971,17.334059 2.152,17.523 C2.50671512,17.6963982 2.884617,17.8176501 3.274,17.883 C3.66327107,17.9484933 4.05725931,17.9819388 4.452,17.983 L4.992,17.99 L5.653,17.99 L9.418,17.99 L9.418,11.019 L7.155,11.019 L7.155,8.408 L9.4,8.408 L9.4,5.979 C9.39126645,5.10923623 9.74019156,4.27406927 10.3650848,3.66902895 C10.989978,3.06398864 11.8359712,2.74219985 12.705,2.779 L15.117,2.832 L15.117,5.337 L13.276,5.337 C12.7156474,5.41163123 12.3004599,5.89479755 12.311,6.46 L12.311,8.408 L15.029,8.408 L14.642,11.02 L12.225,11.02 L12.225,18 L12.341,18 L13.002,18 L13.457,18 C13.485,18 13.513,18 13.543,18 C13.9377407,17.9989388 14.3317289,17.9654933 14.721,17.9 C15.1105132,17.8351867 15.4884912,17.7139103 15.843,17.54 C16.558408,17.1574072 17.1444072,16.571408 17.527,15.856 C17.7003982,15.5012849 17.8216501,15.123383 17.887,14.734 C17.9524933,14.3447289 17.9859388,13.9507407 17.987,13.556 C17.987,13.421 17.987,13.303 17.994,13.016 C18.001,12.729 17.994,12.516 17.994,12.355 L17.994,5.467 C17.994,5.333 17.994,5.175 17.994,4.996 C17.994,4.709 17.989,4.596 17.987,4.456 C17.9859343,4.06125951 17.9524888,3.66727164 17.887,3.278 C17.8221867,2.88848681 17.7009103,2.51050882 17.527,2.156 C17.1442491,1.44096194 16.5582653,0.855326051 15.843,0.473 C15.4882849,0.299601842 15.110383,0.178349902 14.721,0.113 C14.3317289,0.047506728 13.9377407,0.0140612071 13.543,0.013 L13,0 L12.337,0 L5.655,0 L4.994,0 L4.455,0.011 Z"></path>
            </g>
        </g>
    </g>
</svg>