<?xml version="1.0" encoding="UTF-8"?>
<svg width="18px" height="18px" viewBox="0 0 18 18" version="1.1" xmlns="http://www.w3.org/2000/svg" xmlns:xlink="http://www.w3.org/1999/xlink">
    <!-- Generator: Sketch 46 (44423) - http://www.bohemiancoding.com/sketch -->
    <title>Instagram</title>
    <desc>Created with Sketch.</desc>
    <defs>
        <radialGradient cx="6.5%" cy="97.8%" fx="6.5%" fy="97.8%" r="127%" id="radialGradient-1">
            <stop stop-color="#FA8F21" offset="9%"></stop>
            <stop stop-color="#D82D7E" offset="78%"></stop>
        </radialGradient>
        <linearGradient x1="50%" y1="47%" x2="50%" y2="0%" id="linearGradient-2">
            <stop stop-color="#8C3AAA" stop-opacity="0" offset="0%"></stop>
            <stop stop-color="#8C3AAA" offset="100%"></stop>
        </linearGradient>
    </defs>
    <g id="Page-1" stroke="none" stroke-width="1" fill="none" fill-rule="evenodd">
        <g id="mycomputer-copy" transform="translate(-248.000000, -164.000000)" fill-rule="nonzero">
            <g id="Instagram" transform="translate(248.000000, 164.000000)">
                <path d="M4.564,17.936 C3.86766306,17.9280913 3.17789926,17.8002194 2.525,17.558 C2.04807647,17.3818773 1.61655467,17.101371 1.262,16.737 C0.897066832,16.3832983 0.616460322,15.9519641 0.441,15.475 C0.199121729,14.8220405 0.0715884895,14.1322785 0.064,13.436 C0.011,12.28 0,11.933 0,9 C0,6.067 0.012,5.722 0.064,4.564 C0.0723763489,3.86812364 0.199886735,3.17882346 0.441,2.526 C0.617515634,2.04927374 0.89796875,1.61783369 1.262,1.263 C1.61597517,0.897686304 2.04764546,0.616741747 2.525,0.441 C3.17795955,0.199121729 3.86772155,0.0715884895 4.564,0.064 C5.721,0.011 6.069,0 9,0 C11.931,0 12.278,0.012 13.436,0.064 C14.132271,0.0725826502 14.8219208,0.20043337 15.475,0.442 C15.9520916,0.617787716 16.3836833,0.898339428 16.738,1.263 C17.1026606,1.61731672 17.3832123,2.04890845 17.559,2.526 C17.8012194,3.17889926 17.9290913,3.86866306 17.937,4.565 C17.989,5.722 18,6.069 18,9 C18,11.931 17.989,12.278 17.936,13.436 C17.9275357,14.1322826 17.7996813,14.8219523 17.558,15.475 C17.1885038,16.4323744 16.4315516,17.1889633 15.474,17.558 C14.8211007,17.8002194 14.1313369,17.9280913 13.435,17.936 C12.279,17.989 11.931,18 9,18 C6.069,18 5.722,17.99 4.565,17.936" id="Path_47" fill="url(#radialGradient-1)"></path>
                <path d="M4.564,17.936 C3.86766306,17.9280913 3.17789926,17.8002194 2.525,17.558 C2.04807647,17.3818773 1.61655467,17.101371 1.262,16.737 C0.897066832,16.3832983 0.616460322,15.9519641 0.441,15.475 C0.199121729,14.8220405 0.0715884895,14.1322785 0.064,13.436 C0.011,12.28 0,11.933 0,9 C0,6.067 0.012,5.722 0.064,4.564 C0.0723763489,3.86812364 0.199886735,3.17882346 0.441,2.526 C0.617515634,2.04927374 0.89796875,1.61783369 1.262,1.263 C1.61597517,0.897686304 2.04764546,0.616741747 2.525,0.441 C3.17795955,0.199121729 3.86772155,0.0715884895 4.564,0.064 C5.721,0.011 6.069,0 9,0 C11.931,0 12.278,0.012 13.436,0.064 C14.132271,0.0725826502 14.8219208,0.20043337 15.475,0.442 C15.9520916,0.617787716 16.3836833,0.898339428 16.738,1.263 C17.1026606,1.61731672 17.3832123,2.04890845 17.559,2.526 C17.8012194,3.17889926 17.9290913,3.86866306 17.937,4.565 C17.989,5.722 18,6.069 18,9 C18,11.931 17.989,12.278 17.936,13.436 C17.9275357,14.1322826 17.7996813,14.8219523 17.558,15.475 C17.1885038,16.4323744 16.4315516,17.1889633 15.474,17.558 C14.8211007,17.8002194 14.1313369,17.9280913 13.435,17.936 C12.279,17.989 11.931,18 9,18 C6.069,18 5.722,17.99 4.565,17.936" id="Path_48" fill="url(#linearGradient-2)"></path>
                <path d="M6.811,9.041 C6.81142434,7.97667183 7.5636077,7.06085129 8.60756183,6.85359686 C9.65151596,6.64634243 10.6964993,7.20537455 11.1034655,8.18882418 C11.5104316,9.17227381 11.1660404,10.3062499 10.2808999,10.8972837 C9.39575942,11.4883175 8.21638156,11.3718058 7.464,10.619 C7.04566044,10.2004245 6.81076406,9.63278826 6.811,9.041 M5.605,9.041 C5.60468893,10.6807223 6.7627226,12.0923164 8.37088182,12.4124931 C9.97904105,12.7326698 11.589421,11.8722534 12.2171609,10.3574492 C12.8449007,8.84264493 12.3151623,7.09535643 10.9519179,6.1841737 C9.5886735,5.27299097 7.7716143,5.4516968 6.612,6.611 C5.96739779,7.25542928 5.60517292,8.1295171 5.605,9.041 M11.811,5.468 C11.811,5.9098278 12.1691722,6.268 12.611,6.268 C13.0528278,6.268 13.411,5.9098278 13.411,5.468 C13.411,5.0261722 13.0528278,4.668 12.611,4.668 L12.611,4.668 C12.3988268,4.668 12.1953437,4.75228547 12.0453146,4.90231458 C11.8952855,5.05234368 11.811,5.25582681 11.811,5.468 M6.337,14.489 C5.91254076,14.4842032 5.49207226,14.4064013 5.094,14.259 C4.51001762,14.0341178 4.0483418,13.5728052 3.823,12.989 C3.67559871,12.5909277 3.59779682,12.1704592 3.593,11.746 C3.56,11.04 3.554,10.828 3.554,9.046 C3.554,7.264 3.561,7.046 3.593,6.346 C3.59754307,5.91849898 3.67568537,5.49497448 3.824,5.094 C4.04900971,4.51032709 4.51032709,4.04900971 5.094,3.824 C5.49207226,3.67659871 5.91254076,3.59879682 6.337,3.594 C7.043,3.561 7.255,3.555 9.037,3.555 C10.819,3.555 11.037,3.562 11.737,3.594 C12.161413,3.59927053 12.5818015,3.67705762 12.98,3.824 C13.5667069,4.04712566 14.0311946,4.50870577 14.258,5.094 C14.4054013,5.49207226 14.4832032,5.91254076 14.488,6.337 C14.521,7.043 14.527,7.255 14.527,9.037 C14.527,10.819 14.521,11.037 14.488,11.737 C14.4829458,12.1614341 14.405152,12.5818591 14.258,12.98 C14.0326582,13.5638052 13.5709824,14.0251178 12.987,14.25 C12.5889277,14.3974013 12.1684592,14.4752032 11.744,14.48 C11.038,14.513 10.826,14.519 9.044,14.519 C7.262,14.519 7.044,14.513 6.344,14.48 M6.289,2.38 C5.73052481,2.39433071 5.17859549,2.50390492 4.657,2.704 C3.7605273,3.05170319 3.05170319,3.7605273 2.704,4.657 C2.50916159,5.17717546 2.40400231,5.72664114 2.393,6.282 C2.36,6.996 2.352,7.224 2.352,9.042 C2.352,10.86 2.36,11.088 2.393,11.802 C2.40420856,12.3566872 2.50936486,12.9054611 2.704,13.425 C3.05166085,14.3243753 3.76262467,15.0353392 4.662,15.383 C5.18219119,15.5777824 5.73164721,15.6829398 6.287,15.694 C7.001,15.727 7.229,15.734 9.047,15.734 C10.865,15.734 11.093,15.726 11.807,15.694 C12.3623609,15.683017 12.9118298,15.5778571 13.432,15.383 C14.3313753,15.0353392 15.0423392,14.3243753 15.39,13.425 C15.5821923,12.9057237 15.6849813,12.3576284 15.694,11.804 C15.727,11.09 15.734,10.862 15.734,9.044 C15.734,7.226 15.726,6.998 15.694,6.284 C15.6830363,5.72863709 15.5778758,5.17916496 15.383,4.659 C15.0347559,3.76103322 14.3243224,3.05132574 13.426,2.704 C12.9071218,2.50760055 12.3586574,2.40074805 11.804,2.388 C11.09,2.355 10.862,2.347 9.045,2.347 C7.228,2.347 6.999,2.355 6.285,2.388" id="Path_49" fill="#FFFFFF"></path>
            </g>
        </g>
    </g>
</svg>