<?xml version="1.0" encoding="UTF-8"?>
<svg width="62px" height="46px" viewBox="0 0 62 46" version="1.1" xmlns="http://www.w3.org/2000/svg" xmlns:xlink="http://www.w3.org/1999/xlink">
    <!-- Generator: Sketch 46 (44423) - http://www.bohemiancoding.com/sketch -->
    <title>loading-2</title>
    <desc>Created with Sketch.</desc>
    <defs></defs>
    <g id="Page-1" stroke="none" stroke-width="1" fill="none" fill-rule="evenodd">
        <g id="preview-loading" transform="translate(-929.000000, -431.000000)" fill="#7B7B7B">
            <g id="loading-2" transform="translate(928.000000, 431.000000)">
                <g id="Loading…-Copy" transform="translate(0.000000, 32.000000)" font-size="14" font-family="Gotham-ExtraLight, Gotham" font-weight="300">
                    <text id="Loading…">
                        <tspan x="0.152" y="11">Loading…</tspan>
                    </text>
                </g>
                <g id="loading-(2)" transform="translate(23.000000, 0.000000)" fill-rule="nonzero">
                    <path d="M4.88187252,11.7501859 L0.661670362,11.7501859 C0.297739164,11.7501859 0,11.451897 0,11.0873445 L0,11.0685421 C0,10.7039668 0.29776188,10.4057008 0.661670362,10.4057008 L4.88187252,10.4057008 C5.24580372,10.4057008 5.54354288,10.7039896 5.54354288,11.0685421 L5.54354288,11.0873445 C5.54356562,11.4519198 5.24580372,11.7501859 4.88187252,11.7501859 Z M21.3383523,11.7501859 L17.1181275,11.7501859 C16.7541962,11.7501859 16.4564571,11.451897 16.4564571,11.0873445 L16.4564571,11.0685421 C16.4564571,10.7039668 16.7542189,10.4057008 17.1181275,10.4057008 L21.3383296,10.4057008 C21.7022608,10.4057008 22,10.7039896 22,11.0685421 L22,11.0873445 C22.0000227,11.4519198 21.7022608,11.7501859 21.3383523,11.7501859 Z M20.3837146,6.37408932 L16.7106363,8.4558969 C16.3939007,8.63540742 15.9881138,8.52268409 15.8089204,8.20538798 L15.7996722,8.18902124 C15.6204787,7.87172514 15.733003,7.46522009 16.0497385,7.28570955 L19.7228169,5.20390197 C20.0395524,5.02439144 20.4453394,5.13711477 20.6245327,5.45441089 L20.633781,5.47077762 C20.8129971,5.78807373 20.7004729,6.19455603 20.3837146,6.37408932 Z M16.8053002,2.32431283 L14.6317339,5.94814448 C14.444292,6.26063755 14.0357102,6.36268494 13.7237692,6.17493415 L13.7076813,6.16523705 C13.3957402,5.97746348 13.2938732,5.56815855 13.4812923,5.25566547 L15.6548587,1.63183383 C15.8423005,1.31934075 16.2508823,1.21729337 16.5628234,1.40504415 L16.5789112,1.41471851 C16.8908522,1.60251483 16.9927421,2.01181976 16.8053002,2.32431283 Z M11.6625224,0.666355842 L11.6407084,4.89398113 C11.6388224,5.25853363 11.339538,5.55527457 10.9756296,5.55338523 L10.9568604,5.55329419 C10.5929519,5.55140485 10.2967352,5.25159087 10.2986212,4.88703836 L10.3204352,0.659413078 C10.3223213,0.294860575 10.6216056,-0.00188036332 10.9855141,8.97222342e-06 L11.0042832,0.000100020023 C11.3681918,0.00196659921 11.6644085,0.30180334 11.6625224,0.666355842 Z M6.4557341,1.6242992 L8.57412907,5.28077326 C8.75679909,5.59608897 8.64875133,6.00380049 8.33399264,6.18679377 L8.31774571,6.19624049 C8.00298705,6.37923379 7.59599579,6.27099481 7.41332579,5.95567909 L5.29493082,2.29920502 C5.11226079,1.98388932 5.22030855,1.5761778 5.53506724,1.39318452 L5.55131417,1.38373779 C5.86607283,1.20074452 6.27304135,1.30900625 6.4557341,1.6242992 Z M2.33042307,5.19518367 L5.99000396,7.3007105 C6.30558065,7.48226971 6.4154917,7.88948043 6.23425322,8.20561561 L6.22491408,8.22191405 C6.04367562,8.53804923 5.63718427,8.6481548 5.32160758,8.46659557 L1.66200398,6.36109153 C1.34642729,6.17953232 1.23651623,5.77232159 1.41775471,5.45618642 L1.42709385,5.43988798 C1.60835503,5.12373 2.01484635,5.01362444 2.33042307,5.19518367 Z M19.708615,16.7702433 L16.053806,14.6564079 C15.7386382,14.4741202 15.6296588,14.0666592 15.8116244,13.7509337 L15.821009,13.7346581 C16.0029746,13.4189326 16.4097159,13.3097603 16.7248836,13.492048 L20.3796926,15.6058834 C20.6948604,15.7881709 20.8038398,16.1956321 20.6218742,16.5113575 L20.6124896,16.5276332 C20.4305013,16.8433587 20.0237599,16.9525309 19.708615,16.7702433 Z M6.0211117,14.6042802 L2.37918657,16.7403325 C2.0651323,16.9245322 1.65773205,16.8178183 1.47385772,16.5032083 L1.46438223,16.4869782 C1.2805079,16.1723681 1.38703322,15.7642469 1.70108748,15.5800471 L5.34301262,13.4439948 C5.65706688,13.2597951 6.06446714,13.3665089 6.24834147,13.681119 L6.25781696,13.6973492 C6.44166856,14.0119592 6.33516597,14.4200805 6.0211117,14.6042802 Z M8.56324475,16.5903913 L6.47143566,20.262185 C6.29106065,20.5788211 5.88486474,20.6900192 5.56878813,20.509325 L5.55249575,20.5000149 C5.23641914,20.3193206 5.12541739,19.9124058 5.30579239,19.5957699 L7.39760148,15.9239762 C7.57797649,15.6073402 7.9841724,15.496142 8.30024901,15.6768362 L8.31656411,15.6861464 C8.632618,15.8668633 8.74364247,16.2737781 8.56324475,16.5903913 Z M11.6983794,17.1119871 L11.682655,21.3396351 C11.6812917,21.7042104 11.382439,22.0013611 11.0185079,21.9999953 L10.9997386,21.999927 C10.6358075,21.9985613 10.3391817,21.6991798 10.3405224,21.3346045 L10.3562467,17.1069564 C10.35761,16.7423811 10.6564627,16.4452304 11.0203939,16.4465735 L11.039163,16.4466418 C11.4030942,16.4480304 11.6997427,16.7474119 11.6983794,17.1119871 Z M14.6963808,15.9985256 L16.7608087,19.6858438 C16.9388204,20.0038228 16.8247965,20.4098726 16.5073793,20.5882222 L16.490996,20.5974185 C16.1735788,20.7757454 15.7682463,20.6615196 15.5902118,20.3435407 L13.5257839,16.6562224 C13.347772,16.3382435 13.461796,15.9321937 13.7792132,15.7538441 L13.7955965,15.7446478 C14.1130138,15.566321 14.518369,15.6805466 14.6963808,15.9985256 Z" id="Shape"></path>
                </g>
            </g>
        </g>
    </g>
</svg>