<?xml version="1.0" encoding="UTF-8"?>
<svg width="13px" height="13px" viewBox="0 0 13 13" version="1.1" xmlns="http://www.w3.org/2000/svg" xmlns:xlink="http://www.w3.org/1999/xlink">
    <!-- Generator: Sketch 43 (38999) - http://www.bohemiancoding.com/sketch -->
    <title>group-31</title>
    <desc>Created with Sketch.</desc>
    <defs></defs>
    <g id="Page-1" stroke="none" stroke-width="1" fill="none" fill-rule="evenodd">
        <g id="Artboard" transform="translate(-1867.000000, -60.000000)" fill="#3A3A3A">
            <g id="group-31" transform="translate(1867.000000, 60.000000)">
                <path d="M6.7,12.7 C3.3862915,12.7 0.7,10.0137085 0.7,6.7 C0.7,3.3862915 3.3862915,0.7 6.7,0.7 C10.0137085,0.7 12.7,3.3862915 12.7,6.7 C12.6961426,10.0121094 10.0121094,12.6961426 6.7,12.7 L6.7,12.7 L6.7,12.7 Z M6.7,1.406 C3.77698787,1.40931282 1.40979359,3.7809823 1.41200151,6.70399547 C1.41420943,9.62700864 3.78498394,11.9950992 6.70799773,11.9939962 C9.63101153,11.9928932 11.9999981,9.623014 12,6.7 C11.9966889,3.77523425 9.62476763,1.40599813 6.7,1.406 L6.7,1.406 L6.7,1.406 Z" id="path"></path>
                <path d="M6.7,10.28 C6.58356996,10.28 6.47190859,10.2337483 6.38958012,10.1514199 C6.30725165,10.0690914 6.261,9.95743004 6.261,9.841 L6.261,5.405 C6.261,5.16254699 6.45754699,4.966 6.7,4.966 C6.94245301,4.966 7.139,5.16254699 7.139,5.405 L7.139,9.843 C7.1390003,9.95933829 7.09271676,10.0708971 7.01035942,10.1530669 C6.92800208,10.2352366 6.81633799,10.2812656 6.7,10.281 L6.7,10.281 L6.7,10.28 Z" id="path-2"></path>
                <path d="M6.701,4.197 L6.701,4.197 C6.36962915,4.197 6.101,3.92837085 6.101,3.597 L6.101,3.597 C6.101,3.43787011 6.1642141,3.28525776 6.27673593,3.17273593 C6.38925776,3.0602141 6.54187011,2.997 6.701,2.997 L6.701,2.997 C7.03237085,2.997 7.301,3.26562915 7.301,3.597 L7.301,3.597 C7.301,3.92837085 7.03237085,4.197 6.701,4.197 L6.701,4.197 L6.701,4.197 Z" id="path-3"></path>
            </g>
        </g>
    </g>
</svg>