<?xml version="1.0" encoding="utf-8"?>
<!-- Generator: Adobe Illustrator 18.0.0, SVG Export Plug-In . SVG Version: 6.00 Build 0)  -->
<!DOCTYPE svg PUBLIC "-//W3C//DTD SVG 1.1//EN" "http://www.w3.org/Graphics/SVG/1.1/DTD/svg11.dtd">
<svg version="1.1" id="图层_1" xmlns="http://www.w3.org/2000/svg" xmlns:xlink="http://www.w3.org/1999/xlink" x="0px" y="0px"
	 viewBox="210 199 155 177" enable-background="new 210 199 155 177" xml:space="preserve">
<g>
	<path fill="#7B7B7B" d="M287.6,329.8c2.2,0,4.1-1.9,4.1-4.1v-45.9l13.3,13.3c0.7,0.7,1.9,1.1,2.8,1.1s2.1-0.4,2.8-1.1
		c1.7-1.7,1.7-4.1,0-5.6l-20.2-20.2c-1.7-1.7-4.1-1.7-5.6,0l-20.2,20.2c-1.7,1.7-1.7,4.1,0,5.6c0.7,0.7,1.9,1.1,2.8,1.1
		s2.1-0.4,2.8-1.1l13.3-13.3v45.9C283.4,327.9,285.3,329.8,287.6,329.8z"/>
	<path fill="#7B7B7B" d="M332,246c-1.9-23-21.2-40.8-44.4-40.8c-24.5,0-44.6,20-44.6,44.6c0,2.1,0.2,4.1,0.4,6c-0.4,0-0.9,0-1.5,0
		c-16.1,0-29.2,13.3-29.2,29.4c0,16.1,13.1,29.4,29.4,29.4h25.3c2.2,0,4.1-1.9,4.1-4.1c0-2.2-1.9-4.1-4.1-4.1H242
		c-11.8,0-21.4-9.6-21.4-21.4c0-11.8,9.6-21.4,21.4-21.4c1.9,0,3.6,0.2,5.4,0.7c1.5,0.4,2.8,0,3.9-0.9s1.5-2.6,0.9-4.1
		c-0.9-3.2-1.5-6.7-1.5-9.9c0-20,16.5-36.5,36.5-36.5c20,0,36.5,16.5,36.5,36.5c0,2.2,1.9,4.1,4.1,4.1c14.6,0,26.4,11.8,26.4,26.4
		s-11.8,26.4-26.4,26.4h-20c-2.2,0-4.1,1.9-4.1,4.1c0,2.2,1.9,4.1,4.1,4.1h20.2c19.1,0,34.5-15.4,34.5-34.5
		C362.5,262.5,349.2,247.9,332,246z"/>
</g>
<g>
	<path fill="#ACACAC" d="M221.9,358.6L221.9,358.6c0-2.8,2.1-5.1,5-5.1c1.8,0,2.8,0.6,3.8,1.6l-0.8,0.8c-0.8-0.8-1.8-1.3-3.1-1.3
		c-2.2,0-3.8,1.8-3.8,4v0c0,2.3,1.6,4,3.8,4c1.3,0,2.2-0.5,3.2-1.4l0.7,0.7c-1,1-2.1,1.7-3.9,1.7C224,363.7,221.9,361.4,221.9,358.6
		z"/>
	<path fill="#ACACAC" d="M232.6,353.3h1.1v10.2h-1.1V353.3z"/>
	<path fill="#ACACAC" d="M236.2,353.5h1.2v1.2h-1.2V353.5z M236.3,356.3h1.1v7.2h-1.1V356.3z"/>
	<path fill="#ACACAC" d="M239.4,359.9L239.4,359.9c0-2.1,1.6-3.8,3.7-3.8c1.4,0,2.2,0.6,2.9,1.3l-0.7,0.8c-0.6-0.6-1.2-1.1-2.2-1.1
		c-1.5,0-2.6,1.2-2.6,2.8v0c0,1.6,1.1,2.8,2.7,2.8c0.9,0,1.6-0.5,2.2-1.1l0.7,0.6c-0.7,0.8-1.6,1.4-3,1.4
		C241,363.7,239.4,361.9,239.4,359.9z"/>
	<path fill="#ACACAC" d="M247.9,353.3h1.1v7.1l3.9-4.1h1.3l-3,3.1l3.1,4.1H253l-2.6-3.4l-1.5,1.5v1.9h-1.1V353.3z"/>
	<path fill="#ACACAC" d="M262.8,354.7h-3.3v-1h7.7v1h-3.3v8.8h-1.1V354.7z"/>
	<path fill="#ACACAC" d="M266.9,359.9L266.9,359.9c0-2.1,1.6-3.8,3.8-3.8c2.2,0,3.8,1.7,3.8,3.8v0c0,2-1.6,3.8-3.8,3.8
		C268.4,363.7,266.9,362,266.9,359.9z M273.3,359.9L273.3,359.9c0-1.6-1.2-2.9-2.7-2.9c-1.6,0-2.6,1.3-2.6,2.8v0
		c0,1.6,1.1,2.8,2.7,2.8C272.2,362.7,273.3,361.4,273.3,359.9z"/>
	<path fill="#ACACAC" d="M284.4,353.6h1l4.5,9.9h-1.2l-1.1-2.6h-5.3l-1.2,2.6h-1.1L284.4,353.6z M287.1,359.9l-2.2-5l-2.2,5H287.1z"
		/>
	<path fill="#ACACAC" d="M290.8,359.9L290.8,359.9c0-2.4,1.7-3.8,3.5-3.8c1.3,0,2.2,0.7,2.8,1.5v-4.4h1.1v10.2h-1.1V362
		c-0.6,0.9-1.4,1.6-2.8,1.6C292.6,363.7,290.8,362.3,290.8,359.9z M297.1,359.9L297.1,359.9c0-1.7-1.3-2.8-2.6-2.8
		c-1.4,0-2.5,1-2.5,2.8v0c0,1.7,1.2,2.8,2.5,2.8C295.8,362.7,297.1,361.6,297.1,359.9z"/>
	<path fill="#ACACAC" d="M300.1,359.9L300.1,359.9c0-2.4,1.7-3.8,3.5-3.8c1.3,0,2.2,0.7,2.8,1.5v-4.4h1.1v10.2h-1.1V362
		c-0.6,0.9-1.4,1.6-2.8,1.6C301.9,363.7,300.1,362.3,300.1,359.9z M306.4,359.9L306.4,359.9c0-1.7-1.3-2.8-2.6-2.8
		c-1.4,0-2.5,1-2.5,2.8v0c0,1.7,1.2,2.8,2.5,2.8C305.1,362.7,306.4,361.6,306.4,359.9z"/>
	<path fill="#ACACAC" d="M314.2,353.7h3.7c2.2,0,3.7,1.2,3.7,3.1v0c0,2.1-1.8,3.2-3.9,3.2h-2.4v3.5h-1.1V353.7z M317.8,359
		c1.6,0,2.7-0.9,2.7-2.2v0c0-1.4-1.1-2.1-2.6-2.1h-2.5v4.3H317.8z"/>
	<path fill="#ACACAC" d="M323.4,353.3h1.1v4.2c0.5-0.8,1.2-1.4,2.5-1.4c1.8,0,2.8,1.2,2.8,2.9v4.5h-1.1v-4.2c0-1.3-0.7-2.2-2-2.2
		c-1.2,0-2.2,0.9-2.2,2.3v4.1h-1.1V353.3z"/>
	<path fill="#ACACAC" d="M331.6,359.9L331.6,359.9c0-2.1,1.6-3.8,3.8-3.8c2.2,0,3.8,1.7,3.8,3.8v0c0,2-1.6,3.8-3.8,3.8
		C333.2,363.7,331.6,362,331.6,359.9z M338,359.9L338,359.9c0-1.6-1.2-2.9-2.7-2.9c-1.6,0-2.6,1.3-2.6,2.8v0c0,1.6,1.1,2.8,2.7,2.8
		C336.9,362.7,338,361.4,338,359.9z"/>
	<path fill="#ACACAC" d="M341.5,361.6v-4.4h-1v-1h1v-2.2h1.1v2.2h2.3v1h-2.3v4.2c0,0.9,0.5,1.2,1.2,1.2c0.4,0,0.7-0.1,1.1-0.3v0.9
		c-0.4,0.2-0.8,0.3-1.3,0.3C342.3,363.6,341.5,363.1,341.5,361.6z"/>
	<path fill="#ACACAC" d="M346.1,359.9L346.1,359.9c0-2.1,1.6-3.8,3.8-3.8c2.2,0,3.8,1.7,3.8,3.8v0c0,2-1.6,3.8-3.8,3.8
		C347.7,363.7,346.1,362,346.1,359.9z M352.5,359.9L352.5,359.9c0-1.6-1.2-2.9-2.7-2.9c-1.6,0-2.6,1.3-2.6,2.8v0
		c0,1.6,1.1,2.8,2.7,2.8C351.4,362.7,352.5,361.4,352.5,359.9z"/>
</g>
</svg>
